<svg width="101" height="100" viewBox="0 0 101 100" fill="none" xmlns="http://www.w3.org/2000/svg">
<g id="illustration/analysis">
<path id="Vector 21" d="M29.1504 92.5L40.4004 71.875M71.6504 92.5L61.0254 71.875" stroke="#3930BF" stroke-width="4" stroke-linecap="round" stroke-linejoin="round"/>
<g id="Vector 18">
<path d="M84.7754 66.875V15.625H16.0254V66.875C16.0254 69.6364 18.264 71.875 21.0254 71.875H40.4004H61.0254H79.7754C82.5368 71.875 84.7754 69.6364 84.7754 66.875Z" fill="#DEDCFA"/>
<path d="M6.02539 15.625H16.0254M94.1504 15.625H84.7754M84.7754 15.625V66.875C84.7754 69.6364 82.5368 71.875 79.7754 71.875H61.0254H40.4004H21.0254C18.264 71.875 16.0254 69.6364 16.0254 66.875V15.625M84.7754 15.625H16.0254" stroke="#DEDCFA" stroke-width="4" stroke-linecap="round" stroke-linejoin="round"/>
</g>
<path id="Vector 19" d="M34.7754 46.25V53.75M50.4004 40V53.75M66.0254 53.75V33.75" stroke="#3930BF" stroke-width="4" stroke-linecap="round" stroke-linejoin="round"/>
<path id="Vector 20" d="M6.02539 15.625H16.0254H84.7754H94.1504" stroke="#3930BF" stroke-width="4" stroke-linecap="round" stroke-linejoin="round"/>
</g>
</svg>
