<svg width="101" height="100" viewBox="0 0 101 100" fill="none" xmlns="http://www.w3.org/2000/svg">
<g id="illustration/morgage">
<path id="Vector" d="M82.5227 66.6104C82.5227 65.2297 81.4034 64.1104 80.0227 64.1104H74.7168C73.3361 64.1104 72.2168 65.2297 72.2168 66.6104V71.9163C72.2168 73.297 73.3361 74.4163 74.7168 74.4163H80.0227C81.4034 74.4163 82.5227 73.297 82.5227 71.9163V66.6104ZM82.5227 46.5191C82.5227 45.1383 81.4034 44.0191 80.0227 44.0191H74.7168C73.3361 44.0191 72.2168 45.1383 72.2168 46.5191V51.825C72.2168 53.2057 73.3361 54.325 74.7168 54.325H80.0227C81.4034 54.325 82.5227 53.2057 82.5227 51.825V46.5191ZM82.5227 26.4277C82.5227 25.047 81.4034 23.9277 80.0227 23.9277H74.7168C73.3361 23.9277 72.2168 25.047 72.2168 26.4277V31.7337C72.2168 33.1144 73.3361 34.2337 74.7168 34.2337H80.0227C81.4034 34.2337 82.5227 33.1144 82.5227 31.7337V26.4277Z" stroke="white" stroke-width="3"/>
<path id="Vector_2" d="M59.6927 26.4277C59.6927 25.047 58.5734 23.9277 57.1927 23.9277H51.8867C50.506 23.9277 49.3867 25.047 49.3867 26.4277V31.7337C49.3867 33.1144 50.506 34.2337 51.8867 34.2337H57.1927C58.5734 34.2337 59.6927 33.1144 59.6927 31.7337V26.4277Z" stroke="white" stroke-width="3"/>
<path id="Vector_3" d="M92.6123 83.3322V16.9258C92.6123 14.7166 90.8214 12.9258 88.6123 12.9258H41.4707C39.2616 12.9258 37.4707 14.7166 37.4707 16.9258V28.1619C37.4707 29.1656 37.9727 30.1029 38.8083 30.6591L61.7039 45.9011C62.5395 46.4573 63.0415 47.3946 63.0415 48.3983V83.3322C63.0415 84.989 64.3846 86.3322 66.0415 86.3322H89.6123C91.2691 86.3322 92.6123 84.989 92.6123 83.3322Z" stroke="white" stroke-width="4"/>
<path id="Vector_4" d="M10.5508 87.0715C9.9985 87.0715 9.55078 86.6238 9.55078 86.0715V49.5648C9.55078 47.893 10.3863 46.3319 11.7773 45.4045L34.1745 30.473C35.854 29.3534 38.042 29.3534 39.7215 30.473L62.1188 45.4045C63.5098 46.3319 64.3453 47.893 64.3453 49.5648V86.0715C64.3453 86.6238 63.8976 87.0715 63.3453 87.0715H47.0805C46.5282 87.0715 46.0805 86.6238 46.0805 86.0715V63.5007C46.0805 62.3962 45.185 61.5007 44.0805 61.5007H29.8156C28.7111 61.5007 27.8156 62.3962 27.8156 63.5007V86.0715C27.8156 86.6238 27.3679 87.0715 26.8156 87.0715H10.5508Z" fill="#F1A179" stroke="#F1A179" stroke-width="4"/>
<path id="Vector_5" d="M15.5615 62.5574L14.6314 67.0733C14.3657 68.3636 15.1341 69.5306 16.4244 69.7963C17.7146 70.0621 18.8816 69.2936 19.1474 68.0034L26.1227 34.1338C28.319 34.0817 30.6482 33.3845 32.5932 32.1038C38.0392 28.5179 39.5007 21.4214 35.9148 15.9754C32.3289 10.5295 25.2324 9.06797 19.7864 12.6539C14.3404 16.2398 12.8789 23.3363 16.4648 28.7823C17.7455 30.7273 19.6097 32.2881 21.6067 33.2037L18.3516 49.0095L13.8356 48.0795C12.5454 47.8138 11.3784 48.5822 11.1126 49.8725C10.8469 51.1627 11.6153 52.3297 12.9056 52.5954L17.4215 53.5255L16.4915 58.0414L11.9755 57.1114C10.6853 56.8457 9.51828 57.6141 9.25255 58.9043C8.98683 60.1946 9.75523 61.3616 11.0455 61.6273L15.5615 62.5574ZM22.3477 16.5439C25.6542 14.3667 29.8476 15.2303 32.0248 18.5368C34.2019 21.8433 33.3383 26.0367 30.0318 28.2138C26.7253 30.391 22.532 29.5274 20.3548 26.2209C18.1776 22.9144 19.0412 18.721 22.3477 16.5439Z" fill="white"/>
</g>
</svg>
