<svg width="100" height="100" viewBox="0 0 100 100" fill="none" xmlns="http://www.w3.org/2000/svg">
<g id="illustration/business">
<path id="Vector" d="M41.6693 24.9997H58.3359M66.6693 24.9997C66.6693 17.1413 66.6693 13.2163 64.2276 10.7747C61.7859 8.33301 57.8609 8.33301 50.0026 8.33301C42.1443 8.33301 38.2193 8.33301 35.7776 10.7747C33.3359 13.2163 33.3359 17.1413 33.3359 24.9997" stroke="#3930BF" stroke-width="4"/>
<path id="Vector_2" d="M8.33594 58.3333C8.33594 42.6208 8.33594 34.7625 13.2193 29.8833C18.0984 25 25.9568 25 41.6693 25H58.3359C74.0484 25 81.9068 25 86.7859 29.8833C91.6693 34.7625 91.6693 42.6208 91.6693 58.3333C91.6693 74.0458 91.6693 81.9042 86.7859 86.7833C81.9068 91.6667 74.0484 91.6667 58.3359 91.6667H41.6693C25.9568 91.6667 18.0984 91.6667 13.2193 86.7833C8.33594 81.9042 8.33594 74.0458 8.33594 58.3333Z" fill="#DEDCFA" stroke="#DEDCFA" stroke-width="4"/>
<path id="Vector_3" d="M50.0033 72.2202C54.6074 72.2202 58.3366 69.1118 58.3366 65.2785C58.3366 61.4452 54.6074 58.3327 50.0033 58.3327C45.3991 58.3327 41.6699 55.2243 41.6699 51.3868C41.6699 47.5535 45.3991 44.4452 50.0033 44.4452M50.0033 72.2202C45.3991 72.2202 41.6699 69.1118 41.6699 65.2785M50.0033 72.2202V74.9993M50.0033 44.4452V41.666M50.0033 44.4452C54.6074 44.4452 58.3366 47.5535 58.3366 51.3868" stroke="#3930BF" stroke-width="4" stroke-linecap="round"/>
</g>
</svg>
