<svg width="101" height="100" viewBox="0 0 101 100" fill="none" xmlns="http://www.w3.org/2000/svg">
<g clip-path="url(#clip0_688_55109)">
<path fill-rule="evenodd" clip-rule="evenodd" d="M83.234 83.0142C82.3873 83.8214 81.3375 84.3673 80.2041 84.5897L63.2182 87.9236C62.4237 88.0795 61.6073 88.0727 60.8154 87.9036C60.0235 87.7344 59.2718 87.4063 58.6031 86.9378C57.9344 86.4694 57.3618 85.8698 56.9181 85.1734C56.4744 84.477 56.1683 83.6974 56.0173 82.8791L54.098 72.4947C53.7929 70.8431 54.137 69.1343 55.0549 67.7439C55.9727 66.3536 57.389 65.3956 58.9924 65.0805L73.901 62.1564C75.0952 61.9228 76.3298 62.0584 77.4492 62.5463L80.0201 63.6653C80.4571 63.855 80.9445 63.883 81.3994 63.7445C81.8542 63.6059 82.2484 63.3093 82.5149 62.9052L84.8425 59.377C87.9276 54.7092 94.9556 56.2101 95.9812 61.7608L96.7769 66.0401C96.9731 67.0973 96.9048 68.1885 96.5784 69.211C96.252 70.2335 95.6784 71.1536 94.9114 71.8847L83.234 83.0142ZM79.4364 80.436C79.8144 80.3623 80.1646 80.1807 80.4472 79.912L92.1246 68.7824C92.3792 68.5386 92.5696 68.2322 92.6778 67.8919C92.786 67.5515 92.8084 67.1885 92.7431 66.8367L91.9516 62.5491C91.8749 62.1392 91.6821 61.7619 91.3976 61.4647C91.113 61.1676 90.7493 60.9638 90.3525 60.8792C89.9557 60.7946 89.5434 60.8329 89.1676 60.9893C88.7919 61.1456 88.4695 61.4131 88.2411 61.7579L85.9112 65.2827C85.111 66.495 83.9278 67.3843 82.5628 67.7994C81.1978 68.2145 79.7354 68.1297 78.4243 67.5594L75.8534 66.4404C75.4797 66.2773 75.0674 66.232 74.6687 66.3101L59.7602 69.2343C59.4953 69.2861 59.243 69.3912 59.0176 69.5436C58.7922 69.6959 58.5982 69.8925 58.4466 70.122C58.295 70.3516 58.1888 70.6097 58.134 70.8816C58.0793 71.1534 58.0771 71.4338 58.1276 71.7065L60.0468 82.0908C60.0974 82.3637 60.1998 82.6237 60.348 82.8558C60.4963 83.0879 60.6875 83.2876 60.9107 83.4436C61.1339 83.5995 61.3848 83.7086 61.649 83.7646C61.9132 83.8206 62.1856 83.8224 62.4505 83.7699L79.4364 80.436Z" fill="#DEDCFA"/>
<path d="M79.4364 80.436C79.8144 80.3623 80.1646 80.1807 80.4472 79.912L92.1246 68.7824C92.3792 68.5386 92.5696 68.2322 92.6778 67.8919C92.786 67.5515 92.8084 67.1885 92.7431 66.8367L91.9516 62.5491C91.8749 62.1392 91.6821 61.7619 91.3976 61.4647C91.113 61.1676 90.7493 60.9638 90.3525 60.8792C89.9557 60.7946 89.5434 60.8329 89.1676 60.9893C88.7919 61.1456 88.4695 61.4131 88.2411 61.7579L85.9112 65.2827C85.111 66.495 83.9278 67.3843 82.5628 67.7994C81.1978 68.2145 79.7354 68.1297 78.4243 67.5594L75.8534 66.4404C75.4797 66.2773 75.0674 66.232 74.6687 66.3101L59.7602 69.2343C59.4953 69.2861 59.243 69.3912 59.0176 69.5436C58.7922 69.6959 58.5982 69.8925 58.4466 70.122C58.295 70.3516 58.1888 70.6097 58.134 70.8816C58.0793 71.1534 58.0771 71.4338 58.1276 71.7065L60.0468 82.0908C60.0974 82.3637 60.1998 82.6237 60.348 82.8558C60.4963 83.0879 60.6875 83.2876 60.9107 83.4436C61.1339 83.5995 61.3848 83.7086 61.649 83.7646C61.9132 83.8206 62.1856 83.8224 62.4505 83.7699L79.4364 80.436Z" fill="#DEDCFA"/>
<path d="M49.9688 87.1852C50.1907 87.1417 50.4021 87.0537 50.5909 86.9261C50.7797 86.7985 50.9422 86.6338 51.0692 86.4415C51.1962 86.2491 51.2852 86.0329 51.3311 85.8052C51.3769 85.5774 51.3788 85.3426 51.3365 85.1141L48.8687 71.7699C48.7829 71.3093 48.5232 70.9027 48.1466 70.6392C47.77 70.3756 47.3073 70.2767 46.86 70.3641L43.4815 71.0265C43.2596 71.0699 43.0483 71.158 42.8595 71.2856C42.6707 71.4132 42.5081 71.5779 42.3811 71.7702C42.2541 71.9625 42.1651 72.1787 42.1193 72.4065C42.0734 72.6342 42.0716 72.869 42.1138 73.0975L44.5844 86.4397C44.6698 86.9 44.9289 87.3067 45.3049 87.5706C45.6809 87.8345 46.1432 87.9341 46.5904 87.8476L49.9688 87.1852Z" fill="#DEDCFA"/>
<path fill-rule="evenodd" clip-rule="evenodd" d="M54.715 84.4517C54.9706 85.8353 54.6822 87.2669 53.9134 88.4316C53.1445 89.5963 51.958 90.3988 50.6147 90.6628L47.2363 91.3252C45.8928 91.5893 44.5025 91.293 43.3711 90.5015C42.2397 89.7099 41.4599 88.4879 41.2032 87.1042L38.7382 73.7578C38.4826 72.3742 38.7709 70.9427 39.5398 69.778C40.3087 68.6133 41.4951 67.8107 42.8384 67.5468L46.2168 66.8844C47.5602 66.6211 48.9501 66.9181 50.0809 67.71C51.2117 68.5019 51.9909 69.724 52.2472 71.1075L54.715 84.4517ZM50.5909 86.9261C50.4021 87.0537 50.1907 87.1417 49.9688 87.1852L46.5904 87.8476C46.1432 87.9341 45.6809 87.8345 45.3049 87.5706C44.9289 87.3067 44.6698 86.9 44.5844 86.4397L42.1138 73.0975C42.0716 72.869 42.0734 72.6342 42.1193 72.4065C42.1651 72.1787 42.2541 71.9625 42.3811 71.7702C42.5081 71.5779 42.6707 71.4132 42.8595 71.2856C43.0483 71.158 43.2596 71.0699 43.4815 71.0265L46.86 70.3641C47.3073 70.2767 47.77 70.3756 48.1466 70.6392C48.5232 70.9027 48.7829 71.3093 48.8687 71.7699L51.3365 85.1141C51.3788 85.3426 51.3769 85.5774 51.3311 85.8052C51.2852 86.0329 51.1962 86.2491 51.0692 86.4415C50.9422 86.6338 50.7797 86.7985 50.5909 86.9261Z" fill="#DEDCFA"/>
<path fill-rule="evenodd" clip-rule="evenodd" d="M54.1036 27.3141L61.1386 65.1476L57.1105 65.9451L50.0731 28.1082C49.9207 27.2898 49.9264 26.4485 50.0899 25.6324C50.2533 24.8163 50.5714 24.0414 51.0258 23.3519C51.4802 22.6625 52.0621 22.0721 52.7382 21.6144C53.4143 21.1567 54.1714 20.8408 54.9661 20.6847L58.9933 19.8931C59.7877 19.7371 60.6042 19.7439 61.396 19.9131C62.1879 20.0822 62.9397 20.4104 63.6084 20.8788C64.2771 21.3473 64.8496 21.9469 65.2933 22.6433C65.737 23.3397 66.0431 24.1193 66.1942 24.9376L73.1078 62.3128L69.0749 63.1035L62.1613 25.7283C62.1109 25.4555 62.0089 25.1957 61.861 24.9635C61.7131 24.7314 61.5222 24.5315 61.2993 24.3754C61.0764 24.2192 60.8258 24.1098 60.5619 24.0535C60.2979 23.9971 60.0258 23.9948 59.761 24.0468L55.7338 24.8384C55.469 24.8903 55.2167 24.9954 54.9913 25.1477C54.7659 25.3 54.5718 25.4966 54.4202 25.7262C54.2686 25.9558 54.1624 26.2139 54.1077 26.4857C54.0529 26.7576 54.0532 27.0413 54.1036 27.3141Z" fill="#3930BF"/>
<path d="M16.8775 83.2289C17.2071 83.6973 17.7039 84.0117 18.2585 84.1029C18.8132 84.1941 19.3803 84.0546 19.8351 83.7151C29.2838 76.6621 31.2565 58.4504 31.527 47.1631C33.8768 46.3343 36.0052 44.9494 37.7411 43.1196C39.4771 41.2899 40.7722 39.0664 41.5224 36.6276C42.2727 34.1889 42.4572 31.6029 42.0612 29.0774C41.6651 26.5518 40.6995 24.1572 39.2419 22.0857C34.4447 15.2682 36.4815 9.08397 36.5815 8.79387C36.7368 8.35525 36.7514 7.87687 36.6231 7.42907C36.4948 6.98127 36.2303 6.58769 35.8687 6.30621C35.507 6.02472 35.0672 5.87018 34.6139 5.86531C34.1607 5.86044 33.7178 6.0055 33.3505 6.27915L17.0598 18.4395C15.0486 19.9407 13.4072 21.9069 12.2676 24.1799C11.128 26.453 10.5218 28.9697 10.4978 31.5279C10.4738 34.086 11.0326 36.6143 12.1293 38.9096C13.2261 41.205 14.8302 43.2034 16.8128 44.7445C13.6566 55.5593 10.0297 73.4971 16.8775 83.2289ZM19.5453 21.9719L31.8428 12.7924C31.8857 15.9897 32.7177 20.248 35.8122 24.6458C37.1642 26.5671 37.9326 28.8581 38.0203 31.2292C38.108 33.6002 37.5111 35.9448 36.3051 37.9665C35.099 39.9882 33.338 41.5961 31.2448 42.5869C29.1515 43.5778 26.8199 43.907 24.545 43.5331C22.27 43.1591 20.1538 42.0987 18.4639 40.486C16.7741 38.8733 15.5865 36.7807 15.0514 34.4728C14.5162 32.165 14.6575 29.7455 15.4574 27.5203C16.2574 25.2952 17.68 23.3643 19.5453 21.9719ZM27.2688 48.0114C27.224 49.54 27.153 51.0017 27.0556 52.3966C24.4765 52.4842 21.905 52.0615 19.4804 51.1514C19.8119 49.795 20.1861 48.3831 20.6031 46.9157C22.7243 47.7642 24.9966 48.1377 27.2688 48.0114ZM18.5323 55.4353C21.1508 56.3504 23.9008 56.8024 26.6657 56.7723C25.2178 69.4806 21.7063 75.6274 19.1253 78.5339C17.5364 74.9517 16.0677 67.9765 18.5323 55.4353Z" fill="#3930BF"/>
<path fill-rule="evenodd" clip-rule="evenodd" d="M16.8128 44.7445C18.153 45.7149 18.9488 46.2203 20.6031 46.9157C22.7243 47.7642 24.9966 48.1377 27.2688 48.0114C28.5205 47.9121 29.5767 47.7239 31.527 47.1631C33.8768 46.3343 36.0052 44.9494 37.7411 43.1196C39.4771 41.2899 40.7722 39.0664 41.5224 36.6276C42.2727 34.1889 42.4572 31.6029 42.0612 29.0774C41.6651 26.5518 40.6995 24.1572 39.2419 22.0857C34.4447 15.2682 36.4815 9.08398 36.5815 8.79388C36.7368 8.35525 36.7514 7.87687 36.6231 7.42907C36.4948 6.98128 36.2303 6.5877 35.8687 6.30621C35.507 6.02472 35.0672 5.87018 34.6139 5.86531C34.1607 5.86044 33.7178 6.0055 33.3506 6.27915L17.0598 18.4395C15.0486 19.9407 13.4072 21.9069 12.2676 24.1799C11.128 26.453 10.5218 28.9697 10.4978 31.5279C10.4738 34.086 11.0326 36.6143 12.1293 38.9096C13.2261 41.205 14.8302 43.2034 16.8128 44.7445ZM31.8428 12.7924L19.5453 21.9719C17.68 23.3643 16.2574 25.2952 15.4574 27.5203C14.6575 29.7455 14.5162 32.165 15.0514 34.4728C15.5865 36.7807 16.7741 38.8733 18.4639 40.486C20.1538 42.0987 22.27 43.1591 24.545 43.5331C26.8199 43.907 29.1515 43.5778 31.2448 42.5869C33.338 41.5961 35.099 39.9882 36.3051 37.9665C37.5111 35.9448 38.108 33.6002 38.0203 31.2292C37.9326 28.8581 37.1642 26.5671 35.8122 24.6458C32.7177 20.248 31.8857 15.9897 31.8428 12.7924Z" fill="#DEDCFA"/>
<path d="M19.5453 21.9719L31.8428 12.7924C31.8857 15.9897 32.7177 20.248 35.8122 24.6458C37.1642 26.5671 37.9326 28.8581 38.0203 31.2292C38.108 33.6002 37.5111 35.9448 36.3051 37.9665C35.099 39.9882 33.338 41.5961 31.2448 42.5869C29.1515 43.5778 26.8199 43.907 24.545 43.5331C22.27 43.1591 20.1538 42.0987 18.4639 40.486C16.7741 38.8733 15.5865 36.7807 15.0514 34.4728C14.5162 32.165 14.6575 29.7455 15.4574 27.5203C16.2574 25.2952 17.68 23.3643 19.5453 21.9719Z" fill="#DEDCFA"/>
</g>
<defs>
<clipPath id="clip0_688_55109">
<rect width="100" height="100" fill="white" transform="translate(0.800781)"/>
</clipPath>
</defs>
</svg>
