<svg width="101" height="100" viewBox="0 0 101 100" fill="none" xmlns="http://www.w3.org/2000/svg">
<g id="illustration/law">
<g id="Vector 17">
<path d="M67.2735 61.8943L81.5381 28.125L95.3915 62.3165C95.9103 63.5968 95.7654 65.1058 94.6682 65.9452C88.7979 70.4364 75.0108 69.7762 68.3782 65.9741C66.9658 65.1645 66.64 63.394 67.2735 61.8943Z" fill="#DEDCFA"/>
<path d="M32.9145 65.9963C25.8161 70.4414 12.4191 69.7587 6.72426 65.9484C5.51177 65.1372 5.33436 63.5426 5.91182 62.2029L20.6006 28.125L34.0064 61.9311C34.5947 63.4145 34.267 65.1494 32.9145 65.9963Z" fill="#DEDCFA"/>
<path d="M67.2735 61.8943L81.5381 28.125L95.3915 62.3165C95.9103 63.5968 95.7654 65.1058 94.6682 65.9452C88.7979 70.4364 75.0108 69.7762 68.3782 65.9741C66.9658 65.1645 66.64 63.394 67.2735 61.8943Z" stroke="#DEDCFA" stroke-width="4" stroke-linecap="round" stroke-linejoin="round"/>
<path d="M32.9145 65.9963C25.8161 70.4414 12.4191 69.7587 6.72426 65.9484C5.51177 65.1372 5.33436 63.5426 5.91182 62.2029L20.6006 28.125L34.0064 61.9311C34.5947 63.4145 34.267 65.1494 32.9145 65.9963Z" stroke="#DEDCFA" stroke-width="4" stroke-linecap="round" stroke-linejoin="round"/>
</g>
<path id="Vector 18" d="M9.35059 28.125H20.6006H26.5867C27.5738 28.125 28.5389 27.8328 29.3602 27.2853L36.216 22.7147C37.0373 22.1672 38.0023 21.875 38.9895 21.875H60.9617C61.9488 21.875 62.9139 22.1672 63.7352 22.7147L70.591 27.2853C71.4123 27.8328 72.3773 28.125 73.3645 28.125H81.5381H91.2256M50.6006 10.625V88.75H28.1006H71.8506" stroke="#3930BF" stroke-width="4" stroke-linecap="round" stroke-linejoin="round"/>
</g>
</svg>
