<svg width="167" height="72" viewBox="0 0 167 72" fill="none" xmlns="http://www.w3.org/2000/svg">
<g id="logo_mic 1" opacity="0.5" clip-path="url(#clip0_734_82834)">
<path id="Vector" fill-rule="evenodd" clip-rule="evenodd" d="M159.476 39.0285C160.918 39.0363 162.329 38.6167 163.532 37.8224C164.735 37.0282 165.675 35.8951 166.234 34.5665C166.793 33.2378 166.945 31.7733 166.671 30.3581C166.398 28.9429 165.711 27.6407 164.697 26.6159C163.684 25.5911 162.389 24.89 160.977 24.601C159.565 24.3121 158.099 24.4484 156.764 24.9927C155.429 25.537 154.286 26.4649 153.479 27.6589C152.672 28.853 152.236 30.2596 152.229 31.701C152.246 33.6252 153.013 35.4669 154.366 36.835C155.719 38.2031 157.552 38.9899 159.476 39.0285Z" fill="#0C084D" fill-opacity="0.5"/>
<path id="Vector_2" d="M40.9619 39.0272V17.2827L29.3352 34.7255H22.0861L10.6168 17.2827V39.0272H1.9375V0H11.7322L25.9101 24.4503L40.8045 0H49.4838L49.644 39.0272H40.9619Z" fill="#0C084D" fill-opacity="0.5"/>
<path id="Vector_3" d="M58.2441 0H66.9262V26.0434L88.6707 0H97.1927V39.0272H88.6707V12.981L66.9262 39.0272H58.2441V0Z" fill="#0C084D" fill-opacity="0.5"/>
<path id="Vector_4" d="M5.28158 62.7638C5.21452 64.3969 4.89201 66.0094 4.32581 67.5426H8.78599V58.0647H5.60017L5.28158 62.7638ZM12.3701 67.5426V71.8435C12.0691 71.9733 11.7411 72.028 11.4143 72.0028C11.0611 72.0487 10.702 71.9935 10.3789 71.8435V69.2948H2.7329V71.8435C2.43196 71.9733 2.10393 72.028 1.77715 72.0028C1.39807 72.0404 1.01551 71.9857 0.662109 71.8435V67.5426H1.61786C2.41433 66.9054 2.89221 65.6311 3.05149 62.6046L3.52936 56.3125H10.9364V67.5426H12.3701Z" fill="#0C084D" fill-opacity="0.5"/>
<path id="Vector_5" d="M23.6802 56.3125C23.887 56.5882 23.9988 56.9236 23.9988 57.2682C23.9988 57.6129 23.887 57.9482 23.6802 58.224H18.5829V61.8081H22.8838C22.9212 62.0764 22.9743 62.3424 23.043 62.6046C23.043 63.0824 22.8838 63.401 22.8838 63.7196H18.5829V67.5426H23.9988C24.0675 67.8047 24.1207 68.0706 24.1581 68.339C24.1581 68.6576 23.9988 68.9762 23.9988 69.2947H16.1934V56.3125H23.6802Z" fill="#0C084D" fill-opacity="0.5"/>
<path id="Vector_6" d="M32.6792 67.5381C32.9361 67.5617 33.1951 67.5285 33.4378 67.4408C33.6804 67.3531 33.9008 67.2131 34.0833 67.0306C34.2657 66.8482 34.4058 66.6278 34.4935 66.3851C34.5812 66.1424 34.6143 65.8835 34.5907 65.6265C34.5907 64.1929 33.9535 63.5557 32.6792 63.5557H30.2898V67.5381H32.6792ZM32.5198 61.8035C32.7656 61.81 33.0099 61.7638 33.2362 61.6678C33.4625 61.5718 33.6655 61.4283 33.8316 61.2471C33.9977 61.0659 34.123 60.8512 34.199 60.6174C34.275 60.3836 34.2999 60.1362 34.2721 59.892C34.2919 59.6532 34.2608 59.413 34.1809 59.1871C34.1009 58.9612 33.9739 58.7548 33.8083 58.5816C33.6427 58.4084 33.4422 58.2725 33.2201 58.1825C32.998 58.0926 32.7593 58.0509 32.5198 58.0601H30.2898V61.8034L32.5198 61.8035ZM32.9977 56.308C33.4703 56.2871 33.942 56.3662 34.382 56.54C34.822 56.7138 35.2203 56.9785 35.551 57.3168C35.8817 57.655 36.1374 58.0591 36.3013 58.5029C36.4652 58.9466 36.5336 59.42 36.5022 59.892C36.5277 60.4132 36.4249 60.9327 36.2027 61.4049C35.9805 61.8771 35.6457 62.2875 35.2278 62.6C35.772 62.8495 36.2293 63.2555 36.5415 63.7663C36.8536 64.277 37.0063 64.8692 36.98 65.4672C37.0136 65.9779 36.9378 66.49 36.7575 66.9691C36.5773 67.4481 36.2968 67.8831 35.9349 68.245C35.5729 68.607 35.1379 68.8874 34.6588 69.0677C34.1798 69.2479 33.6678 69.3239 33.157 69.2903H27.9004V56.308H32.9977Z" fill="#0C084D" fill-opacity="0.5"/>
<path id="Vector_7" d="M48.3698 56.3125C48.5822 56.932 48.5822 57.6045 48.3698 58.224H43.2725V61.8081H47.5734C47.6108 62.0764 47.664 62.3424 47.7326 62.6046C47.7326 63.0824 47.5734 63.401 47.5734 63.7196H43.2725V67.5426H48.5291C48.7285 67.7606 48.8417 68.0437 48.8477 68.339C48.8146 68.6775 48.7058 69.0041 48.5291 69.2947H40.9629V56.3125H48.3698Z" fill="#0C084D" fill-opacity="0.5"/>
<path id="Vector_8" d="M51.716 69.2948C51.6006 69.0457 51.546 68.7727 51.5568 68.4983C51.5316 68.1715 51.5862 67.8436 51.716 67.5426H52.5125C52.9904 67.3833 54.1054 66.5869 54.424 62.1267L54.9019 56.3125H61.9904V69.1355C61.6336 69.2648 61.254 69.319 60.8753 69.2948C60.5223 69.3298 60.1661 69.275 59.8399 69.1355V58.0647H56.8134L56.6541 62.1267C56.0169 68.6577 53.9462 69.4541 52.8311 69.4541C52.3533 69.4541 52.0346 69.2948 51.716 69.2948Z" fill="#0C084D" fill-opacity="0.5"/>
<path id="Vector_9" d="M71.3875 58.06C69.6353 58.06 68.5203 59.0157 68.5203 62.759C68.5203 66.5821 69.6353 67.5379 71.3875 67.5379C73.1397 67.5379 74.0955 66.5821 74.0955 62.759C74.0955 59.0157 73.1397 58.06 71.3875 58.06ZM71.3875 56.1484C74.5733 56.1484 76.5645 58.2192 76.5645 62.759C76.5645 67.5378 74.5733 69.4493 71.3875 69.4493C68.0424 69.4493 66.1309 67.5378 66.1309 62.759C66.1309 58.2192 68.2016 56.1484 71.3875 56.1484Z" fill="#0C084D" fill-opacity="0.5"/>
<path id="Vector_10" d="M89.7867 69.1355C89.0585 69.3479 88.2848 69.3479 87.5566 69.1355V58.3833H82.9371V69.1355C82.5751 69.2424 82.1995 69.296 81.8221 69.2947C81.4434 69.319 81.0638 69.2648 80.707 69.1355V56.3125H89.7867V69.1355Z" fill="#0C084D" fill-opacity="0.5"/>
<path id="Vector_11" d="M104.999 56.313C105.534 56.3069 106.068 56.3604 106.592 56.4723V69.136C106.23 69.2429 105.854 69.2965 105.477 69.2952C105.046 69.3046 104.617 69.251 104.202 69.136V65.1537C104.202 63.2422 104.202 60.6935 104.362 59.2599H104.202C103.643 60.7787 103.005 62.2674 102.291 63.7201L101.016 66.428C100.817 66.5233 100.6 66.5775 100.379 66.5873C100.155 66.6134 99.9281 66.5568 99.7421 66.428C99.2642 65.6315 98.9456 64.6759 98.4678 63.8794C97.6676 62.3912 96.9756 60.8474 96.397 59.2599H96.2377C96.5223 61.0503 96.629 62.8645 96.5563 64.6759V69.136C95.8281 69.3484 95.0544 69.3484 94.3262 69.136V56.4723C95.2701 56.2599 96.2495 56.2599 97.1934 56.4723L98.7863 59.7378C99.4235 61.0121 100.061 62.4458 100.379 63.2422H100.539C100.706 62.6426 100.919 62.0568 101.176 61.49C101.972 59.7378 102.769 58.2245 103.565 56.4723C104.043 56.4723 104.68 56.313 104.999 56.313Z" fill="#0C084D" fill-opacity="0.5"/>
<path id="Vector_12" d="M118.618 56.3125C118.83 56.932 118.83 57.6045 118.618 58.224H113.52V61.8081H117.662C117.777 62.0572 117.832 62.3302 117.821 62.6046C117.859 62.9836 117.804 63.3662 117.662 63.7196H113.52V67.5426H118.777C118.921 67.7813 118.978 68.0631 118.936 68.339C118.961 68.6658 118.907 68.9938 118.777 69.2947H111.131V56.3125H118.618Z" fill="#0C084D" fill-opacity="0.5"/>
<path id="Vector_13" d="M129.848 56.4729C130.21 56.366 130.586 56.3123 130.963 56.3136C131.394 56.3042 131.823 56.3579 132.238 56.4729V69.1366C131.823 69.2516 131.394 69.3052 130.963 69.2958C130.585 69.32 130.205 69.2658 129.848 69.1366V63.5613H125.149V69.1366C124.787 69.2435 124.412 69.2971 124.034 69.2958C123.603 69.3278 123.17 69.2737 122.76 69.1366V56.4729C123.174 56.3579 123.604 56.3042 124.034 56.3136C124.412 56.3123 124.787 56.366 125.149 56.4729V61.6498H129.848V56.4729Z" fill="#0C084D" fill-opacity="0.5"/>
<path id="Vector_14" d="M144.742 56.3125C144.84 56.6221 144.893 56.9438 144.901 57.2682C144.903 57.6457 144.849 58.0213 144.742 58.3833H141.477V69.1355C140.749 69.3479 139.975 69.3479 139.247 69.1355V58.3833H135.901C135.804 58.0737 135.75 57.752 135.742 57.4275C135.741 57.0501 135.795 56.6745 135.901 56.3125H144.742Z" fill="#0C084D" fill-opacity="0.5"/>
<path id="Vector_15" d="M140.518 39.0272H105.953V0H114.635V30.2665H131.918V0H140.518V39.0272Z" fill="#0C084D" fill-opacity="0.5"/>
<path id="Vector_16" d="M144.9 30.2656H136.219V43.2479H144.9V30.2656Z" fill="#0C084D" fill-opacity="0.5"/>
</g>
<defs>
<clipPath id="clip0_734_82834">
<rect width="166.142" height="72" fill="white" transform="translate(0.662109)"/>
</clipPath>
</defs>
</svg>
