<svg width="24" height="24" viewBox="0 0 24 24" fill="none" xmlns="http://www.w3.org/2000/svg">
<g id="ph:arrow-up-thin">
<path id="Vector" d="M2.80825 7.03733C2.74755 7.06249 2.69241 7.09937 2.64597 7.14586C2.59948 7.19229 2.5626 7.24744 2.53744 7.30814C2.51228 7.36884 2.49933 7.4339 2.49933 7.49961C2.49933 7.56532 2.51228 7.63038 2.53744 7.69108C2.5626 7.75178 2.59948 7.80692 2.64597 7.85336L11.646 16.8534C11.6924 16.8998 11.7476 16.9367 11.8083 16.9619C11.8689 16.987 11.934 17 11.9997 17C12.0654 17 12.1305 16.987 12.1912 16.9619C12.2519 16.9367 12.307 16.8998 12.3535 16.8534L21.3535 7.85336C21.3999 7.8069 21.4368 7.75175 21.4619 7.69106C21.4871 7.63036 21.5 7.56531 21.5 7.49961C21.5 7.43391 21.4871 7.36886 21.4619 7.30816C21.4368 7.24746 21.3999 7.19231 21.3535 7.14586C21.307 7.0994 21.2519 7.06255 21.1912 7.03741C21.1305 7.01227 21.0654 6.99933 20.9997 6.99933C20.934 6.99933 20.869 7.01227 20.8083 7.03741C20.7476 7.06255 20.6924 7.0994 20.646 7.14586L12.4997 15.2921C12.1051 15.6328 11.8944 15.5925 11.4997 15.2921L3.35347 7.14586C3.30704 7.09937 3.25189 7.06249 3.19119 7.03733C3.13049 7.01217 3.06543 6.99922 2.99972 6.99922C2.93401 6.99922 2.86895 7.01217 2.80825 7.03733Z" fill="#3A31BD" stroke="#3A31BD" stroke-width="1.5"/>
</g>
</svg>
