<svg width="120" height="120" viewBox="0 0 120 120" fill="none" xmlns="http://www.w3.org/2000/svg">
<g id="icon/arrow/long/down">
<path id="Vector" d="M20.6377 67.1566C20.8396 66.9545 21.0794 66.7942 21.3433 66.6848C21.6072 66.5754 21.8901 66.5191 22.1757 66.5191C22.4614 66.5191 22.7443 66.5754 23.0082 66.6848C23.2721 66.7942 23.5119 66.9545 23.7138 67.1566L59.1316 102.575V12.1739C59.1316 11.5973 59.3607 11.0444 59.7683 10.6367C60.176 10.229 60.729 10 61.3055 10C61.882 10 62.435 10.229 62.8427 10.6367C63.2503 11.0444 63.4794 11.5973 63.4794 12.1739V102.575L98.8972 67.1566C99.0992 66.9547 99.339 66.7944 99.6029 66.6851C99.8668 66.5758 100.15 66.5196 100.435 66.5196C100.721 66.5196 101.004 66.5758 101.268 66.6851C101.532 66.7944 101.771 66.9547 101.973 67.1566C102.175 67.3586 102.335 67.5984 102.445 67.8623C102.554 68.1262 102.61 68.409 102.61 68.6947C102.61 68.9803 102.554 69.2631 102.445 69.527C102.335 69.7909 102.175 70.0307 101.973 70.2327L62.8435 109.362C62.6416 109.565 62.4019 109.725 62.138 109.834C61.8741 109.944 61.5912 110 61.3055 110C61.0198 110 60.7369 109.944 60.473 109.834C60.2091 109.725 59.9694 109.565 59.7675 109.362L20.6377 70.2327C20.4356 70.0308 20.2753 69.791 20.1659 69.5271C20.0565 69.2632 20.0002 68.9803 20.0002 68.6947C20.0002 68.409 20.0565 68.1261 20.1659 67.8622C20.2753 67.5983 20.4356 67.3585 20.6377 67.1566Z" fill="white" stroke="white"/>
</g>
</svg>
