<svg width="60" height="60" viewBox="0 0 60 60" fill="none" xmlns="http://www.w3.org/2000/svg">
<g id="fluent-emoji:bookmark-tabs">
<g id="Group">
<g id="Group_2" filter="url(#filter0_ii_963_71637)">
<path id="Vector" d="M51.1042 5.22656H14.6354C13.0246 5.22656 11.7188 6.5324 11.7188 8.14323V56.037C11.7188 57.6478 13.0246 58.9536 14.6354 58.9536H51.1042C52.715 58.9536 54.0208 57.6478 54.0208 56.037V8.14323C54.0208 6.5324 52.715 5.22656 51.1042 5.22656Z" fill="url(#paint0_linear_963_71637)"/>
<path id="Vector_2" d="M51.1042 5.22656H14.6354C13.0246 5.22656 11.7188 6.5324 11.7188 8.14323V56.037C11.7188 57.6478 13.0246 58.9536 14.6354 58.9536H51.1042C52.715 58.9536 54.0208 57.6478 54.0208 56.037V8.14323C54.0208 6.5324 52.715 5.22656 51.1042 5.22656Z" fill="url(#paint1_linear_963_71637)"/>
</g>
<g id="Group_3" filter="url(#filter1_f_963_71637)">
<path id="Vector_3" d="M36.2358 5.22865H15.1879C13.7004 5.22865 12.4941 6.53281 12.4941 8.14531V56.037C12.4941 56.1432 12.5004 56.2474 12.5087 56.3495H43.4566C44.8316 56.3495 45.9483 55.1411 45.9483 53.6536V16.537C45.9516 16.0336 45.7657 15.5473 45.4275 15.1745L36.24 5.22656L36.2358 5.22865Z" fill="#89879F"/>
</g>
<g id="Group_4" filter="url(#filter2_iiii_963_71637)">
<path id="Vector_4" d="M33.885 1.64063C33.5233 1.27997 33.0333 1.07765 32.5225 1.07813H6.95378C5.46419 1.07813 4.25586 2.28646 4.25586 3.77396V52.1698C4.25586 53.6615 5.46419 54.8698 6.95378 54.8698H43.8017C45.2934 54.8698 46.4996 53.6615 46.4996 52.1698V15.0552C46.5001 14.5444 46.2978 14.0544 45.9371 13.6927L33.885 1.64063Z" fill="url(#paint2_linear_963_71637)"/>
</g>
<g id="Group_5" filter="url(#filter3_f_963_71637)">
<path id="Vector_5" d="M32.6059 1.8724C32.6059 1.4849 32.7184 1.23698 32.5059 1.19531C32.7079 1.20781 32.9996 1.28073 33.185 1.35365C33.4204 1.4474 33.1288 1.65365 33.3142 1.83281L33.3309 1.85156L45.3809 13.9016C45.7407 14.2638 45.9429 14.7535 45.9434 15.2641V15.3849C45.9434 14.937 45.6225 14.6703 45.3809 14.6703H34.9163C34.303 14.6703 33.7148 14.4267 33.2811 13.993C32.8474 13.5593 32.6038 12.9711 32.6038 12.3578L32.6059 1.8724Z" fill="#C7C5DF"/>
</g>
<g id="Group_6" filter="url(#filter4_ii_963_71637)">
<path id="Vector_6" d="M33.1612 1.66927C33.1612 1.27969 32.857 1.1276 32.6445 1.08594C33.1118 1.11528 33.5525 1.31375 33.8841 1.64427L45.9341 13.6964C46.1135 13.8749 46.2558 14.0873 46.3527 14.3211C46.4496 14.555 46.4992 14.8057 46.4987 15.0589V15.1797C46.4987 14.7318 46.1758 14.4651 45.9362 14.4651H35.4737C34.8604 14.4651 34.2722 14.2215 33.8385 13.7878C33.4048 13.3541 33.1612 12.7659 33.1612 12.1526V1.66719V1.66927Z" fill="url(#paint3_linear_963_71637)"/>
</g>
<path id="Vector_7" d="M33.1612 1.66927C33.1612 1.27969 32.857 1.1276 32.6445 1.08594C33.1118 1.11528 33.5525 1.31375 33.8841 1.64427L45.9341 13.6964C46.1135 13.8749 46.2558 14.0873 46.3527 14.3211C46.4496 14.555 46.4992 14.8057 46.4987 15.0589V15.1797C46.4987 14.7318 46.1758 14.4651 45.9362 14.4651H35.4737C34.8604 14.4651 34.2722 14.2215 33.8385 13.7878C33.4048 13.3541 33.1612 12.7659 33.1612 12.1526V1.66719V1.66927Z" fill="url(#paint4_linear_963_71637)"/>
<path id="Vector_8" d="M37.8211 20.2578H12.9211C12.393 20.2578 11.9648 20.6859 11.9648 21.2141C11.9648 21.7422 12.393 22.1703 12.9211 22.1703H37.8211C38.3492 22.1703 38.7773 21.7422 38.7773 21.2141C38.7773 20.6859 38.3492 20.2578 37.8211 20.2578Z" fill="url(#paint5_linear_963_71637)"/>
<path id="Vector_9" d="M37.8211 26.0391H12.9211C12.393 26.0391 11.9648 26.4672 11.9648 26.9953C11.9648 27.5234 12.393 27.9516 12.9211 27.9516H37.8211C38.3492 27.9516 38.7773 27.5234 38.7773 26.9953C38.7773 26.4672 38.3492 26.0391 37.8211 26.0391Z" fill="url(#paint6_linear_963_71637)"/>
<path id="Vector_10" d="M37.8211 31.8203H12.9211C12.393 31.8203 11.9648 32.2484 11.9648 32.7766C11.9648 33.3047 12.393 33.7328 12.9211 33.7328H37.8211C38.3492 33.7328 38.7773 33.3047 38.7773 32.7766C38.7773 32.2484 38.3492 31.8203 37.8211 31.8203Z" fill="url(#paint7_linear_963_71637)"/>
<path id="Vector_11" d="M28.3211 37.6016H12.9211C12.393 37.6016 11.9648 38.0297 11.9648 38.5578C11.9648 39.0859 12.393 39.5141 12.9211 39.5141H28.3211C28.8492 39.5141 29.2773 39.0859 29.2773 38.5578C29.2773 38.0297 28.8492 37.6016 28.3211 37.6016Z" fill="url(#paint8_linear_963_71637)"/>
<g id="Group_7" filter="url(#filter5_f_963_71637)">
<path id="Vector_12" d="M46.2402 24.7578H43.361C43.2201 24.7587 43.081 24.7901 42.9534 24.8498C42.8257 24.9095 42.7125 24.9961 42.6214 25.1036L40.7443 27.2911C40.6622 27.3885 40.6172 27.5117 40.6172 27.6391C40.6172 27.7664 40.6622 27.8896 40.7443 27.987L42.6193 30.1745C42.8089 30.3953 43.0777 30.5203 43.361 30.5203H46.2402V24.7578Z" fill="#AAA8C1"/>
</g>
<g id="Group_8" filter="url(#filter6_ii_963_71637)">
<path id="Vector_13" d="M43.8125 24.4161C43.9105 24.3071 44.0303 24.2199 44.1642 24.1603C44.2981 24.1007 44.4431 24.07 44.5896 24.0703H51.4646C51.6028 24.0703 51.7352 24.1252 51.8329 24.2229C51.9306 24.3205 51.9855 24.453 51.9855 24.5911V29.312C51.9855 29.4501 51.9306 29.5826 51.8329 29.6803C51.7352 29.7779 51.6028 29.8328 51.4646 29.8328H44.5896C44.4434 29.8328 44.2988 29.802 44.1653 29.7424C44.0318 29.6828 43.9123 29.5958 43.8146 29.487L41.85 27.2995C41.7643 27.2039 41.7168 27.08 41.7168 26.9516C41.7168 26.8231 41.7643 26.6992 41.85 26.6036L43.8146 24.4161H43.8125Z" fill="url(#paint9_linear_963_71637)"/>
<path id="Vector_14" d="M43.8125 24.4161C43.9105 24.3071 44.0303 24.2199 44.1642 24.1603C44.2981 24.1007 44.4431 24.07 44.5896 24.0703H51.4646C51.6028 24.0703 51.7352 24.1252 51.8329 24.2229C51.9306 24.3205 51.9855 24.453 51.9855 24.5911V29.312C51.9855 29.4501 51.9306 29.5826 51.8329 29.6803C51.7352 29.7779 51.6028 29.8328 51.4646 29.8328H44.5896C44.4434 29.8328 44.2988 29.802 44.1653 29.7424C44.0318 29.6828 43.9123 29.5958 43.8146 29.487L41.85 27.2995C41.7643 27.2039 41.7168 27.08 41.7168 26.9516C41.7168 26.8231 41.7643 26.6992 41.85 26.6036L43.8146 24.4161H43.8125Z" fill="url(#paint10_linear_963_71637)"/>
</g>
<g id="Group_9" filter="url(#filter7_f_963_71637)">
<path id="Vector_15" d="M53.8251 39.3516V45.1141H49.6459C49.5028 45.1137 49.3614 45.0827 49.2313 45.023C49.1012 44.9634 48.9854 44.8765 48.8918 44.7682L46.9813 42.5807C46.8976 42.4841 46.8516 42.3606 46.8516 42.2328C46.8516 42.105 46.8976 41.9815 46.9813 41.8849L48.8918 39.6974C48.9854 39.5891 49.1012 39.5022 49.2313 39.4426C49.3614 39.3829 49.5028 39.3519 49.6459 39.3516H53.8251Z" fill="#89879F"/>
</g>
<g id="Group_10" filter="url(#filter8_ii_963_71637)">
<path id="Vector_16" d="M50.0295 38.9083C50.1271 38.7995 50.2466 38.7125 50.3802 38.6529C50.5137 38.5933 50.6583 38.5625 50.8045 38.5625H57.6795C57.8176 38.5625 57.9501 38.6174 58.0478 38.715C58.1454 38.8127 58.2003 38.9452 58.2003 39.0833V43.8042C58.2003 43.9423 58.1454 44.0748 58.0478 44.1725C57.9501 44.2701 57.8176 44.325 57.6795 44.325H50.8045C50.6583 44.325 50.5137 44.2942 50.3802 44.2346C50.2466 44.175 50.1271 44.088 50.0295 43.9792L48.0649 41.7917C47.9791 41.6961 47.9316 41.5722 47.9316 41.4438C47.9316 41.3153 47.9791 41.1914 48.0649 41.0958L50.0295 38.9083Z" fill="url(#paint11_linear_963_71637)"/>
<path id="Vector_17" d="M50.0295 38.9083C50.1271 38.7995 50.2466 38.7125 50.3802 38.6529C50.5137 38.5933 50.6583 38.5625 50.8045 38.5625H57.6795C57.8176 38.5625 57.9501 38.6174 58.0478 38.715C58.1454 38.8127 58.2003 38.9452 58.2003 39.0833V43.8042C58.2003 43.9423 58.1454 44.0748 58.0478 44.1725C57.9501 44.2701 57.8176 44.325 57.6795 44.325H50.8045C50.6583 44.325 50.5137 44.2942 50.3802 44.2346C50.2466 44.175 50.1271 44.088 50.0295 43.9792L48.0649 41.7917C47.9791 41.6961 47.9316 41.5722 47.9316 41.4438C47.9316 41.3153 47.9791 41.1914 48.0649 41.0958L50.0295 38.9083Z" fill="url(#paint12_linear_963_71637)"/>
</g>
</g>
</g>
<defs>
<filter id="filter0_ii_963_71637" x="11.6437" y="5.15156" width="42.4527" height="53.8766" filterUnits="userSpaceOnUse" color-interpolation-filters="sRGB">
<feFlood flood-opacity="0" result="BackgroundImageFix"/>
<feBlend mode="normal" in="SourceGraphic" in2="BackgroundImageFix" result="shape"/>
<feColorMatrix in="SourceAlpha" type="matrix" values="0 0 0 0 0 0 0 0 0 0 0 0 0 0 0 0 0 0 127 0" result="hardAlpha"/>
<feOffset dx="0.075" dy="-0.075"/>
<feGaussianBlur stdDeviation="0.0375"/>
<feComposite in2="hardAlpha" operator="arithmetic" k2="-1" k3="1"/>
<feColorMatrix type="matrix" values="0 0 0 0 0.539085 0 0 0 0 0.529412 0 0 0 0 0.67451 0 0 0 1 0"/>
<feBlend mode="normal" in2="shape" result="effect1_innerShadow_963_71637"/>
<feColorMatrix in="SourceAlpha" type="matrix" values="0 0 0 0 0 0 0 0 0 0 0 0 0 0 0 0 0 0 127 0" result="hardAlpha"/>
<feOffset dx="-0.075" dy="0.075"/>
<feGaussianBlur stdDeviation="0.075"/>
<feComposite in2="hardAlpha" operator="arithmetic" k2="-1" k3="1"/>
<feColorMatrix type="matrix" values="0 0 0 0 0.80183 0 0 0 0 0.8 0 0 0 0 0.827451 0 0 0 1 0"/>
<feBlend mode="normal" in2="effect1_innerShadow_963_71637" result="effect2_innerShadow_963_71637"/>
</filter>
<filter id="filter1_f_963_71637" x="11.7441" y="4.47656" width="34.9551" height="52.625" filterUnits="userSpaceOnUse" color-interpolation-filters="sRGB">
<feFlood flood-opacity="0" result="BackgroundImageFix"/>
<feBlend mode="normal" in="SourceGraphic" in2="BackgroundImageFix" result="shape"/>
<feGaussianBlur stdDeviation="0.375" result="effect1_foregroundBlur_963_71637"/>
</filter>
<filter id="filter2_iiii_963_71637" x="4.18086" y="0.853125" width="42.5441" height="54.0891" filterUnits="userSpaceOnUse" color-interpolation-filters="sRGB">
<feFlood flood-opacity="0" result="BackgroundImageFix"/>
<feBlend mode="normal" in="SourceGraphic" in2="BackgroundImageFix" result="shape"/>
<feColorMatrix in="SourceAlpha" type="matrix" values="0 0 0 0 0 0 0 0 0 0 0 0 0 0 0 0 0 0 127 0" result="hardAlpha"/>
<feOffset dx="0.225" dy="-0.225"/>
<feGaussianBlur stdDeviation="0.225"/>
<feComposite in2="hardAlpha" operator="arithmetic" k2="-1" k3="1"/>
<feColorMatrix type="matrix" values="0 0 0 0 0.774117 0 0 0 0 0.768627 0 0 0 0 0.85098 0 0 0 1 0"/>
<feBlend mode="normal" in2="shape" result="effect1_innerShadow_963_71637"/>
<feColorMatrix in="SourceAlpha" type="matrix" values="0 0 0 0 0 0 0 0 0 0 0 0 0 0 0 0 0 0 127 0" result="hardAlpha"/>
<feOffset dx="0.075" dy="-0.075"/>
<feGaussianBlur stdDeviation="0.075"/>
<feComposite in2="hardAlpha" operator="arithmetic" k2="-1" k3="1"/>
<feColorMatrix type="matrix" values="0 0 0 0 0.693072 0 0 0 0 0.690196 0 0 0 0 0.733333 0 0 0 1 0"/>
<feBlend mode="normal" in2="effect1_innerShadow_963_71637" result="effect2_innerShadow_963_71637"/>
<feColorMatrix in="SourceAlpha" type="matrix" values="0 0 0 0 0 0 0 0 0 0 0 0 0 0 0 0 0 0 127 0" result="hardAlpha"/>
<feOffset dy="-0.075"/>
<feGaussianBlur stdDeviation="0.075"/>
<feComposite in2="hardAlpha" operator="arithmetic" k2="-1" k3="1"/>
<feColorMatrix type="matrix" values="0 0 0 0 0.660915 0 0 0 0 0.65098 0 0 0 0 0.8 0 0 0 1 0"/>
<feBlend mode="normal" in2="effect2_innerShadow_963_71637" result="effect3_innerShadow_963_71637"/>
<feColorMatrix in="SourceAlpha" type="matrix" values="0 0 0 0 0 0 0 0 0 0 0 0 0 0 0 0 0 0 127 0" result="hardAlpha"/>
<feOffset dx="-0.1125" dy="0.1125"/>
<feGaussianBlur stdDeviation="0.0375"/>
<feComposite in2="hardAlpha" operator="arithmetic" k2="-1" k3="1"/>
<feColorMatrix type="matrix" values="0 0 0 0 0.942745 0 0 0 0 0.941176 0 0 0 0 0.964706 0 0 0 1 0"/>
<feBlend mode="normal" in2="effect3_innerShadow_963_71637" result="effect4_innerShadow_963_71637"/>
</filter>
<filter id="filter3_f_963_71637" x="32.1309" y="0.820312" width="14.1875" height="14.9375" filterUnits="userSpaceOnUse" color-interpolation-filters="sRGB">
<feFlood flood-opacity="0" result="BackgroundImageFix"/>
<feBlend mode="normal" in="SourceGraphic" in2="BackgroundImageFix" result="shape"/>
<feGaussianBlur stdDeviation="0.1875" result="effect1_foregroundBlur_963_71637"/>
</filter>
<filter id="filter4_ii_963_71637" x="32.6445" y="1.01094" width="13.9285" height="14.1688" filterUnits="userSpaceOnUse" color-interpolation-filters="sRGB">
<feFlood flood-opacity="0" result="BackgroundImageFix"/>
<feBlend mode="normal" in="SourceGraphic" in2="BackgroundImageFix" result="shape"/>
<feColorMatrix in="SourceAlpha" type="matrix" values="0 0 0 0 0 0 0 0 0 0 0 0 0 0 0 0 0 0 127 0" result="hardAlpha"/>
<feOffset dx="0.075"/>
<feGaussianBlur stdDeviation="0.05625"/>
<feComposite in2="hardAlpha" operator="arithmetic" k2="-1" k3="1"/>
<feColorMatrix type="matrix" values="0 0 0 0 0.614641 0 0 0 0 0.611765 0 0 0 0 0.654902 0 0 0 1 0"/>
<feBlend mode="normal" in2="shape" result="effect1_innerShadow_963_71637"/>
<feColorMatrix in="SourceAlpha" type="matrix" values="0 0 0 0 0 0 0 0 0 0 0 0 0 0 0 0 0 0 127 0" result="hardAlpha"/>
<feOffset dy="-0.075"/>
<feGaussianBlur stdDeviation="0.05625"/>
<feComposite in2="hardAlpha" operator="arithmetic" k2="-1" k3="1"/>
<feColorMatrix type="matrix" values="0 0 0 0 0.685229 0 0 0 0 0.67451 0 0 0 0 0.835294 0 0 0 1 0"/>
<feBlend mode="normal" in2="effect1_innerShadow_963_71637" result="effect2_innerShadow_963_71637"/>
</filter>
<filter id="filter5_f_963_71637" x="40.1672" y="24.3078" width="6.52305" height="6.66563" filterUnits="userSpaceOnUse" color-interpolation-filters="sRGB">
<feFlood flood-opacity="0" result="BackgroundImageFix"/>
<feBlend mode="normal" in="SourceGraphic" in2="BackgroundImageFix" result="shape"/>
<feGaussianBlur stdDeviation="0.225" result="effect1_foregroundBlur_963_71637"/>
</filter>
<filter id="filter6_ii_963_71637" x="41.5668" y="23.9203" width="10.5695" height="6.06563" filterUnits="userSpaceOnUse" color-interpolation-filters="sRGB">
<feFlood flood-opacity="0" result="BackgroundImageFix"/>
<feBlend mode="normal" in="SourceGraphic" in2="BackgroundImageFix" result="shape"/>
<feColorMatrix in="SourceAlpha" type="matrix" values="0 0 0 0 0 0 0 0 0 0 0 0 0 0 0 0 0 0 127 0" result="hardAlpha"/>
<feOffset dx="-0.15" dy="0.15"/>
<feGaussianBlur stdDeviation="0.1125"/>
<feComposite in2="hardAlpha" operator="arithmetic" k2="-1" k3="1"/>
<feColorMatrix type="matrix" values="0 0 0 0 0.552196 0 0 0 0 0.524597 0 0 0 0 0.95392 0 0 0 1 0"/>
<feBlend mode="normal" in2="shape" result="effect1_innerShadow_963_71637"/>
<feColorMatrix in="SourceAlpha" type="matrix" values="0 0 0 0 0 0 0 0 0 0 0 0 0 0 0 0 0 0 127 0" result="hardAlpha"/>
<feOffset dx="0.15" dy="-0.15"/>
<feGaussianBlur stdDeviation="0.1125"/>
<feComposite in2="hardAlpha" operator="arithmetic" k2="-1" k3="1"/>
<feColorMatrix type="matrix" values="0 0 0 0 0.139923 0 0 0 0 0.106108 0 0 0 0 0.632125 0 0 0 1 0"/>
<feBlend mode="normal" in2="effect1_innerShadow_963_71637" result="effect2_innerShadow_963_71637"/>
</filter>
<filter id="filter7_f_963_71637" x="46.5516" y="39.0516" width="7.57266" height="6.36563" filterUnits="userSpaceOnUse" color-interpolation-filters="sRGB">
<feFlood flood-opacity="0" result="BackgroundImageFix"/>
<feBlend mode="normal" in="SourceGraphic" in2="BackgroundImageFix" result="shape"/>
<feGaussianBlur stdDeviation="0.15" result="effect1_foregroundBlur_963_71637"/>
</filter>
<filter id="filter8_ii_963_71637" x="47.7816" y="38.4125" width="10.5695" height="6.06563" filterUnits="userSpaceOnUse" color-interpolation-filters="sRGB">
<feFlood flood-opacity="0" result="BackgroundImageFix"/>
<feBlend mode="normal" in="SourceGraphic" in2="BackgroundImageFix" result="shape"/>
<feColorMatrix in="SourceAlpha" type="matrix" values="0 0 0 0 0 0 0 0 0 0 0 0 0 0 0 0 0 0 127 0" result="hardAlpha"/>
<feOffset dx="-0.15" dy="0.15"/>
<feGaussianBlur stdDeviation="0.1125"/>
<feComposite in2="hardAlpha" operator="arithmetic" k2="-1" k3="1"/>
<feColorMatrix type="matrix" values="0 0 0 0 0.956863 0 0 0 0 0.690196 0 0 0 0 0.34902 0 0 0 1 0"/>
<feBlend mode="normal" in2="shape" result="effect1_innerShadow_963_71637"/>
<feColorMatrix in="SourceAlpha" type="matrix" values="0 0 0 0 0 0 0 0 0 0 0 0 0 0 0 0 0 0 127 0" result="hardAlpha"/>
<feOffset dx="0.15" dy="-0.15"/>
<feGaussianBlur stdDeviation="0.1125"/>
<feComposite in2="hardAlpha" operator="arithmetic" k2="-1" k3="1"/>
<feColorMatrix type="matrix" values="0 0 0 0 0.744694 0 0 0 0 0.341028 0 0 0 0 0.139194 0 0 0 1 0"/>
<feBlend mode="normal" in2="effect1_innerShadow_963_71637" result="effect2_innerShadow_963_71637"/>
</filter>
<linearGradient id="paint0_linear_963_71637" x1="40.0563" y1="47.187" x2="55.6813" y2="54.6099" gradientUnits="userSpaceOnUse">
<stop stop-color="#ABAAB6"/>
<stop offset="1" stop-color="#B1B0C0"/>
</linearGradient>
<linearGradient id="paint1_linear_963_71637" x1="14.925" y1="59.8182" x2="40.9667" y2="43.2807" gradientUnits="userSpaceOnUse">
<stop stop-color="#A09FB2"/>
<stop offset="1" stop-color="#A09FB2" stop-opacity="0"/>
</linearGradient>
<linearGradient id="paint2_linear_963_71637" x1="25.3788" y1="1.07604" x2="25.3788" y2="54.8698" gradientUnits="userSpaceOnUse">
<stop stop-color="#E5E4F3"/>
<stop offset="1" stop-color="#DBDAF0"/>
</linearGradient>
<linearGradient id="paint3_linear_963_71637" x1="34.1237" y1="13.9234" x2="39.2133" y2="8.83386" gradientUnits="userSpaceOnUse">
<stop stop-color="#D4D3E1"/>
<stop offset="1" stop-color="#C8C7D1"/>
</linearGradient>
<linearGradient id="paint4_linear_963_71637" x1="40.357" y1="7.8401" x2="39.1216" y2="9.04427" gradientUnits="userSpaceOnUse">
<stop offset="0.119" stop-color="#DADADC"/>
<stop offset="0.577" stop-color="#C8C7D0" stop-opacity="0"/>
</linearGradient>
<linearGradient id="paint5_linear_963_71637" x1="11.9648" y1="21.2141" x2="38.7773" y2="21.2141" gradientUnits="userSpaceOnUse">
<stop stop-color="#9796A2"/>
<stop offset="1" stop-color="#9695A1"/>
</linearGradient>
<linearGradient id="paint6_linear_963_71637" x1="11.9648" y1="26.9953" x2="38.7773" y2="26.9953" gradientUnits="userSpaceOnUse">
<stop stop-color="#9796A2"/>
<stop offset="1" stop-color="#9695A1"/>
</linearGradient>
<linearGradient id="paint7_linear_963_71637" x1="11.9648" y1="32.7766" x2="38.7773" y2="32.7766" gradientUnits="userSpaceOnUse">
<stop stop-color="#9796A2"/>
<stop offset="1" stop-color="#9695A1"/>
</linearGradient>
<linearGradient id="paint8_linear_963_71637" x1="11.9648" y1="38.5578" x2="29.2773" y2="38.5578" gradientUnits="userSpaceOnUse">
<stop stop-color="#9796A2"/>
<stop offset="1" stop-color="#9695A1"/>
</linearGradient>
<linearGradient id="paint9_linear_963_71637" x1="46.85" y1="24.0703" x2="46.85" y2="29.8328" gradientUnits="userSpaceOnUse">
<stop stop-color="#645BDF"/>
<stop offset="1" stop-color="#3A31BD"/>
</linearGradient>
<linearGradient id="paint10_linear_963_71637" x1="42.5625" y1="25.6328" x2="43.375" y2="26.2849" gradientUnits="userSpaceOnUse">
<stop offset="0.263" stop-color="#3A31BD"/>
<stop offset="1" stop-color="#3A31BD" stop-opacity="0"/>
</linearGradient>
<linearGradient id="paint11_linear_963_71637" x1="53.067" y1="38.5625" x2="53.067" y2="44.325" gradientUnits="userSpaceOnUse">
<stop stop-color="#F5996B"/>
<stop offset="1" stop-color="#F15F16"/>
</linearGradient>
<linearGradient id="paint12_linear_963_71637" x1="48.7774" y1="40.125" x2="49.7857" y2="40.875" gradientUnits="userSpaceOnUse">
<stop offset="0.263" stop-color="#885236"/>
<stop offset="1" stop-color="#F15F16" stop-opacity="0"/>
</linearGradient>
</defs>
</svg>
