<svg width="100" height="102" viewBox="0 0 100 102" fill="none" xmlns="http://www.w3.org/2000/svg">
<g id="fluent-emoji:old-key" filter="url(#filter0_d_963_71773)">
<g id="Group">
<g id="Group_2" filter="url(#filter1_i_963_71773)">
<path id="Vector" d="M27.8029 63.5419L33.6439 51.501L41.3028 55.2177C41.7514 55.4345 42.1218 55.7848 42.3631 56.2207C42.6044 56.6565 42.7048 57.1564 42.6505 57.6516C42.5962 58.1468 42.3899 58.6131 42.0598 58.9862C41.7298 59.3594 41.2922 59.6212 40.8073 59.7356L38.8265 60.204C38.5946 60.259 38.3776 60.3642 38.1908 60.5122C38.004 60.6602 37.8519 60.8473 37.7453 61.0605C37.6386 61.2736 37.5801 61.5076 37.5737 61.7458C37.5673 61.984 37.6133 62.2208 37.7083 62.4393L38.5156 64.2868C38.7015 64.7133 38.7522 65.1865 38.661 65.6427C38.5698 66.0989 38.3409 66.5162 38.0053 66.8384C37.6697 67.1606 37.2434 67.3723 36.7838 67.4448C36.3243 67.5173 35.8535 67.4473 35.435 67.2442L27.8029 63.5419Z" fill="url(#paint0_linear_963_71773)"/>
</g>
<g id="Group_3" filter="url(#filter2_i_963_71773)">
<path id="Vector_2" d="M37.2395 31.9234L45.3672 35.8646L30.3921 66.7322C29.8589 67.7926 28.9297 68.6005 27.8056 68.9812C26.6814 69.3619 25.4525 69.2848 24.3847 68.7666C23.3169 68.2485 22.496 67.3308 22.0994 66.2121C21.7029 65.0935 21.7626 63.8636 22.2656 62.7886L37.2395 31.9234Z" fill="url(#paint1_linear_963_71773)"/>
</g>
<g id="Group_4" filter="url(#filter3_i_963_71773)">
<path id="Vector_3" fill-rule="evenodd" clip-rule="evenodd" d="M50.5356 38.8784C52.4099 38.2519 54.1414 37.2599 55.6297 35.9596C57.1181 34.6594 58.3337 33.0769 59.2062 31.3036C60.0787 29.5304 60.5907 27.6016 60.7127 25.6291C60.8346 23.6566 60.5641 21.6795 59.9167 19.8123C59.2693 17.945 58.2579 16.2248 56.9411 14.7511C55.6243 13.2774 54.0282 12.0797 52.2453 11.2271C50.4623 10.3745 48.528 9.88408 46.5543 9.78423C44.5805 9.68437 42.6065 9.97705 40.7467 10.6453C37.0446 11.9756 34.0164 14.7121 32.3193 18.261C30.6223 21.81 30.3932 25.885 31.6819 29.6018C32.9705 33.3185 35.673 36.3772 39.2027 38.1139C42.7324 39.8506 46.8046 40.1253 50.5356 38.8784ZM48.0787 31.7922C49.0164 31.4836 49.8834 30.9916 50.6292 30.3447C51.3749 29.6978 51.9845 28.909 52.4224 28.0242C52.8603 27.1394 53.1178 26.1763 53.1799 25.1911C53.242 24.2058 53.1074 23.218 52.784 22.2853C52.4606 21.3525 51.9548 20.4935 51.2962 19.7581C50.6375 19.0227 49.8391 18.4257 48.9475 18.0019C48.0559 17.5781 47.0888 17.3359 46.1027 17.2895C45.1166 17.2431 44.1311 17.3933 43.2036 17.7315C41.3685 18.4006 39.87 19.7643 39.0315 21.5284C38.193 23.2925 38.0816 25.3155 38.7215 27.161C39.3613 29.0065 40.7011 30.5264 42.4517 31.3928C44.2023 32.2592 46.2233 32.4027 48.0787 31.7922Z" fill="url(#paint2_linear_963_71773)"/>
</g>
<path id="Vector_4" d="M42.0997 41.9277L34.2771 38.133C33.5653 37.7877 32.7084 38.0849 32.3631 38.7967C32.0178 39.5085 32.3149 40.3655 33.0267 40.7108L40.8493 44.5054C41.5611 44.8507 42.4181 44.5536 42.7634 43.8418C43.1087 43.13 42.8115 42.273 42.0997 41.9277Z" fill="url(#paint3_linear_963_71773)"/>
<path id="Vector_5" d="M42.0997 41.9277L34.2771 38.133C33.5653 37.7877 32.7084 38.0849 32.3631 38.7967C32.0178 39.5085 32.3149 40.3655 33.0267 40.7108L40.8493 44.5054C41.5611 44.8507 42.4181 44.5536 42.7634 43.8418C43.1087 43.13 42.8115 42.273 42.0997 41.9277Z" fill="url(#paint4_radial_963_71773)"/>
<path id="Vector_6" d="M42.0997 41.9277L34.2771 38.133C33.5653 37.7877 32.7084 38.0849 32.3631 38.7967C32.0178 39.5085 32.3149 40.3655 33.0267 40.7108L40.8493 44.5054C41.5611 44.8507 42.4181 44.5536 42.7634 43.8418C43.1087 43.13 42.8115 42.273 42.0997 41.9277Z" fill="url(#paint5_linear_963_71773)"/>
<path id="Vector_7" d="M43.3517 39.3496L35.5291 35.5549C34.8173 35.2096 33.9603 35.5067 33.615 36.2185C33.2697 36.9304 33.5668 37.7873 34.2787 38.1326L42.1012 41.9273C42.8131 42.2726 43.67 41.9755 44.0153 41.2636C44.3606 40.5518 44.0635 39.6949 43.3517 39.3496Z" fill="url(#paint6_linear_963_71773)"/>
<path id="Vector_8" d="M43.3517 39.3496L35.5291 35.5549C34.8173 35.2096 33.9603 35.5067 33.615 36.2185C33.2697 36.9304 33.5668 37.7873 34.2787 38.1326L42.1012 41.9273C42.8131 42.2726 43.67 41.9755 44.0153 41.2636C44.3606 40.5518 44.0635 39.6949 43.3517 39.3496Z" fill="url(#paint7_radial_963_71773)"/>
<path id="Vector_9" d="M43.3517 39.3496L35.5291 35.5549C34.8173 35.2096 33.9603 35.5067 33.615 36.2185C33.2697 36.9304 33.5668 37.7873 34.2787 38.1326L42.1012 41.9273C42.8131 42.2726 43.67 41.9755 44.0153 41.2636C44.3606 40.5518 44.0635 39.6949 43.3517 39.3496Z" fill="url(#paint8_linear_963_71773)"/>
<g id="Group_5" filter="url(#filter4_f_963_71773)">
<path id="Vector_10" d="M50.0109 34.9235C56.1836 32.7833 59.4526 26.0444 57.3124 19.8717C55.1722 13.699 48.4333 10.43 42.2606 12.5702C36.0879 14.7104 32.8189 21.4493 34.9591 27.622C37.0993 33.7946 43.8382 37.0636 50.0109 34.9235Z" stroke="url(#paint9_linear_963_71773)" stroke-width="0.803571"/>
<path id="Vector_11" d="M50.0109 34.9235C56.1836 32.7833 59.4526 26.0444 57.3124 19.8717C55.1722 13.699 48.4333 10.43 42.2606 12.5702C36.0879 14.7104 32.8189 21.4493 34.9591 27.622C37.0993 33.7946 43.8382 37.0636 50.0109 34.9235Z" stroke="url(#paint10_linear_963_71773)" stroke-width="0.803571"/>
</g>
</g>
</g>
<defs>
<filter id="filter0_d_963_71773" x="0.714844" y="0.78125" width="114.915" height="149.201" filterUnits="userSpaceOnUse" color-interpolation-filters="sRGB">
<feFlood flood-opacity="0" result="BackgroundImageFix"/>
<feColorMatrix in="SourceAlpha" type="matrix" values="0 0 0 0 0 0 0 0 0 0 0 0 0 0 0 0 0 0 127 0" result="hardAlpha"/>
<feOffset dx="25.7143" dy="60"/>
<feGaussianBlur stdDeviation="6.42857"/>
<feComposite in2="hardAlpha" operator="out"/>
<feColorMatrix type="matrix" values="0 0 0 0 0.0473571 0 0 0 0 0.03 0 0 0 0 0.3 0 0 0 0.05 0"/>
<feBlend mode="normal" in2="BackgroundImageFix" result="effect1_dropShadow_963_71773"/>
<feBlend mode="normal" in="SourceGraphic" in2="effect1_dropShadow_963_71773" result="shape"/>
</filter>
<filter id="filter1_i_963_71773" x="27.8027" y="51.4036" width="14.8613" height="16.0652" filterUnits="userSpaceOnUse" color-interpolation-filters="sRGB">
<feFlood flood-opacity="0" result="BackgroundImageFix"/>
<feBlend mode="normal" in="SourceGraphic" in2="BackgroundImageFix" result="shape"/>
<feColorMatrix in="SourceAlpha" type="matrix" values="0 0 0 0 0 0 0 0 0 0 0 0 0 0 0 0 0 0 127 0" result="hardAlpha"/>
<feOffset dy="-0.0964286"/>
<feGaussianBlur stdDeviation="0.160714"/>
<feComposite in2="hardAlpha" operator="arithmetic" k2="-1" k3="1"/>
<feColorMatrix type="matrix" values="0 0 0 0 0.839216 0 0 0 0 0.592157 0 0 0 0 0.34902 0 0 0 1 0"/>
<feBlend mode="normal" in2="shape" result="effect1_innerShadow_963_71773"/>
</filter>
<filter id="filter2_i_963_71773" x="21.8398" y="31.6004" width="23.5273" height="37.6183" filterUnits="userSpaceOnUse" color-interpolation-filters="sRGB">
<feFlood flood-opacity="0" result="BackgroundImageFix"/>
<feBlend mode="normal" in="SourceGraphic" in2="BackgroundImageFix" result="shape"/>
<feColorMatrix in="SourceAlpha" type="matrix" values="0 0 0 0 0 0 0 0 0 0 0 0 0 0 0 0 0 0 127 0" result="hardAlpha"/>
<feOffset dy="-0.321429"/>
<feGaussianBlur stdDeviation="0.482143"/>
<feComposite in2="hardAlpha" operator="arithmetic" k2="-1" k3="1"/>
<feColorMatrix type="matrix" values="0 0 0 0 0.85098 0 0 0 0 0.541176 0 0 0 0 0.34902 0 0 0 1 0"/>
<feBlend mode="normal" in2="shape" result="effect1_innerShadow_963_71773"/>
</filter>
<filter id="filter3_i_963_71773" x="30.8574" y="9.50848" width="29.8828" height="30.14" filterUnits="userSpaceOnUse" color-interpolation-filters="sRGB">
<feFlood flood-opacity="0" result="BackgroundImageFix"/>
<feBlend mode="normal" in="SourceGraphic" in2="BackgroundImageFix" result="shape"/>
<feColorMatrix in="SourceAlpha" type="matrix" values="0 0 0 0 0 0 0 0 0 0 0 0 0 0 0 0 0 0 127 0" result="hardAlpha"/>
<feOffset dy="-0.257143"/>
<feGaussianBlur stdDeviation="0.321429"/>
<feComposite in2="hardAlpha" operator="arithmetic" k2="-1" k3="1"/>
<feColorMatrix type="matrix" values="0 0 0 0 0.815686 0 0 0 0 0.505882 0 0 0 0 0.337255 0 0 0 1 0"/>
<feBlend mode="normal" in2="shape" result="effect1_innerShadow_963_71773"/>
</filter>
<filter id="filter4_f_963_71773" x="33.0968" y="10.7121" width="26.0778" height="26.0759" filterUnits="userSpaceOnUse" color-interpolation-filters="sRGB">
<feFlood flood-opacity="0" result="BackgroundImageFix"/>
<feBlend mode="normal" in="SourceGraphic" in2="BackgroundImageFix" result="shape"/>
<feGaussianBlur stdDeviation="0.401786" result="effect1_foregroundBlur_963_71773"/>
</filter>
<linearGradient id="paint0_linear_963_71773" x1="38.4434" y1="62.6707" x2="33.5699" y2="60.062" gradientUnits="userSpaceOnUse">
<stop stop-color="#746BF4"/>
<stop offset="0.908" stop-color="#948EEC"/>
</linearGradient>
<linearGradient id="paint1_linear_963_71773" x1="27.8727" y1="52.7517" x2="35.5533" y2="56.3538" gradientUnits="userSpaceOnUse">
<stop stop-color="#7168F7"/>
<stop offset="1" stop-color="#B3AEF8"/>
</linearGradient>
<linearGradient id="paint2_linear_963_71773" x1="41.2073" y1="11.974" x2="50.5356" y2="38.8784" gradientUnits="userSpaceOnUse">
<stop stop-color="#6F66F8"/>
<stop offset="1" stop-color="#A7A1FF"/>
</linearGradient>
<linearGradient id="paint3_linear_963_71773" x1="33.6418" y1="39.6275" x2="40.7612" y2="43.1748" gradientUnits="userSpaceOnUse">
<stop stop-color="#7167F6"/>
<stop offset="1" stop-color="#938CEA"/>
<stop offset="1" stop-color="#BEBBEA"/>
</linearGradient>
<radialGradient id="paint4_radial_963_71773" cx="0" cy="0" r="1" gradientUnits="userSpaceOnUse" gradientTransform="translate(38.5161 40.9895) rotate(118.634) scale(0.613404 3.55317)">
<stop stop-color="#7066FC"/>
<stop offset="1" stop-color="#FCBC66" stop-opacity="0"/>
</radialGradient>
<linearGradient id="paint5_linear_963_71773" x1="37.3068" y1="43.2246" x2="37.8369" y2="42.1105" gradientUnits="userSpaceOnUse">
<stop offset="0.186" stop-color="#483DE2"/>
<stop offset="1" stop-color="#594FEC" stop-opacity="0"/>
</linearGradient>
<linearGradient id="paint6_linear_963_71773" x1="34.8921" y1="37.0485" x2="42.014" y2="40.595" gradientUnits="userSpaceOnUse">
<stop stop-color="#594EF6"/>
<stop offset="1" stop-color="#BEBBEA"/>
</linearGradient>
<radialGradient id="paint7_radial_963_71773" cx="0" cy="0" r="1" gradientUnits="userSpaceOnUse" gradientTransform="translate(39.7672 38.4089) rotate(118.634) scale(0.613403 3.55317)">
<stop stop-color="#6F65FB"/>
<stop offset="1" stop-color="#FBB865" stop-opacity="0"/>
</radialGradient>
<linearGradient id="paint8_linear_963_71773" x1="38.5588" y1="40.6465" x2="39.0896" y2="39.5307" gradientUnits="userSpaceOnUse">
<stop offset="0.186" stop-color="#392DE2"/>
<stop offset="1" stop-color="#3326E2" stop-opacity="0"/>
</linearGradient>
<linearGradient id="paint9_linear_963_71773" x1="51.7539" y1="11.2691" x2="44.434" y2="23.6522" gradientUnits="userSpaceOnUse">
<stop stop-color="#291AFF"/>
<stop offset="1" stop-color="#FFDD67" stop-opacity="0"/>
</linearGradient>
<linearGradient id="paint10_linear_963_71773" x1="40.5504" y1="34.4072" x2="41.643" y2="29.6883" gradientUnits="userSpaceOnUse">
<stop stop-color="#6F65FE"/>
<stop offset="1" stop-color="#FEB765" stop-opacity="0"/>
</linearGradient>
</defs>
</svg>
