<svg width="52" height="68" viewBox="0 0 52 68" fill="none" xmlns="http://www.w3.org/2000/svg">
<g id="Group">
<g id="Group_2" filter="url(#filter0_i_963_71812)">
<path id="Vector" d="M16.1405 10.1226C16.0808 9.1843 16.2085 8.24348 16.5163 7.35507C16.8241 6.46665 17.3057 5.64842 17.9331 4.94814C18.5604 4.24785 19.321 3.67953 20.1704 3.27633C21.0197 2.87314 21.9409 2.64315 22.8801 2.59978C23.8193 2.55641 24.7578 2.70054 25.6407 3.02375C26.5236 3.34695 27.3333 3.84277 28.0225 4.48226C28.7118 5.12175 29.2668 5.89212 29.6551 6.74839C30.0434 7.60467 30.2573 8.52971 30.2843 9.46954L30.66 17.607C30.6921 18.3016 30.6768 18.9963 30.6012 19.6937C30.5741 19.9471 30.545 20.2027 30.5329 20.4554C30.4923 21.2547 30.6349 22.2911 31.2091 22.965L29.9721 24.2721C33.345 25.8071 36.228 28.2446 38.3025 31.3153C40.377 34.386 41.5624 37.9704 41.7277 41.6725C41.8255 43.7907 41.5929 45.8488 41.0771 47.7928L39.5813 61.8849L22.1581 62.6894L22.1578 62.683C11.3882 62.9475 2.43221 56.3312 1.8404 43.5142C1.49256 35.9811 4.81892 29.7501 10.119 26.0788L10.1034 26.0688C10.4635 25.7935 10.8901 25.5109 11.3481 25.2075L11.3501 25.2052C12.8557 24.2069 14.6957 22.984 15.6058 21.0843C16.3981 19.4357 16.4454 16.8194 16.3896 15.6109L16.3939 15.6107L16.1405 10.1226Z" fill="url(#paint0_linear_963_71812)"/>
</g>
<path id="Vector_2" d="M16.1405 10.1226C16.0808 9.1843 16.2085 8.24348 16.5163 7.35507C16.8241 6.46665 17.3057 5.64842 17.9331 4.94814C18.5604 4.24785 19.321 3.67953 20.1704 3.27633C21.0197 2.87314 21.9409 2.64315 22.8801 2.59978C23.8193 2.55641 24.7578 2.70054 25.6407 3.02375C26.5236 3.34695 27.3333 3.84277 28.0225 4.48226C28.7118 5.12175 29.2668 5.89212 29.6551 6.74839C30.0434 7.60467 30.2573 8.52971 30.2843 9.46954L30.66 17.607C30.6921 18.3016 30.6768 18.9963 30.6012 19.6937C30.5741 19.9471 30.545 20.2027 30.5329 20.4554C30.4923 21.2547 30.6349 22.2911 31.2091 22.965L29.9721 24.2721C33.345 25.8071 36.228 28.2446 38.3025 31.3153C40.377 34.386 41.5624 37.9704 41.7277 41.6725C41.8255 43.7907 41.5929 45.8488 41.0771 47.7928L39.5813 61.8849L22.1581 62.6894L22.1578 62.683C11.3882 62.9475 2.43221 56.3312 1.8404 43.5142C1.49256 35.9811 4.81892 29.7501 10.119 26.0788L10.1034 26.0688C10.4635 25.7935 10.8901 25.5109 11.3481 25.2075L11.3501 25.2052C12.8557 24.2069 14.6957 22.984 15.6058 21.0843C16.3981 19.4357 16.4454 16.8194 16.3896 15.6109L16.3939 15.6107L16.1405 10.1226Z" fill="url(#paint1_radial_963_71812)"/>
<path id="Vector_3" d="M16.1405 10.1226C16.0808 9.1843 16.2085 8.24348 16.5163 7.35507C16.8241 6.46665 17.3057 5.64842 17.9331 4.94814C18.5604 4.24785 19.321 3.67953 20.1704 3.27633C21.0197 2.87314 21.9409 2.64315 22.8801 2.59978C23.8193 2.55641 24.7578 2.70054 25.6407 3.02375C26.5236 3.34695 27.3333 3.84277 28.0225 4.48226C28.7118 5.12175 29.2668 5.89212 29.6551 6.74839C30.0434 7.60467 30.2573 8.52971 30.2843 9.46954L30.66 17.607C30.6921 18.3016 30.6768 18.9963 30.6012 19.6937C30.5741 19.9471 30.545 20.2027 30.5329 20.4554C30.4923 21.2547 30.6349 22.2911 31.2091 22.965L29.9721 24.2721C33.345 25.8071 36.228 28.2446 38.3025 31.3153C40.377 34.386 41.5624 37.9704 41.7277 41.6725C41.8255 43.7907 41.5929 45.8488 41.0771 47.7928L39.5813 61.8849L22.1581 62.6894L22.1578 62.683C11.3882 62.9475 2.43221 56.3312 1.8404 43.5142C1.49256 35.9811 4.81892 29.7501 10.119 26.0788L10.1034 26.0688C10.4635 25.7935 10.8901 25.5109 11.3481 25.2075L11.3501 25.2052C12.8557 24.2069 14.6957 22.984 15.6058 21.0843C16.3981 19.4357 16.4454 16.8194 16.3896 15.6109L16.3939 15.6107L16.1405 10.1226Z" fill="url(#paint2_radial_963_71812)"/>
<path id="Vector_4" d="M16.1405 10.1226C16.0808 9.1843 16.2085 8.24348 16.5163 7.35507C16.8241 6.46665 17.3057 5.64842 17.9331 4.94814C18.5604 4.24785 19.321 3.67953 20.1704 3.27633C21.0197 2.87314 21.9409 2.64315 22.8801 2.59978C23.8193 2.55641 24.7578 2.70054 25.6407 3.02375C26.5236 3.34695 27.3333 3.84277 28.0225 4.48226C28.7118 5.12175 29.2668 5.89212 29.6551 6.74839C30.0434 7.60467 30.2573 8.52971 30.2843 9.46954L30.66 17.607C30.6921 18.3016 30.6768 18.9963 30.6012 19.6937C30.5741 19.9471 30.545 20.2027 30.5329 20.4554C30.4923 21.2547 30.6349 22.2911 31.2091 22.965L29.9721 24.2721C33.345 25.8071 36.228 28.2446 38.3025 31.3153C40.377 34.386 41.5624 37.9704 41.7277 41.6725C41.8255 43.7907 41.5929 45.8488 41.0771 47.7928L39.5813 61.8849L22.1581 62.6894L22.1578 62.683C11.3882 62.9475 2.43221 56.3312 1.8404 43.5142C1.49256 35.9811 4.81892 29.7501 10.119 26.0788L10.1034 26.0688C10.4635 25.7935 10.8901 25.5109 11.3481 25.2075L11.3501 25.2052C12.8557 24.2069 14.6957 22.984 15.6058 21.0843C16.3981 19.4357 16.4454 16.8194 16.3896 15.6109L16.3939 15.6107L16.1405 10.1226Z" fill="url(#paint3_radial_963_71812)"/>
<path id="Vector_5" d="M16.1405 10.1226C16.0808 9.1843 16.2085 8.24348 16.5163 7.35507C16.8241 6.46665 17.3057 5.64842 17.9331 4.94814C18.5604 4.24785 19.321 3.67953 20.1704 3.27633C21.0197 2.87314 21.9409 2.64315 22.8801 2.59978C23.8193 2.55641 24.7578 2.70054 25.6407 3.02375C26.5236 3.34695 27.3333 3.84277 28.0225 4.48226C28.7118 5.12175 29.2668 5.89212 29.6551 6.74839C30.0434 7.60467 30.2573 8.52971 30.2843 9.46954L30.66 17.607C30.6921 18.3016 30.6768 18.9963 30.6012 19.6937C30.5741 19.9471 30.545 20.2027 30.5329 20.4554C30.4923 21.2547 30.6349 22.2911 31.2091 22.965L29.9721 24.2721C33.345 25.8071 36.228 28.2446 38.3025 31.3153C40.377 34.386 41.5624 37.9704 41.7277 41.6725C41.8255 43.7907 41.5929 45.8488 41.0771 47.7928L39.5813 61.8849L22.1581 62.6894L22.1578 62.683C11.3882 62.9475 2.43221 56.3312 1.8404 43.5142C1.49256 35.9811 4.81892 29.7501 10.119 26.0788L10.1034 26.0688C10.4635 25.7935 10.8901 25.5109 11.3481 25.2075L11.3501 25.2052C12.8557 24.2069 14.6957 22.984 15.6058 21.0843C16.3981 19.4357 16.4454 16.8194 16.3896 15.6109L16.3939 15.6107L16.1405 10.1226Z" fill="url(#paint4_radial_963_71812)"/>
<path id="Vector_6" d="M16.1405 10.1226C16.0808 9.1843 16.2085 8.24348 16.5163 7.35507C16.8241 6.46665 17.3057 5.64842 17.9331 4.94814C18.5604 4.24785 19.321 3.67953 20.1704 3.27633C21.0197 2.87314 21.9409 2.64315 22.8801 2.59978C23.8193 2.55641 24.7578 2.70054 25.6407 3.02375C26.5236 3.34695 27.3333 3.84277 28.0225 4.48226C28.7118 5.12175 29.2668 5.89212 29.6551 6.74839C30.0434 7.60467 30.2573 8.52971 30.2843 9.46954L30.66 17.607C30.6921 18.3016 30.6768 18.9963 30.6012 19.6937C30.5741 19.9471 30.545 20.2027 30.5329 20.4554C30.4923 21.2547 30.6349 22.2911 31.2091 22.965L29.9721 24.2721C33.345 25.8071 36.228 28.2446 38.3025 31.3153C40.377 34.386 41.5624 37.9704 41.7277 41.6725C41.8255 43.7907 41.5929 45.8488 41.0771 47.7928L39.5813 61.8849L22.1581 62.6894L22.1578 62.683C11.3882 62.9475 2.43221 56.3312 1.8404 43.5142C1.49256 35.9811 4.81892 29.7501 10.119 26.0788L10.1034 26.0688C10.4635 25.7935 10.8901 25.5109 11.3481 25.2075L11.3501 25.2052C12.8557 24.2069 14.6957 22.984 15.6058 21.0843C16.3981 19.4357 16.4454 16.8194 16.3896 15.6109L16.3939 15.6107L16.1405 10.1226Z" fill="url(#paint5_radial_963_71812)"/>
<path id="Vector_7" d="M16.1405 10.1226C16.0808 9.1843 16.2085 8.24348 16.5163 7.35507C16.8241 6.46665 17.3057 5.64842 17.9331 4.94814C18.5604 4.24785 19.321 3.67953 20.1704 3.27633C21.0197 2.87314 21.9409 2.64315 22.8801 2.59978C23.8193 2.55641 24.7578 2.70054 25.6407 3.02375C26.5236 3.34695 27.3333 3.84277 28.0225 4.48226C28.7118 5.12175 29.2668 5.89212 29.6551 6.74839C30.0434 7.60467 30.2573 8.52971 30.2843 9.46954L30.66 17.607C30.6921 18.3016 30.6768 18.9963 30.6012 19.6937C30.5741 19.9471 30.545 20.2027 30.5329 20.4554C30.4923 21.2547 30.6349 22.2911 31.2091 22.965L29.9721 24.2721C33.345 25.8071 36.228 28.2446 38.3025 31.3153C40.377 34.386 41.5624 37.9704 41.7277 41.6725C41.8255 43.7907 41.5929 45.8488 41.0771 47.7928L39.5813 61.8849L22.1581 62.6894L22.1578 62.683C11.3882 62.9475 2.43221 56.3312 1.8404 43.5142C1.49256 35.9811 4.81892 29.7501 10.119 26.0788L10.1034 26.0688C10.4635 25.7935 10.8901 25.5109 11.3481 25.2075L11.3501 25.2052C12.8557 24.2069 14.6957 22.984 15.6058 21.0843C16.3981 19.4357 16.4454 16.8194 16.3896 15.6109L16.3939 15.6107L16.1405 10.1226Z" fill="url(#paint6_radial_963_71812)"/>
<path id="Vector_8" d="M16.1405 10.1226C16.0808 9.1843 16.2085 8.24348 16.5163 7.35507C16.8241 6.46665 17.3057 5.64842 17.9331 4.94814C18.5604 4.24785 19.321 3.67953 20.1704 3.27633C21.0197 2.87314 21.9409 2.64315 22.8801 2.59978C23.8193 2.55641 24.7578 2.70054 25.6407 3.02375C26.5236 3.34695 27.3333 3.84277 28.0225 4.48226C28.7118 5.12175 29.2668 5.89212 29.6551 6.74839C30.0434 7.60467 30.2573 8.52971 30.2843 9.46954L30.66 17.607C30.6921 18.3016 30.6768 18.9963 30.6012 19.6937C30.5741 19.9471 30.545 20.2027 30.5329 20.4554C30.4923 21.2547 30.6349 22.2911 31.2091 22.965L29.9721 24.2721C33.345 25.8071 36.228 28.2446 38.3025 31.3153C40.377 34.386 41.5624 37.9704 41.7277 41.6725C41.8255 43.7907 41.5929 45.8488 41.0771 47.7928L39.5813 61.8849L22.1581 62.6894L22.1578 62.683C11.3882 62.9475 2.43221 56.3312 1.8404 43.5142C1.49256 35.9811 4.81892 29.7501 10.119 26.0788L10.1034 26.0688C10.4635 25.7935 10.8901 25.5109 11.3481 25.2075L11.3501 25.2052C12.8557 24.2069 14.6957 22.984 15.6058 21.0843C16.3981 19.4357 16.4454 16.8194 16.3896 15.6109L16.3939 15.6107L16.1405 10.1226Z" fill="url(#paint7_linear_963_71812)"/>
<g id="Group_3" filter="url(#filter1_f_963_71812)">
<path id="Vector_9" d="M41.6371 29.5397C41.5694 28.0845 40.9265 26.7159 39.8498 25.7347C38.7732 24.7534 37.3509 24.24 35.8958 24.3072L29.8185 24.5878C28.6922 24.6403 27.6093 25.0381 26.7168 25.7272C25.8243 26.4163 25.1655 27.3633 24.8297 28.4397C24.4939 29.5161 24.4975 30.6697 24.8399 31.744C25.1823 32.8183 25.8469 33.7613 26.7436 34.4448C26.1075 34.9716 25.5981 35.6348 25.2532 36.3852C24.9082 37.1357 24.7365 37.9541 24.7509 38.7799C24.7652 39.6057 24.9652 40.4176 25.336 41.1556C25.7067 41.8937 26.2388 42.5388 26.8928 43.0432C26.3083 43.5857 25.8491 44.2492 25.5475 44.9875C25.2458 45.7258 25.1089 46.521 25.1463 47.3176L25.1588 47.5886C25.2283 49.0939 25.8955 50.4273 26.9219 51.3734C26.2039 52.1525 25.7337 53.1275 25.5709 54.1745C25.4082 55.2215 25.5602 56.2932 26.0078 57.2535C26.4554 58.2139 27.1782 59.0196 28.0846 59.5683C28.991 60.117 30.04 60.384 31.0984 60.3353L37.1284 60.0569C38.0667 60.0136 38.9771 59.7239 39.7678 59.2169C40.5585 58.7099 41.2016 58.0034 41.6324 57.1688C42.0632 56.3341 42.2665 55.4006 42.2217 54.4624C42.1769 53.5241 41.8857 52.6142 41.3774 51.8244C42.304 51.3393 43.073 50.5998 43.5938 49.6927C44.1146 48.7857 44.3657 47.7488 44.3175 46.7039L44.305 46.433C44.2266 44.7341 43.3824 43.2537 42.1273 42.3031C42.7913 41.6707 43.287 40.8826 43.5695 40.0102C43.852 39.1378 43.9124 38.2088 43.7451 37.3072C43.5779 36.4056 43.1883 35.56 42.6117 34.847C42.0351 34.134 41.2897 33.5761 40.4431 33.2239C41.2457 32.2171 41.7012 30.9267 41.6371 29.5397Z" fill="url(#paint8_linear_963_71812)"/>
</g>
<g id="Group_4" filter="url(#filter2_i_963_71812)">
<path id="Vector_10" d="M40.4587 33.5548C43.9148 33.3952 46.5872 30.4641 46.4276 27.0079C46.268 23.5518 43.3369 20.8794 39.8808 21.039L32.9497 21.359C29.4936 21.5186 26.8212 24.4497 26.9808 27.9059C27.1404 31.362 30.0715 34.0344 33.5276 33.8749L40.4587 33.5548Z" fill="url(#paint9_linear_963_71812)"/>
<path id="Vector_11" d="M40.4587 33.5548C43.9148 33.3952 46.5872 30.4641 46.4276 27.0079C46.268 23.5518 43.3369 20.8794 39.8808 21.039L32.9497 21.359C29.4936 21.5186 26.8212 24.4497 26.9808 27.9059C27.1404 31.362 30.0715 34.0344 33.5276 33.8749L40.4587 33.5548Z" fill="url(#paint10_radial_963_71812)"/>
<path id="Vector_12" d="M40.4587 33.5548C43.9148 33.3952 46.5872 30.4641 46.4276 27.0079C46.268 23.5518 43.3369 20.8794 39.8808 21.039L32.9497 21.359C29.4936 21.5186 26.8212 24.4497 26.9808 27.9059C27.1404 31.362 30.0715 34.0344 33.5276 33.8749L40.4587 33.5548Z" fill="url(#paint11_radial_963_71812)"/>
</g>
<g id="Group_5" filter="url(#filter3_f_963_71812)">
<path id="Vector_13" d="M41.4959 24.0469L33.7112 24.4063C32.2171 24.4753 31.0618 25.7425 31.1308 27.2366C31.1998 28.7307 32.4669 29.886 33.961 29.817L41.7458 29.4575C43.2399 29.3885 44.3952 28.1214 44.3262 26.6273C44.2572 25.1332 42.99 23.9779 41.4959 24.0469Z" fill="url(#paint12_linear_963_71812)"/>
</g>
<g id="Group_6" filter="url(#filter4_i_963_71812)">
<path id="Vector_14" d="M41.2808 61.8132C44.6443 61.6579 47.2451 58.8053 47.0898 55.4418C46.9345 52.0782 44.0819 49.4775 40.7184 49.6328L33.8433 49.9502C30.4798 50.1055 27.879 52.9581 28.0343 56.3216C28.1896 59.6852 31.0422 62.2859 34.4057 62.1306L41.2808 61.8132Z" fill="url(#paint13_linear_963_71812)"/>
<path id="Vector_15" d="M41.2808 61.8132C44.6443 61.6579 47.2451 58.8053 47.0898 55.4418C46.9345 52.0782 44.0819 49.4775 40.7184 49.6328L33.8433 49.9502C30.4798 50.1055 27.879 52.9581 28.0343 56.3216C28.1896 59.6852 31.0422 62.2859 34.4057 62.1306L41.2808 61.8132Z" fill="url(#paint14_radial_963_71812)"/>
<path id="Vector_16" d="M41.2808 61.8132C44.6443 61.6579 47.2451 58.8053 47.0898 55.4418C46.9345 52.0782 44.0819 49.4775 40.7184 49.6328L33.8433 49.9502C30.4798 50.1055 27.879 52.9581 28.0343 56.3216C28.1896 59.6852 31.0422 62.2859 34.4057 62.1306L41.2808 61.8132Z" fill="url(#paint15_radial_963_71812)"/>
</g>
<g id="Group_7" filter="url(#filter5_f_963_71812)">
<path id="Vector_17" d="M43.9591 53.1104L35.5851 53.497C34.7086 53.5375 34.0309 54.2809 34.0713 55.1574C34.1118 56.0339 34.8552 56.7116 35.7317 56.6712L44.1057 56.2845C44.9822 56.244 45.6599 55.5007 45.6195 54.6242C45.579 53.7476 44.8356 53.0699 43.9591 53.1104Z" fill="url(#paint16_linear_963_71812)"/>
</g>
<g id="Group_8" filter="url(#filter6_i_963_71812)">
<path id="Vector_18" d="M49.4751 46.5832L49.4608 46.2736C49.3012 42.8174 46.3701 40.145 42.914 40.3046L33.583 40.7354C30.1268 40.895 27.4544 43.8262 27.614 47.2823L27.6283 47.592C27.7879 51.0482 30.719 53.7206 34.1752 53.561L43.5062 53.1301C46.9623 52.9705 49.6347 50.0394 49.4751 46.5832Z" fill="url(#paint17_linear_963_71812)"/>
<path id="Vector_19" d="M49.4751 46.5832L49.4608 46.2736C49.3012 42.8174 46.3701 40.145 42.914 40.3046L33.583 40.7354C30.1268 40.895 27.4544 43.8262 27.614 47.2823L27.6283 47.592C27.7879 51.0482 30.719 53.7206 34.1752 53.561L43.5062 53.1301C46.9623 52.9705 49.6347 50.0394 49.4751 46.5832Z" fill="url(#paint18_radial_963_71812)"/>
<path id="Vector_20" d="M49.4751 46.5832L49.4608 46.2736C49.3012 42.8174 46.3701 40.145 42.914 40.3046L33.583 40.7354C30.1268 40.895 27.4544 43.8262 27.614 47.2823L27.6283 47.592C27.7879 51.0482 30.719 53.7206 34.1752 53.561L43.5062 53.1301C46.9623 52.9705 49.6347 50.0394 49.4751 46.5832Z" fill="url(#paint19_radial_963_71812)"/>
</g>
<g id="Group_9" filter="url(#filter7_f_963_71812)">
<path id="Vector_21" d="M45.6504 44.6946L34.3624 45.2158C33.4859 45.2563 32.8082 45.9996 32.8487 46.8761C32.8891 47.7526 33.6325 48.4304 34.509 48.3899L45.7969 47.8687C46.6734 47.8282 47.3512 47.0849 47.3107 46.2084C47.2702 45.3318 46.5269 44.6541 45.6504 44.6946Z" fill="url(#paint20_linear_963_71812)"/>
</g>
<g id="Group_10" filter="url(#filter8_i_963_71812)">
<path id="Vector_22" d="M48.9289 36.739L48.9276 36.7111C48.768 33.2549 45.8369 30.5825 42.3808 30.7421L33.1466 31.1685C29.6904 31.328 27.018 34.2592 27.1776 37.7153L27.1789 37.7433C27.3385 41.1995 30.2696 43.8719 33.7258 43.7123L42.9599 43.2859C46.4161 43.1263 49.0885 40.1952 48.9289 36.739Z" fill="url(#paint21_linear_963_71812)"/>
<path id="Vector_23" d="M48.9289 36.739L48.9276 36.7111C48.768 33.2549 45.8369 30.5825 42.3808 30.7421L33.1466 31.1685C29.6904 31.328 27.018 34.2592 27.1776 37.7153L27.1789 37.7433C27.3385 41.1995 30.2696 43.8719 33.7258 43.7123L42.9599 43.2859C46.4161 43.1263 49.0885 40.1952 48.9289 36.739Z" fill="url(#paint22_radial_963_71812)"/>
</g>
<g id="Group_11" filter="url(#filter9_f_963_71812)">
<path id="Vector_24" d="M44.0051 33.3034L33.9924 33.7657C32.4983 33.8347 31.343 35.1018 31.412 36.5959C31.481 38.0901 32.7481 39.2453 34.2423 39.1763L44.2549 38.714C45.749 38.645 46.9043 37.3779 46.8353 35.8838C46.7663 34.3897 45.4992 33.2344 44.0051 33.3034Z" fill="url(#paint23_linear_963_71812)"/>
</g>
<path id="Vector_25" d="M22.9138 2.7208C21.0379 2.80741 19.2733 3.63567 18.0081 5.02335C16.7429 6.41104 16.0808 8.24449 16.1674 10.1204L16.4208 15.6084L16.4165 15.6086C16.4723 16.8172 16.425 19.4335 15.6348 21.082C14.7226 22.9818 12.8826 24.2046 11.3791 25.2007C10.9191 25.5064 10.4926 25.7912 10.1325 26.0664C12.3513 27.6816 16.8901 30.905 16.9938 30.8184C17.0976 30.7317 21.9099 27.8867 24.3014 26.4725L24.1297 24.9934C25.9699 24.859 27.685 24.0116 28.9097 22.6316C30.1345 21.2515 30.7721 19.4479 30.6869 17.6047L30.3112 9.46728C30.2246 7.59178 29.3966 5.82747 28.0094 4.56231C26.6222 3.29716 24.7893 2.63477 22.9138 2.7208Z" fill="url(#paint24_radial_963_71812)"/>
<g id="Group_12" filter="url(#filter10_f_963_71812)">
<path id="Vector_26" d="M28.4253 7.70362C28.3603 6.29622 27.1667 5.20797 25.7593 5.27296C24.3519 5.33794 23.2636 6.53155 23.3286 7.93896L23.8873 20.0398C23.9523 21.4472 25.1459 22.5354 26.5533 22.4704C27.9607 22.4055 29.049 21.2118 28.984 19.8044L28.4253 7.70362Z" fill="url(#paint25_linear_963_71812)"/>
</g>
</g>
<defs>
<filter id="filter0_i_963_71812" x="1.81641" y="2.59375" width="41.7336" height="60.0938" filterUnits="userSpaceOnUse" color-interpolation-filters="sRGB">
<feFlood flood-opacity="0" result="BackgroundImageFix"/>
<feBlend mode="normal" in="SourceGraphic" in2="BackgroundImageFix" result="shape"/>
<feColorMatrix in="SourceAlpha" type="matrix" values="0 0 0 0 0 0 0 0 0 0 0 0 0 0 0 0 0 0 127 0" result="hardAlpha"/>
<feOffset dx="1.8"/>
<feGaussianBlur stdDeviation="5.40001"/>
<feComposite in2="hardAlpha" operator="arithmetic" k2="-1" k3="1"/>
<feColorMatrix type="matrix" values="0 0 0 0 0.87451 0 0 0 0 0.67451 0 0 0 0 0.568627 0 0 0 1 0"/>
<feBlend mode="normal" in2="shape" result="effect1_innerShadow_963_71812"/>
</filter>
<filter id="filter1_f_963_71812" x="17.3801" y="17.1047" width="34.1442" height="50.4391" filterUnits="userSpaceOnUse" color-interpolation-filters="sRGB">
<feFlood flood-opacity="0" result="BackgroundImageFix"/>
<feBlend mode="normal" in="SourceGraphic" in2="BackgroundImageFix" result="shape"/>
<feGaussianBlur stdDeviation="3.6" result="effect1_foregroundBlur_963_71812"/>
</filter>
<filter id="filter2_i_963_71812" x="26.9746" y="21.0312" width="21.259" height="12.8516" filterUnits="userSpaceOnUse" color-interpolation-filters="sRGB">
<feFlood flood-opacity="0" result="BackgroundImageFix"/>
<feBlend mode="normal" in="SourceGraphic" in2="BackgroundImageFix" result="shape"/>
<feColorMatrix in="SourceAlpha" type="matrix" values="0 0 0 0 0 0 0 0 0 0 0 0 0 0 0 0 0 0 127 0" result="hardAlpha"/>
<feOffset dx="1.8"/>
<feGaussianBlur stdDeviation="2.7"/>
<feComposite in2="hardAlpha" operator="arithmetic" k2="-1" k3="1"/>
<feColorMatrix type="matrix" values="0 0 0 0 0.898039 0 0 0 0 0.690196 0 0 0 0 0.568627 0 0 0 1 0"/>
<feBlend mode="normal" in2="shape" result="effect1_innerShadow_963_71812"/>
</filter>
<filter id="filter3_f_963_71812" x="26.6269" y="19.5469" width="22.2031" height="14.7734" filterUnits="userSpaceOnUse" color-interpolation-filters="sRGB">
<feFlood flood-opacity="0" result="BackgroundImageFix"/>
<feBlend mode="normal" in="SourceGraphic" in2="BackgroundImageFix" result="shape"/>
<feGaussianBlur stdDeviation="2.25" result="effect1_foregroundBlur_963_71812"/>
</filter>
<filter id="filter4_i_963_71812" x="28.0273" y="49.625" width="20.8684" height="14.3156" filterUnits="userSpaceOnUse" color-interpolation-filters="sRGB">
<feFlood flood-opacity="0" result="BackgroundImageFix"/>
<feBlend mode="normal" in="SourceGraphic" in2="BackgroundImageFix" result="shape"/>
<feColorMatrix in="SourceAlpha" type="matrix" values="0 0 0 0 0 0 0 0 0 0 0 0 0 0 0 0 0 0 127 0" result="hardAlpha"/>
<feOffset dx="1.8" dy="1.8"/>
<feGaussianBlur stdDeviation="2.7"/>
<feComposite in2="hardAlpha" operator="arithmetic" k2="-1" k3="1"/>
<feColorMatrix type="matrix" values="0 0 0 0 0.811765 0 0 0 0 0.568627 0 0 0 0 0.541176 0 0 0 1 0"/>
<feBlend mode="normal" in2="shape" result="effect1_innerShadow_963_71812"/>
</filter>
<filter id="filter5_f_963_71812" x="29.5703" y="48.6094" width="20.5508" height="12.5625" filterUnits="userSpaceOnUse" color-interpolation-filters="sRGB">
<feFlood flood-opacity="0" result="BackgroundImageFix"/>
<feBlend mode="normal" in="SourceGraphic" in2="BackgroundImageFix" result="shape"/>
<feGaussianBlur stdDeviation="2.25" result="effect1_foregroundBlur_963_71812"/>
</filter>
<filter id="filter6_i_963_71812" x="27.6074" y="40.2969" width="25.475" height="15.0734" filterUnits="userSpaceOnUse" color-interpolation-filters="sRGB">
<feFlood flood-opacity="0" result="BackgroundImageFix"/>
<feBlend mode="normal" in="SourceGraphic" in2="BackgroundImageFix" result="shape"/>
<feColorMatrix in="SourceAlpha" type="matrix" values="0 0 0 0 0 0 0 0 0 0 0 0 0 0 0 0 0 0 127 0" result="hardAlpha"/>
<feOffset dx="3.6" dy="1.8"/>
<feGaussianBlur stdDeviation="2.7"/>
<feComposite in2="hardAlpha" operator="arithmetic" k2="-1" k3="1"/>
<feColorMatrix type="matrix" values="0 0 0 0 0.831373 0 0 0 0 0.576471 0 0 0 0 0.505882 0 0 0 1 0"/>
<feBlend mode="normal" in2="shape" result="effect1_innerShadow_963_71812"/>
</filter>
<filter id="filter7_f_963_71812" x="28.3477" y="40.1953" width="23.4649" height="12.6953" filterUnits="userSpaceOnUse" color-interpolation-filters="sRGB">
<feFlood flood-opacity="0" result="BackgroundImageFix"/>
<feBlend mode="normal" in="SourceGraphic" in2="BackgroundImageFix" result="shape"/>
<feGaussianBlur stdDeviation="2.25" result="effect1_foregroundBlur_963_71812"/>
</filter>
<filter id="filter8_i_963_71812" x="27.1699" y="30.7344" width="23.5656" height="14.7844" filterUnits="userSpaceOnUse" color-interpolation-filters="sRGB">
<feFlood flood-opacity="0" result="BackgroundImageFix"/>
<feBlend mode="normal" in="SourceGraphic" in2="BackgroundImageFix" result="shape"/>
<feColorMatrix in="SourceAlpha" type="matrix" values="0 0 0 0 0 0 0 0 0 0 0 0 0 0 0 0 0 0 127 0" result="hardAlpha"/>
<feOffset dx="1.8" dy="1.8"/>
<feGaussianBlur stdDeviation="2.7"/>
<feComposite in2="hardAlpha" operator="arithmetic" k2="-1" k3="1"/>
<feColorMatrix type="matrix" values="0 0 0 0 0.862745 0 0 0 0 0.658824 0 0 0 0 0.54902 0 0 0 1 0"/>
<feBlend mode="normal" in2="shape" result="effect1_innerShadow_963_71812"/>
</filter>
<filter id="filter9_f_963_71812" x="26.9082" y="28.7969" width="24.4297" height="14.8828" filterUnits="userSpaceOnUse" color-interpolation-filters="sRGB">
<feFlood flood-opacity="0" result="BackgroundImageFix"/>
<feBlend mode="normal" in="SourceGraphic" in2="BackgroundImageFix" result="shape"/>
<feGaussianBlur stdDeviation="2.25" result="effect1_foregroundBlur_963_71812"/>
</filter>
<filter id="filter10_f_963_71812" x="18.8262" y="0.773433" width="14.6602" height="26.2031" filterUnits="userSpaceOnUse" color-interpolation-filters="sRGB">
<feFlood flood-opacity="0" result="BackgroundImageFix"/>
<feBlend mode="normal" in="SourceGraphic" in2="BackgroundImageFix" result="shape"/>
<feGaussianBlur stdDeviation="2.25" result="effect1_foregroundBlur_963_71812"/>
</filter>
<linearGradient id="paint0_linear_963_71812" x1="32.8438" y1="23.7365" x2="10.5747" y2="71.4674" gradientUnits="userSpaceOnUse">
<stop stop-color="#FFDDBE"/>
<stop offset="1" stop-color="#E7AFA8"/>
</linearGradient>
<radialGradient id="paint1_radial_963_71812" cx="0" cy="0" r="1" gradientUnits="userSpaceOnUse" gradientTransform="translate(28.6142 5.52894) rotate(136.17) scale(7.97836 6.22501)">
<stop stop-color="#FFE6C7"/>
<stop offset="1" stop-color="#FFE6C7" stop-opacity="0"/>
</radialGradient>
<radialGradient id="paint2_radial_963_71812" cx="0" cy="0" r="1" gradientUnits="userSpaceOnUse" gradientTransform="translate(13.1633 33.1376) rotate(130.92) scale(15.9569 11.5594)">
<stop stop-color="#F2C0A5"/>
<stop offset="1" stop-color="#F2C0A5" stop-opacity="0"/>
</radialGradient>
<radialGradient id="paint3_radial_963_71812" cx="0" cy="0" r="1" gradientUnits="userSpaceOnUse" gradientTransform="translate(33.7816 34.1044) rotate(133.15) scale(23.0115 14.186)">
<stop stop-color="#DDA895"/>
<stop offset="1" stop-color="#DDA895" stop-opacity="0"/>
</radialGradient>
<radialGradient id="paint4_radial_963_71812" cx="0" cy="0" r="1" gradientUnits="userSpaceOnUse" gradientTransform="translate(15.2251 71.8346) rotate(-65.2557) scale(31.7365 56.4274)">
<stop stop-color="#C08494"/>
<stop offset="1" stop-color="#C08494" stop-opacity="0"/>
</radialGradient>
<radialGradient id="paint5_radial_963_71812" cx="0" cy="0" r="1" gradientUnits="userSpaceOnUse" gradientTransform="translate(34.8089 42.632) rotate(177.356) scale(33.4413 51.4677)">
<stop offset="0.864" stop-color="#EDB29B" stop-opacity="0"/>
<stop offset="1" stop-color="#EDB29B"/>
</radialGradient>
<radialGradient id="paint6_radial_963_71812" cx="0" cy="0" r="1" gradientUnits="userSpaceOnUse" gradientTransform="translate(29.8498 22.4158) rotate(36.2563) scale(3.3632 4.42909)">
<stop stop-color="#FFDBBA"/>
<stop offset="1" stop-color="#FFDBBA" stop-opacity="0"/>
</radialGradient>
<linearGradient id="paint7_linear_963_71812" x1="22.8319" y1="65.2875" x2="22.4906" y2="57.8963" gradientUnits="userSpaceOnUse">
<stop stop-color="#B57895"/>
<stop offset="1" stop-color="#B57895" stop-opacity="0"/>
</linearGradient>
<linearGradient id="paint8_linear_963_71812" x1="32.3632" y1="28.4529" x2="33.8892" y2="61.5016" gradientUnits="userSpaceOnUse">
<stop stop-color="#B5755F"/>
<stop offset="1" stop-color="#B3748D"/>
</linearGradient>
<linearGradient id="paint9_linear_963_71812" x1="46.4276" y1="27.0079" x2="28.9119" y2="27.8167" gradientUnits="userSpaceOnUse">
<stop stop-color="#FFD8BA"/>
<stop offset="1" stop-color="#ECB9A3"/>
</linearGradient>
<radialGradient id="paint10_radial_963_71812" cx="0" cy="0" r="1" gradientUnits="userSpaceOnUse" gradientTransform="translate(28.9221 31.5855) rotate(-2.6437) scale(14.2643 5.72139)">
<stop stop-color="#DFA995"/>
<stop offset="1" stop-color="#DFA995" stop-opacity="0"/>
</radialGradient>
<radialGradient id="paint11_radial_963_71812" cx="0" cy="0" r="1" gradientUnits="userSpaceOnUse" gradientTransform="translate(30.3981 33.306) rotate(-145.277) scale(4.99683 3.34472)">
<stop stop-color="#CA8C6F"/>
<stop offset="1" stop-color="#CA8C6F" stop-opacity="0"/>
</radialGradient>
<linearGradient id="paint12_linear_963_71812" x1="43.5837" y1="25.4353" x2="29.3603" y2="26.0921" gradientUnits="userSpaceOnUse">
<stop stop-color="#FFE7CA"/>
<stop offset="1" stop-color="#FFE7CA" stop-opacity="0"/>
</linearGradient>
<linearGradient id="paint13_linear_963_71812" x1="45.421" y1="55.5188" x2="28.0343" y2="56.3216" gradientUnits="userSpaceOnUse">
<stop stop-color="#FECEB7"/>
<stop offset="1" stop-color="#DAA59E"/>
</linearGradient>
<radialGradient id="paint14_radial_963_71812" cx="0" cy="0" r="1" gradientUnits="userSpaceOnUse" gradientTransform="translate(33.8035 62.1563) rotate(-2.6437) scale(17.6693 3.34988)">
<stop stop-color="#BF8196"/>
<stop offset="1" stop-color="#BF8196" stop-opacity="0"/>
</radialGradient>
<radialGradient id="paint15_radial_963_71812" cx="0" cy="0" r="1" gradientUnits="userSpaceOnUse" gradientTransform="translate(32.4367 52.1573) rotate(-2.6437) scale(14.4875 3.25733)">
<stop stop-color="#B57767"/>
<stop offset="1" stop-color="#B57767" stop-opacity="0"/>
</radialGradient>
<linearGradient id="paint16_linear_963_71812" x1="44.9864" y1="53.9357" x2="32.5372" y2="54.5106" gradientUnits="userSpaceOnUse">
<stop stop-color="#FFD2C1"/>
<stop offset="1" stop-color="#FFD2C1" stop-opacity="0"/>
</linearGradient>
<linearGradient id="paint17_linear_963_71812" x1="47.554" y1="46.5168" x2="27.6212" y2="47.4371" gradientUnits="userSpaceOnUse">
<stop stop-color="#FFDDC1"/>
<stop offset="1" stop-color="#E5B1A3"/>
</linearGradient>
<radialGradient id="paint18_radial_963_71812" cx="0" cy="0" r="1" gradientUnits="userSpaceOnUse" gradientTransform="translate(32.343 53.6456) rotate(-2.6437) scale(19.8418 7.05846)">
<stop offset="0.14" stop-color="#CA8E96"/>
<stop offset="1" stop-color="#CA8E96" stop-opacity="0"/>
</radialGradient>
<radialGradient id="paint19_radial_963_71812" cx="0" cy="0" r="1" gradientUnits="userSpaceOnUse" gradientTransform="translate(33.5681 41.8589) rotate(-2.6437) scale(10.2328 4.1539)">
<stop stop-color="#BB7E6C"/>
<stop offset="1" stop-color="#BB7E6C" stop-opacity="0"/>
</radialGradient>
<linearGradient id="paint20_linear_963_71812" x1="46.5271" y1="45.5269" x2="30.9382" y2="46.2467" gradientUnits="userSpaceOnUse">
<stop stop-color="#FFE2C9"/>
<stop offset="1" stop-color="#FFE2C9" stop-opacity="0"/>
</linearGradient>
<linearGradient id="paint21_linear_963_71812" x1="48.9282" y1="36.724" x2="27.1803" y2="37.7281" gradientUnits="userSpaceOnUse">
<stop stop-color="#FFDFBF"/>
<stop offset="1" stop-color="#E2AE9C"/>
</linearGradient>
<radialGradient id="paint22_radial_963_71812" cx="0" cy="0" r="1" gradientUnits="userSpaceOnUse" gradientTransform="translate(32.9924 43.7461) rotate(-2.6437) scale(17.4241 8.08769)">
<stop stop-color="#D39797"/>
<stop offset="1" stop-color="#D39797" stop-opacity="0"/>
</radialGradient>
<linearGradient id="paint23_linear_963_71812" x1="45.9789" y1="34.6992" x2="29.3535" y2="35.4669" gradientUnits="userSpaceOnUse">
<stop stop-color="#FFE8CA"/>
<stop offset="1" stop-color="#FFE8CA" stop-opacity="0"/>
</linearGradient>
<radialGradient id="paint24_radial_963_71812" cx="0" cy="0" r="1" gradientUnits="userSpaceOnUse" gradientTransform="translate(16.4021 11.7969) rotate(87.3563) scale(13.6249 5.3773)">
<stop stop-color="#E0A892"/>
<stop offset="1" stop-color="#E0A892" stop-opacity="0"/>
</radialGradient>
<linearGradient id="paint25_linear_963_71812" x1="28.2608" y1="9.88353" x2="22.7663" y2="10.1372" gradientUnits="userSpaceOnUse">
<stop stop-color="#FFE7CA"/>
<stop offset="1" stop-color="#FFE7CA" stop-opacity="0"/>
</linearGradient>
</defs>
</svg>
