<svg width="32" height="32" viewBox="0 0 32 32" fill="none" xmlns="http://www.w3.org/2000/svg">
<g id="icon/flat/cost">
<path id="Vector" fill-rule="evenodd" clip-rule="evenodd" d="M16.0687 1.66406H15.93C14.7313 1.66406 13.7327 1.66406 12.9407 1.77073C12.1033 1.88273 11.3473 2.13073 10.7407 2.7374C10.1327 3.3454 9.88468 4.1014 9.77268 4.9374C9.69668 5.50673 9.67402 6.8654 9.66868 8.03073C6.97268 8.12006 5.35268 8.43473 4.22868 9.56006C2.66602 11.1214 2.66602 13.6361 2.66602 18.6641C2.66602 23.6921 2.66602 26.2067 4.22868 27.7681C5.79002 29.3307 8.30468 29.3307 13.3327 29.3307H18.666C23.694 29.3307 26.2087 29.3307 27.77 27.7681C29.3327 26.2067 29.3327 23.6921 29.3327 18.6641C29.3327 13.6361 29.3327 11.1214 27.77 9.56006C26.646 8.43473 25.026 8.12006 22.33 8.03206C22.3247 6.8654 22.3033 5.50673 22.226 4.93873C22.114 4.1014 21.866 3.3454 21.258 2.73873C20.6513 2.13073 19.8953 1.88273 19.058 1.77073C18.266 1.66406 17.266 1.66406 16.0687 1.66406ZM20.33 8.00006C20.3233 6.87073 20.3047 5.65606 20.2447 5.20406C20.1607 4.5894 20.018 4.3254 19.8447 4.15206C19.6713 3.97873 19.4073 3.83606 18.7913 3.75206C18.1487 3.66673 17.2847 3.66406 15.9993 3.66406C14.714 3.66406 13.85 3.66673 13.206 3.7534C12.5913 3.83606 12.3273 3.97873 12.154 4.1534C11.9807 4.32673 11.838 4.5894 11.754 5.20406C11.694 5.6574 11.674 6.87073 11.6687 8.00006C12.19 7.9974 12.746 7.9974 13.3327 7.9974H18.666C19.254 7.9974 19.8087 7.9974 20.33 8.00006ZM15.9993 12.3307C16.2646 12.3307 16.5189 12.4361 16.7065 12.6236C16.894 12.8112 16.9993 13.0655 16.9993 13.3307V13.3441C18.4513 13.7094 19.666 14.8547 19.666 16.4414C19.666 16.7066 19.5607 16.961 19.3731 17.1485C19.1856 17.336 18.9312 17.4414 18.666 17.4414C18.4008 17.4414 18.1464 17.336 17.9589 17.1485C17.7714 16.961 17.666 16.7066 17.666 16.4414C17.666 15.9294 17.098 15.2201 15.9993 15.2201C14.9007 15.2201 14.3327 15.9294 14.3327 16.4414C14.3327 16.9534 14.9007 17.6641 15.9993 17.6641C17.846 17.6641 19.666 18.9441 19.666 20.8867C19.666 22.4734 18.4513 23.6174 16.9993 23.9841V23.9974C16.9993 24.2626 16.894 24.517 16.7065 24.7045C16.5189 24.892 16.2646 24.9974 15.9993 24.9974C15.7341 24.9974 15.4798 24.892 15.2922 24.7045C15.1047 24.517 14.9993 24.2626 14.9993 23.9974V23.9841C13.5473 23.6187 12.3327 22.4734 12.3327 20.8867C12.3327 20.6215 12.438 20.3672 12.6256 20.1796C12.8131 19.9921 13.0675 19.8867 13.3327 19.8867C13.5979 19.8867 13.8523 19.9921 14.0398 20.1796C14.2273 20.3672 14.3327 20.6215 14.3327 20.8867C14.3327 21.3987 14.9007 22.1081 15.9993 22.1081C17.098 22.1081 17.666 21.3987 17.666 20.8867C17.666 20.3747 17.098 19.6641 15.9993 19.6641C14.1527 19.6641 12.3327 18.3841 12.3327 16.4414C12.3327 14.8547 13.5473 13.7094 14.9993 13.3441V13.3307C14.9993 13.0655 15.1047 12.8112 15.2922 12.6236C15.4798 12.4361 15.7341 12.3307 15.9993 12.3307Z" fill="white"/>
</g>
</svg>
