<svg width="24" height="24" viewBox="0 0 24 24" fill="none" xmlns="http://www.w3.org/2000/svg">
<g id="icon/arrow/long/right">
<path id="Vector" d="M13.693 20.1333C13.6526 20.0929 13.6206 20.045 13.5987 19.9922C13.5768 19.9394 13.5655 19.8828 13.5655 19.8257C13.5655 19.7686 13.5768 19.712 13.5987 19.6592C13.6206 19.6064 13.6526 19.5585 13.693 19.5181L20.7766 12.4345L2.6965 12.4345C2.58118 12.4345 2.4706 12.3887 2.38906 12.3072C2.30753 12.2256 2.26172 12.1151 2.26172 11.9997C2.26172 11.8844 2.30753 11.7738 2.38906 11.6923C2.4706 11.6108 2.58118 11.565 2.6965 11.565H20.7766L13.693 4.48139C13.6526 4.441 13.6206 4.39304 13.5987 4.34026C13.5769 4.28748 13.5656 4.23091 13.5656 4.17379C13.5656 4.11666 13.5769 4.06009 13.5987 4.00731C13.6206 3.95453 13.6526 3.90658 13.693 3.86618C13.7334 3.82579 13.7814 3.79374 13.8342 3.77188C13.887 3.75002 13.9435 3.73877 14.0006 3.73877C14.0578 3.73877 14.1143 3.75002 14.1671 3.77188C14.2199 3.79374 14.2679 3.82579 14.3083 3.86618L22.1342 11.6921C22.1746 11.7325 22.2067 11.7805 22.2286 11.8332C22.2505 11.886 22.2617 11.9426 22.2617 11.9997C22.2617 12.0569 22.2505 12.1135 22.2286 12.1662C22.2067 12.219 22.1746 12.267 22.1342 12.3073L14.3083 20.1333C14.2679 20.1737 14.2199 20.2058 14.1671 20.2277C14.1144 20.2495 14.0578 20.2608 14.0006 20.2608C13.9435 20.2608 13.8869 20.2495 13.8342 20.2277C13.7814 20.2058 13.7334 20.1737 13.693 20.1333Z" fill="white" stroke="white"/>
</g>
</svg>
