<svg width="32" height="32" viewBox="0 0 32 32" fill="none" xmlns="http://www.w3.org/2000/svg">
<g id="icon/flat/square 4">
<path id="Vector" d="M6.93334 28.0016C6.11111 28.0016 5.41645 27.718 4.84934 27.1509C4.28222 26.5838 3.99911 25.8896 4 25.0682V6.80156C4 6.15712 4.3 5.70734 4.9 5.45223C5.5 5.19712 6.02222 5.29134 6.46667 5.73489L9.46667 8.73489L7.66667 10.5349L8.6 11.4682L10.4 9.66823L13.8667 13.1349L12.0667 14.9349L13 15.8682L14.8 14.0682L18.2667 17.5349L16.4667 19.3349L17.4 20.2682L19.2 18.4682L22.6667 21.9349L20.8667 23.7349L21.8 24.6682L23.6 22.8682L26.2667 25.5349C26.7111 25.9793 26.8058 26.5016 26.5507 27.1016C26.2956 27.7016 25.8453 28.0016 25.2 28.0016H6.93334ZM8 24.0016H19.0667L8 12.9349V24.0016Z" fill="white"/>
</g>
</svg>
