<svg width="458" height="453" viewBox="0 0 458 453" fill="none" xmlns="http://www.w3.org/2000/svg">
<path d="M338.097 169.285C340.749 167.883 343.098 165.969 345.005 163.653C346.913 161.337 348.342 158.666 349.211 155.794C350.079 152.921 350.369 149.906 350.064 146.921C349.759 143.936 348.865 141.041 347.434 138.404C346.003 135.767 344.063 133.44 341.726 131.558C339.39 129.675 336.703 128.275 333.821 127.438C330.94 126.601 327.921 126.344 324.94 126.682C321.958 127.019 319.074 127.945 316.452 129.405C311.233 132.312 307.371 137.161 305.704 142.898C304.038 148.636 304.702 154.799 307.551 160.05C310.401 165.301 315.207 169.216 320.926 170.945C326.645 172.674 332.815 172.078 338.097 169.285Z" fill="url(#paint0_linear_19_3399)"/>
<path d="M338.097 169.285C340.749 167.883 343.098 165.969 345.005 163.653C346.913 161.337 348.342 158.666 349.211 155.794C350.079 152.921 350.369 149.906 350.064 146.921C349.759 143.936 348.865 141.041 347.434 138.404C346.003 135.767 344.063 133.44 341.726 131.558C339.39 129.675 336.703 128.275 333.821 127.438C330.94 126.601 327.921 126.344 324.94 126.682C321.958 127.019 319.074 127.945 316.452 129.405C311.233 132.312 307.371 137.161 305.704 142.898C304.038 148.636 304.702 154.799 307.551 160.05C310.401 165.301 315.207 169.216 320.926 170.945C326.645 172.674 332.815 172.078 338.097 169.285Z" fill="url(#paint1_radial_19_3399)"/>
<g filter="url(#filter0_f_19_3399)">
<path d="M336.727 166.76C339.015 165.519 341.036 163.838 342.674 161.816C344.313 159.793 345.537 157.468 346.277 154.972C347.016 152.476 347.257 149.859 346.986 147.27C346.714 144.682 345.935 142.172 344.693 139.884C343.452 137.596 341.772 135.575 339.749 133.937C337.726 132.298 335.401 131.074 332.905 130.335C330.409 129.595 327.792 129.354 325.203 129.626C322.615 129.897 320.105 130.676 317.817 131.918C313.196 134.426 309.761 138.666 308.267 143.707C306.773 148.748 307.342 154.175 309.85 158.796C312.358 163.417 316.599 166.852 321.639 168.346C326.68 169.84 332.107 169.268 336.727 166.76Z" fill="url(#paint2_radial_19_3399)"/>
<path d="M336.727 166.76C339.015 165.519 341.036 163.838 342.674 161.816C344.313 159.793 345.537 157.468 346.277 154.972C347.016 152.476 347.257 149.859 346.986 147.27C346.714 144.682 345.935 142.172 344.693 139.884C343.452 137.596 341.772 135.575 339.749 133.937C337.726 132.298 335.401 131.074 332.905 130.335C330.409 129.595 327.792 129.354 325.203 129.626C322.615 129.897 320.105 130.676 317.817 131.918C313.196 134.426 309.761 138.666 308.267 143.707C306.773 148.748 307.342 154.175 309.85 158.796C312.358 163.417 316.599 166.852 321.639 168.346C326.68 169.84 332.107 169.268 336.727 166.76Z" fill="url(#paint3_radial_19_3399)"/>
<path d="M336.727 166.76C339.015 165.519 341.036 163.838 342.674 161.816C344.313 159.793 345.537 157.468 346.277 154.972C347.016 152.476 347.257 149.859 346.986 147.27C346.714 144.682 345.935 142.172 344.693 139.884C343.452 137.596 341.772 135.575 339.749 133.937C337.726 132.298 335.401 131.074 332.905 130.335C330.409 129.595 327.792 129.354 325.203 129.626C322.615 129.897 320.105 130.676 317.817 131.918C313.196 134.426 309.761 138.666 308.267 143.707C306.773 148.748 307.342 154.175 309.85 158.796C312.358 163.417 316.599 166.852 321.639 168.346C326.68 169.84 332.107 169.268 336.727 166.76Z" fill="url(#paint4_radial_19_3399)"/>
</g>
<g filter="url(#filter1_f_19_3399)">
<path d="M336.32 166.003C338.509 164.815 340.443 163.208 342.01 161.272C343.578 159.337 344.749 157.112 345.457 154.725C346.164 152.337 346.395 149.833 346.135 147.356C345.875 144.879 345.13 142.478 343.942 140.289C342.754 138.1 341.146 136.167 339.211 134.599C337.276 133.032 335.051 131.861 332.663 131.153C330.276 130.445 327.772 130.215 325.295 130.475C322.818 130.735 320.417 131.48 318.228 132.668C313.808 135.067 310.521 139.124 309.092 143.946C307.663 148.768 308.207 153.961 310.607 158.381C313.006 162.802 317.063 166.088 321.885 167.518C326.707 168.947 331.9 168.402 336.32 166.003Z" fill="url(#paint5_radial_19_3399)"/>
<path d="M336.32 166.003C338.509 164.815 340.443 163.208 342.01 161.272C343.578 159.337 344.749 157.112 345.457 154.725C346.164 152.337 346.395 149.833 346.135 147.356C345.875 144.879 345.13 142.478 343.942 140.289C342.754 138.1 341.146 136.167 339.211 134.599C337.276 133.032 335.051 131.861 332.663 131.153C330.276 130.445 327.772 130.215 325.295 130.475C322.818 130.735 320.417 131.48 318.228 132.668C313.808 135.067 310.521 139.124 309.092 143.946C307.663 148.768 308.207 153.961 310.607 158.381C313.006 162.802 317.063 166.088 321.885 167.518C326.707 168.947 331.9 168.402 336.32 166.003Z" fill="url(#paint6_radial_19_3399)"/>
</g>
<path d="M303.259 190.355C304.703 189.599 305.982 188.563 307.022 187.308C308.062 186.053 308.843 184.603 309.317 183.044C309.792 181.484 309.952 179.846 309.788 178.224C309.624 176.602 309.139 175.029 308.362 173.597C307.584 172.164 306.529 170.9 305.259 169.879C303.988 168.858 302.528 168.099 300.961 167.648C299.395 167.196 297.755 167.06 296.135 167.248C294.516 167.437 292.951 167.945 291.53 168.744C288.714 170.326 286.635 172.953 285.74 176.056C284.846 179.159 285.208 182.489 286.748 185.327C288.288 188.166 290.884 190.284 293.973 191.225C297.062 192.165 300.398 191.853 303.259 190.355Z" fill="url(#paint7_linear_19_3399)"/>
<path d="M303.259 190.355C304.703 189.599 305.982 188.563 307.022 187.308C308.062 186.053 308.843 184.603 309.317 183.044C309.792 181.484 309.952 179.846 309.788 178.224C309.624 176.602 309.139 175.029 308.362 173.597C307.584 172.164 306.529 170.9 305.259 169.879C303.988 168.858 302.528 168.099 300.961 167.648C299.395 167.196 297.755 167.06 296.135 167.248C294.516 167.437 292.951 167.945 291.53 168.744C288.714 170.326 286.635 172.953 285.74 176.056C284.846 179.159 285.208 182.489 286.748 185.327C288.288 188.166 290.884 190.284 293.973 191.225C297.062 192.165 300.398 191.853 303.259 190.355Z" fill="url(#paint8_radial_19_3399)"/>
<path d="M336.556 205.175C338.385 204.182 340.001 202.839 341.311 201.222C342.621 199.605 343.599 197.746 344.191 195.75C344.782 193.755 344.975 191.663 344.757 189.593C344.54 187.524 343.918 185.517 342.925 183.688C341.932 181.859 340.589 180.244 338.972 178.934C337.355 177.624 335.496 176.645 333.501 176.054C331.505 175.462 329.413 175.27 327.343 175.487C325.274 175.704 323.267 176.327 321.438 177.32C317.745 179.324 314.999 182.714 313.804 186.743C312.61 190.772 313.066 195.111 315.07 198.804C317.075 202.498 320.465 205.244 324.494 206.438C328.523 207.632 332.863 207.179 336.556 205.175Z" fill="url(#paint9_linear_19_3399)"/>
<path d="M336.556 205.175C338.385 204.182 340.001 202.839 341.311 201.222C342.621 199.605 343.599 197.746 344.191 195.75C344.782 193.755 344.975 191.663 344.757 189.593C344.54 187.524 343.918 185.517 342.925 183.688C341.932 181.859 340.589 180.244 338.972 178.934C337.355 177.624 335.496 176.645 333.501 176.054C331.505 175.462 329.413 175.27 327.343 175.487C325.274 175.704 323.267 176.327 321.438 177.32C317.745 179.324 314.999 182.714 313.804 186.743C312.61 190.772 313.066 195.111 315.07 198.804C317.075 202.498 320.465 205.244 324.494 206.438C328.523 207.632 332.863 207.179 336.556 205.175Z" fill="url(#paint10_radial_19_3399)"/>
<path d="M336.556 205.175C338.385 204.182 340.001 202.839 341.311 201.222C342.621 199.605 343.599 197.746 344.191 195.75C344.782 193.755 344.975 191.663 344.757 189.593C344.54 187.524 343.918 185.517 342.925 183.688C341.932 181.859 340.589 180.244 338.972 178.934C337.355 177.624 335.496 176.645 333.501 176.054C331.505 175.462 329.413 175.27 327.343 175.487C325.274 175.704 323.267 176.327 321.438 177.32C317.745 179.324 314.999 182.714 313.804 186.743C312.61 190.772 313.066 195.111 315.07 198.804C317.075 202.498 320.465 205.244 324.494 206.438C328.523 207.632 332.863 207.179 336.556 205.175Z" fill="url(#paint11_radial_19_3399)"/>
<path d="M333.224 149.219C335.753 147.846 337.633 145.526 338.451 142.767C339.268 140.008 338.957 137.038 337.584 134.509C336.212 131.98 333.891 130.1 331.132 129.283C328.374 128.465 325.403 128.777 322.875 130.149C320.346 131.522 318.466 133.843 317.648 136.601C316.831 139.36 317.142 142.33 318.515 144.859C319.887 147.388 322.208 149.268 324.967 150.085C327.725 150.903 330.696 150.591 333.224 149.219Z" fill="url(#paint12_radial_19_3399)"/>
<g filter="url(#filter2_f_19_3399)">
<path d="M334.994 202.293C336.47 201.52 337.778 200.461 338.841 199.177C339.904 197.894 340.702 196.412 341.187 194.817C341.673 193.223 341.836 191.548 341.668 189.89C341.5 188.232 341.005 186.623 340.21 185.159C339.415 183.694 338.336 182.402 337.037 181.357C335.738 180.313 334.245 179.537 332.643 179.075C331.042 178.613 329.365 178.475 327.709 178.667C326.054 178.859 324.453 179.378 323 180.195C320.121 181.813 317.994 184.499 317.079 187.672C316.163 190.845 316.533 194.251 318.109 197.153C319.684 200.056 322.338 202.222 325.498 203.184C328.657 204.146 332.068 203.826 334.994 202.293Z" fill="url(#paint13_radial_19_3399)"/>
<path d="M334.994 202.293C336.47 201.52 337.778 200.461 338.841 199.177C339.904 197.894 340.702 196.412 341.187 194.817C341.673 193.223 341.836 191.548 341.668 189.89C341.5 188.232 341.005 186.623 340.21 185.159C339.415 183.694 338.336 182.402 337.037 181.357C335.738 180.313 334.245 179.537 332.643 179.075C331.042 178.613 329.365 178.475 327.709 178.667C326.054 178.859 324.453 179.378 323 180.195C320.121 181.813 317.994 184.499 317.079 187.672C316.163 190.845 316.533 194.251 318.109 197.153C319.684 200.056 322.338 202.222 325.498 203.184C328.657 204.146 332.068 203.826 334.994 202.293Z" fill="url(#paint14_radial_19_3399)"/>
<path d="M334.994 202.293C336.47 201.52 337.778 200.461 338.841 199.177C339.904 197.894 340.702 196.412 341.187 194.817C341.673 193.223 341.836 191.548 341.668 189.89C341.5 188.232 341.005 186.623 340.21 185.159C339.415 183.694 338.336 182.402 337.037 181.357C335.738 180.313 334.245 179.537 332.643 179.075C331.042 178.613 329.365 178.475 327.709 178.667C326.054 178.859 324.453 179.378 323 180.195C320.121 181.813 317.994 184.499 317.079 187.672C316.163 190.845 316.533 194.251 318.109 197.153C319.684 200.056 322.338 202.222 325.498 203.184C328.657 204.146 332.068 203.826 334.994 202.293Z" fill="url(#paint15_radial_19_3399)"/>
</g>
<g filter="url(#filter3_f_19_3399)">
<path d="M301.957 187.953C303.082 187.366 304.08 186.561 304.892 185.585C305.703 184.609 306.312 183.481 306.683 182.266C307.054 181.052 307.18 179.776 307.053 178.513C306.926 177.25 306.548 176.025 305.943 174.909C305.337 173.793 304.515 172.809 303.526 172.014C302.536 171.219 301.397 170.629 300.177 170.279C298.957 169.928 297.679 169.824 296.418 169.973C295.158 170.121 293.939 170.519 292.833 171.143C290.649 172.377 289.037 174.419 288.344 176.831C287.651 179.242 287.934 181.829 289.131 184.033C290.327 186.238 292.342 187.885 294.742 188.618C297.141 189.351 299.732 189.112 301.957 187.953Z" fill="url(#paint16_radial_19_3399)"/>
<path d="M301.957 187.953C303.082 187.366 304.08 186.561 304.892 185.585C305.703 184.609 306.312 183.481 306.683 182.266C307.054 181.052 307.18 179.776 307.053 178.513C306.926 177.25 306.548 176.025 305.943 174.909C305.337 173.793 304.515 172.809 303.526 172.014C302.536 171.219 301.397 170.629 300.177 170.279C298.957 169.928 297.679 169.824 296.418 169.973C295.158 170.121 293.939 170.519 292.833 171.143C290.649 172.377 289.037 174.419 288.344 176.831C287.651 179.242 287.934 181.829 289.131 184.033C290.327 186.238 292.342 187.885 294.742 188.618C297.141 189.351 299.732 189.112 301.957 187.953Z" fill="url(#paint17_radial_19_3399)"/>
</g>
<path d="M300.615 179.483C301.986 178.739 303.004 177.482 303.447 175.987C303.891 174.492 303.722 172.882 302.978 171.512C302.234 170.142 300.977 169.123 299.482 168.68C297.987 168.237 296.377 168.406 295.007 169.149C293.636 169.893 292.618 171.151 292.175 172.646C291.731 174.14 291.9 175.75 292.644 177.121C293.388 178.491 294.645 179.51 296.14 179.953C297.635 180.396 299.245 180.227 300.615 179.483Z" fill="url(#paint18_radial_19_3399)"/>
<path d="M333.151 191.168C334.917 190.209 336.23 188.588 336.801 186.661C337.372 184.734 337.155 182.659 336.196 180.893C335.237 179.127 333.616 177.814 331.689 177.243C329.763 176.671 327.688 176.889 325.922 177.848C324.155 178.806 322.842 180.428 322.271 182.354C321.7 184.281 321.918 186.356 322.876 188.122C323.835 189.889 325.456 191.202 327.383 191.773C329.31 192.344 331.384 192.126 333.151 191.168Z" fill="url(#paint19_radial_19_3399)"/>
<path d="M322.404 386.703H346.309V406.655H322.404V386.703Z" fill="url(#paint20_radial_19_3399)"/>
<path d="M96.9668 386.703H120.872V406.655H96.9668V386.703Z" fill="url(#paint21_radial_19_3399)"/>
<path d="M110.822 266.725C110.822 258.511 117.489 251.844 125.703 251.844H206.989C215.203 251.844 221.87 258.511 221.87 266.725V346.892H110.822V266.725Z" fill="#908AE6"/>
<path d="M110.822 266.725C110.822 258.511 117.489 251.844 125.703 251.844H206.989C215.203 251.844 221.87 258.511 221.87 266.725V346.892H110.822V266.725Z" fill="url(#paint22_linear_19_3399)"/>
<path d="M110.822 266.725C110.822 258.511 117.489 251.844 125.703 251.844H206.989C215.203 251.844 221.87 258.511 221.87 266.725V346.892H110.822V266.725Z" fill="url(#paint23_linear_19_3399)" fill-opacity="0.6"/>
<path d="M110.822 266.725C110.822 258.511 117.489 251.844 125.703 251.844H206.989C215.203 251.844 221.87 258.511 221.87 266.725V346.892H110.822V266.725Z" fill="url(#paint24_linear_19_3399)"/>
<path d="M110.822 266.725C110.822 258.511 117.489 251.844 125.703 251.844H206.989C215.203 251.844 221.87 258.511 221.87 266.725V346.892H110.822V266.725Z" fill="url(#paint25_linear_19_3399)"/>
<path d="M110.822 266.725C110.822 258.511 117.489 251.844 125.703 251.844H206.989C215.203 251.844 221.87 258.511 221.87 266.725V346.892H110.822V266.725Z" fill="url(#paint26_linear_19_3399)" fill-opacity="0.7"/>
<path d="M332.917 266.725C332.917 258.511 326.25 251.844 318.036 251.844H236.75C228.536 251.844 221.869 258.511 221.869 266.725V346.892H332.917V266.725Z" fill="#908AE6"/>
<path d="M332.917 266.725C332.917 258.511 326.25 251.844 318.036 251.844H236.75C228.536 251.844 221.869 258.511 221.869 266.725V346.892H332.917V266.725Z" fill="url(#paint27_linear_19_3399)"/>
<path d="M332.917 266.725C332.917 258.511 326.25 251.844 318.036 251.844H236.75C228.536 251.844 221.869 258.511 221.869 266.725V346.892H332.917V266.725Z" fill="url(#paint28_linear_19_3399)" fill-opacity="0.5"/>
<path d="M332.917 266.725C332.917 258.511 326.25 251.844 318.036 251.844H236.75C228.536 251.844 221.869 258.511 221.869 266.725V346.892H332.917V266.725Z" fill="url(#paint29_linear_19_3399)"/>
<path d="M332.917 266.725C332.917 258.511 326.25 251.844 318.036 251.844H236.75C228.536 251.844 221.869 258.511 221.869 266.725V346.892H332.917V266.725Z" fill="url(#paint30_linear_19_3399)" fill-opacity="0.5"/>
<path d="M332.917 266.725C332.917 258.511 326.25 251.844 318.036 251.844H236.75C228.536 251.844 221.869 258.511 221.869 266.725V346.892H332.917V266.725Z" fill="url(#paint31_linear_19_3399)" fill-opacity="0.7"/>
<path d="M332.917 266.725C332.917 258.511 326.25 251.844 318.036 251.844H236.75C228.536 251.844 221.869 258.511 221.869 266.725V346.892H332.917V266.725Z" fill="url(#paint32_linear_19_3399)" fill-opacity="0.8"/>
<path d="M332.917 266.725C332.917 258.511 326.25 251.844 318.036 251.844H236.75C228.536 251.844 221.869 258.511 221.869 266.725V346.892H332.917V266.725Z" fill="url(#paint33_radial_19_3399)"/>
<g filter="url(#filter4_i_19_3399)">
<path d="M112.584 339.365H330.679V382.139C330.679 385.296 329.425 388.324 327.192 390.557C324.96 392.79 321.932 394.044 318.774 394.044H124.501C121.343 394.044 118.315 392.79 116.083 390.557C113.85 388.324 112.596 385.296 112.596 382.139V339.377L112.584 339.365Z" fill="#847ED9"/>
<path d="M112.584 339.365H330.679V382.139C330.679 385.296 329.425 388.324 327.192 390.557C324.96 392.79 321.932 394.044 318.774 394.044H124.501C121.343 394.044 118.315 392.79 116.083 390.557C113.85 388.324 112.596 385.296 112.596 382.139V339.377L112.584 339.365Z" fill="url(#paint34_linear_19_3399)"/>
</g>
<g filter="url(#filter5_ii_19_3399)">
<path d="M84.7873 311.181C84.7873 305.804 86.9233 300.647 90.7254 296.845C94.5274 293.043 99.6842 290.907 105.061 290.907C110.438 290.907 115.595 293.043 119.397 296.845C123.199 300.647 125.335 305.804 125.335 311.181V382.145C125.335 385.302 124.081 388.33 121.848 390.563C119.616 392.795 116.587 394.05 113.43 394.05H96.6802C93.5228 394.05 90.4948 392.795 88.2622 390.563C86.0296 388.33 84.7754 385.302 84.7754 382.145V311.192L84.7873 311.181Z" fill="#948EEC"/>
</g>
<g filter="url(#filter6_f_19_3399)">
<path d="M129.799 265.04H205.311C206.1 265.04 206.857 265.354 207.415 265.912C207.973 266.47 208.287 267.227 208.287 268.016V334.052" stroke="url(#paint35_linear_19_3399)" stroke-width="0.714286" stroke-linecap="round"/>
</g>
<g filter="url(#filter7_f_19_3399)">
<path d="M241.215 264.855H316.739C317.528 264.855 318.285 265.169 318.843 265.727C319.401 266.285 319.715 267.042 319.715 267.832V333.879" stroke="url(#paint36_linear_19_3399)" stroke-width="0.714286" stroke-linecap="round"/>
</g>
<g filter="url(#filter8_ii_19_3399)">
<path d="M316.084 311.181C316.084 305.804 318.22 300.647 322.022 296.845C325.824 293.043 330.981 290.907 336.358 290.907C341.735 290.907 346.891 293.043 350.694 296.845C354.496 300.647 356.632 305.804 356.632 311.181V382.145C356.632 385.302 355.377 388.33 353.145 390.563C350.912 392.795 347.884 394.05 344.727 394.05H327.989C324.831 394.05 321.803 392.795 319.571 390.563C317.338 388.33 316.084 385.302 316.084 382.145V311.181Z" fill="#948EEC"/>
</g>
<g filter="url(#filter9_f_19_3399)">
<path d="M129.799 346.887H316.001V352.101H129.799V346.887Z" fill="#948EEC"/>
</g>
<g filter="url(#filter10_f_19_3399)">
<path d="M104.5 307.461C104.5 305.783 105.167 304.174 106.353 302.987C107.54 301.8 109.149 301.134 110.828 301.134C112.506 301.134 114.115 301.8 115.302 302.987C116.488 304.174 117.155 305.783 117.155 307.461V380.747H104.488V307.473L104.5 307.461Z" fill="url(#paint37_linear_19_3399)"/>
</g>
<g filter="url(#filter11_f_19_3399)">
<path d="M336.357 307.461C336.357 305.783 337.024 304.174 338.211 302.987C339.397 301.8 341.007 301.134 342.685 301.134C344.363 301.134 345.972 301.8 347.159 302.987C348.346 304.174 349.012 305.783 349.012 307.461V380.747H336.357V307.461Z" fill="url(#paint38_linear_19_3399)"/>
</g>
<g filter="url(#filter12_ii_19_3399)">
<path d="M330.727 96.6853V40.8458C330.727 31.1129 334.593 21.7787 341.476 14.8965C348.359 8.01432 357.694 4.14795 367.428 4.14795H381.814C391.548 4.14795 400.883 8.01432 407.766 14.8965C414.649 21.7787 418.515 31.1129 418.515 40.8458V387.068" stroke="#FFFEFF" stroke-width="0.792707"/>
</g>
<path d="M330.732 96.6829V40.8434C330.732 31.1105 334.599 21.7763 341.482 14.8941C348.365 8.01188 357.7 4.14551 367.433 4.14551H381.82C391.554 4.14551 400.889 8.01188 407.772 14.8941C414.654 21.7763 418.521 31.1105 418.521 40.8434V387.066" stroke="url(#paint39_radial_19_3399)" stroke-width="0.792707"/>
<g filter="url(#filter13_f_19_3399)">
<path d="M330.727 96.6853V40.8458C330.727 20.5739 347.374 4.14795 367.927 4.14795H382.519C403.072 4.14795 419.719 20.5739 419.719 40.8458V387.068" stroke="url(#paint40_radial_19_3399)" stroke-width="0.264236"/>
<path d="M330.727 96.6853V40.8458C330.727 20.5739 347.374 4.14795 367.927 4.14795H382.519C403.072 4.14795 419.719 20.5739 419.719 40.8458V387.068" stroke="url(#paint41_linear_19_3399)" stroke-width="0.264236"/>
</g>
<g filter="url(#filter14_i_19_3399)">
<path d="M330.836 55.1699C317.24 55.1699 304.201 60.5705 294.587 70.1835C284.973 79.7965 279.572 92.8346 279.572 106.43V146.915C279.572 153.006 284.505 157.924 290.583 157.924H371.09C374.01 157.924 376.81 156.764 378.875 154.699C380.94 152.635 382.1 149.834 382.1 146.915V106.43C382.1 92.8346 376.699 79.7965 367.085 70.1835C357.471 60.5705 344.432 55.1699 330.836 55.1699Z" fill="url(#paint42_linear_19_3399)"/>
<path d="M330.836 55.1699C317.24 55.1699 304.201 60.5705 294.587 70.1835C284.973 79.7965 279.572 92.8346 279.572 106.43V146.915C279.572 153.006 284.505 157.924 290.583 157.924H371.09C374.01 157.924 376.81 156.764 378.875 154.699C380.94 152.635 382.1 149.834 382.1 146.915V106.43C382.1 92.8346 376.699 79.7965 367.085 70.1835C357.471 60.5705 344.432 55.1699 330.836 55.1699Z" fill="url(#paint43_linear_19_3399)"/>
<path d="M330.836 55.1699C317.24 55.1699 304.201 60.5705 294.587 70.1835C284.973 79.7965 279.572 92.8346 279.572 106.43V146.915C279.572 153.006 284.505 157.924 290.583 157.924H371.09C374.01 157.924 376.81 156.764 378.875 154.699C380.94 152.635 382.1 149.834 382.1 146.915V106.43C382.1 92.8346 376.699 79.7965 367.085 70.1835C357.471 60.5705 344.432 55.1699 330.836 55.1699Z" fill="url(#paint44_radial_19_3399)"/>
</g>
<path d="M381.953 399.648C381.101 403.684 384.478 407.105 388.603 407.105H449.071C453.182 407.105 456.558 403.684 455.722 399.648C451.978 381.842 436.681 368.513 418.8 368.513C400.934 368.513 385.667 381.842 381.953 399.648Z" fill="url(#paint45_radial_19_3399)"/>
<path d="M381.953 399.648C381.101 403.684 384.478 407.105 388.603 407.105H449.071C453.182 407.105 456.558 403.684 455.722 399.648C451.978 381.842 436.681 368.513 418.8 368.513C400.934 368.513 385.667 381.842 381.953 399.648Z" fill="url(#paint46_radial_19_3399)"/>
<path d="M381.953 399.648C381.101 403.684 384.478 407.105 388.603 407.105H449.071C453.182 407.105 456.558 403.684 455.722 399.648C451.978 381.842 436.681 368.513 418.8 368.513C400.934 368.513 385.667 381.842 381.953 399.648Z" fill="url(#paint47_linear_19_3399)"/>
<path d="M381.953 399.648C381.101 403.684 384.478 407.105 388.603 407.105H449.071C453.182 407.105 456.558 403.684 455.722 399.648C451.978 381.842 436.681 368.513 418.8 368.513C400.934 368.513 385.667 381.842 381.953 399.648Z" fill="url(#paint48_radial_19_3399)"/>
<g filter="url(#filter15_iii_19_3399)">
<path fill-rule="evenodd" clip-rule="evenodd" d="M10.4301 110.863C0.53104 113.512 -1.22762 126.817 7.64862 131.942L104.835 188.052C107.037 189.323 109.654 189.668 112.11 189.01C114.566 188.352 116.661 186.745 117.932 184.543L173.982 87.4602C179.105 78.5881 170.944 67.948 161.043 70.5904L10.4301 110.863ZM99.3233 152.775L70.6229 136.205C70.0068 135.848 69.5103 135.317 69.1964 134.678C68.8825 134.039 68.7653 133.322 68.8596 132.616C68.9539 131.91 69.2556 131.249 69.7263 130.715C70.197 130.181 70.8156 129.799 71.5037 129.617L116.638 117.723C117.324 117.542 118.049 117.569 118.72 117.799C119.392 118.03 119.98 118.454 120.411 119.018C120.842 119.582 121.096 120.262 121.141 120.97C121.186 121.679 121.021 122.385 120.666 122.999L104.232 151.463C103.756 152.289 102.97 152.891 102.049 153.138C101.128 153.385 100.149 153.252 99.3233 152.775Z" fill="url(#paint49_linear_19_3399)"/>
</g>
<path d="M16.8364 109.146L20.2423 121.857C20.4168 122.508 20.3254 123.202 19.9883 123.786C19.6512 124.37 19.0959 124.796 18.4446 124.971C17.7933 125.145 17.0993 125.054 16.5154 124.717C15.9314 124.38 15.5053 123.824 15.3308 123.173L11.9315 110.461L16.843 109.145L16.8364 109.146ZM47.6946 100.895L51.0285 113.338C51.2031 113.989 51.6292 114.544 52.2131 114.882C52.797 115.219 53.491 115.31 54.1423 115.136C54.7936 114.961 55.3489 114.535 55.686 113.951C56.0232 113.367 56.1145 112.673 55.94 112.022L52.6061 99.5794L47.6946 100.895ZM83.5143 91.3186L86.7868 103.532C86.9657 104.177 87.3923 104.726 87.9736 105.058C88.555 105.391 89.2441 105.48 89.8911 105.307C90.5381 105.135 91.0907 104.713 91.4287 104.135C91.7667 103.557 91.8627 102.869 91.6958 102.22L88.4233 90.0068L83.5143 91.3186ZM119.485 81.7015L122.739 93.8492C122.914 94.5005 123.34 95.0558 123.924 95.3929C124.508 95.73 125.202 95.8214 125.853 95.6469C126.505 95.4724 127.06 95.0463 127.397 94.4623C127.734 93.8784 127.825 93.1845 127.651 92.5332L124.394 80.3896L119.482 81.7056L119.485 81.7015ZM155.049 72.1931L158.28 84.2664C158.367 84.5889 158.516 84.8912 158.719 85.1561C158.922 85.4209 159.176 85.6432 159.465 85.8101C159.754 85.9771 160.073 86.0854 160.404 86.129C160.735 86.1726 161.072 86.1505 161.394 86.0641C161.717 85.9777 162.019 85.8286 162.284 85.6254C162.549 85.4221 162.771 85.1687 162.938 84.8796C163.105 84.5904 163.213 84.2712 163.257 83.9402C163.3 83.6092 163.278 83.2729 163.192 82.9504L159.958 70.8813L155.046 72.1973L155.049 72.1931ZM138.359 82.0204C138.185 81.3691 138.276 80.6752 138.613 80.0912C138.95 79.5073 139.506 79.0812 140.157 78.9067C140.808 78.7322 141.502 78.8235 142.086 79.1606C142.67 79.4978 143.096 80.0531 143.271 80.7044L144.583 85.6135C144.669 85.9359 144.691 86.2723 144.647 86.6033C144.604 86.9343 144.496 87.2535 144.329 87.5426C144.162 87.8318 143.939 88.0852 143.675 88.2884C143.41 88.4917 143.107 88.6408 142.785 88.7272C142.462 88.8136 142.126 88.8357 141.795 88.7921C141.464 88.7485 141.145 88.6401 140.856 88.4732C140.567 88.3063 140.313 88.084 140.11 87.8192C139.907 87.5543 139.758 87.252 139.671 86.9295L138.355 82.018L138.359 82.0204ZM102.627 91.3211C102.453 90.6698 102.544 89.9758 102.881 89.3919C103.218 88.808 103.773 88.3819 104.425 88.2073C105.076 88.0328 105.77 88.1242 106.354 88.4613C106.938 88.7985 107.364 89.3538 107.539 90.0051L108.855 94.9165C109.029 95.5678 108.938 96.2618 108.601 96.8457C108.263 97.4297 107.708 97.8558 107.057 98.0303C106.406 98.2048 105.712 98.1134 105.128 97.7763C104.544 97.4392 104.118 96.8839 103.943 96.2326L102.627 91.3211ZM66.8815 100.952C66.7951 100.629 66.7731 100.293 66.8166 99.9619C66.8602 99.6309 66.9686 99.3117 67.1355 99.0225C67.3024 98.7334 67.5247 98.48 67.7896 98.2767C68.0544 98.0735 68.3567 97.9244 68.6792 97.838C69.0017 97.7516 69.3381 97.7295 69.6691 97.7731C70.0001 97.8167 70.3193 97.925 70.6084 98.092C70.8976 98.2589 71.151 98.4811 71.3542 98.746C71.5575 99.0109 71.7066 99.3132 71.793 99.6357L73.109 104.547C73.1954 104.87 73.2175 105.206 73.1739 105.537C73.1303 105.868 73.022 106.187 72.855 106.476C72.6881 106.765 72.4658 107.019 72.201 107.222C71.9361 107.425 71.6338 107.574 71.3113 107.661C70.9888 107.747 70.6524 107.769 70.3214 107.726C69.9904 107.682 69.6712 107.574 69.3821 107.407C69.093 107.24 68.8395 107.018 68.6363 106.753C68.433 106.488 68.2839 106.186 68.1975 105.863L66.8815 100.952ZM31.0952 110.653C30.9207 110.002 31.0121 109.308 31.3492 108.724C31.6863 108.14 32.2416 107.714 32.8929 107.539C33.5442 107.365 34.2382 107.456 34.8221 107.793C35.4061 108.13 35.8322 108.686 36.0067 109.337L37.3227 114.248C37.4972 114.9 37.4058 115.594 37.0687 116.178C36.7316 116.762 36.1763 117.188 35.525 117.362C34.8737 117.537 34.1797 117.445 33.5958 117.108C33.0118 116.771 32.5857 116.216 32.4112 115.564L31.0952 110.653Z" fill="#7970F4"/>
<g clip-path="url(#clip0_19_3399)">
<g filter="url(#filter16_i_19_3399)">
<path d="M142.588 284.443C142.419 283.417 142.457 282.368 142.699 281.356C142.94 280.345 143.381 279.392 143.995 278.552C144.609 277.713 145.384 277.004 146.275 276.468C147.165 275.931 148.154 275.578 149.183 275.427C150.212 275.277 151.261 275.333 152.268 275.592C153.275 275.851 154.22 276.309 155.048 276.937C155.877 277.566 156.572 278.353 157.093 279.253C157.614 280.153 157.95 281.148 158.083 282.179L159.385 291.094C159.496 291.855 159.555 292.621 159.548 293.397C159.546 293.679 159.542 293.963 159.557 294.243C159.599 295.127 159.869 296.252 160.575 296.931L159.356 298.504C163.236 299.825 166.675 302.193 169.294 305.346C171.913 308.499 173.609 312.314 174.195 316.37C174.534 318.691 174.503 320.982 174.148 323.177L174.042 338.85L154.954 341.639L154.953 341.632C143.129 343.1 132.549 336.797 130.498 322.756C129.292 314.503 132.272 307.282 137.704 302.662L137.686 302.653C138.052 302.31 138.49 301.953 138.961 301.569L138.963 301.566C140.511 300.303 142.403 298.756 143.197 296.566C143.889 294.665 143.655 291.78 143.461 290.456L143.466 290.455L142.588 284.443Z" fill="url(#paint50_linear_19_3399)"/>
</g>
<path d="M142.588 284.446C142.419 283.42 142.457 282.371 142.699 281.36C142.94 280.348 143.381 279.395 143.995 278.556C144.609 277.716 145.384 277.008 146.275 276.471C147.165 275.935 148.154 275.581 149.183 275.431C150.212 275.28 151.261 275.336 152.268 275.596C153.275 275.855 154.22 276.312 155.048 276.941C155.877 277.569 156.572 278.356 157.093 279.256C157.614 280.156 157.95 281.151 158.083 282.182L159.385 291.097C159.496 291.858 159.555 292.624 159.548 293.4C159.546 293.682 159.542 293.967 159.557 294.246C159.599 295.13 159.869 296.255 160.575 296.934L159.356 298.508C163.236 299.829 166.675 302.196 169.294 305.349C171.913 308.502 173.609 312.318 174.195 316.374C174.534 318.694 174.503 320.985 174.148 323.181L174.042 338.854L154.954 341.643L154.953 341.636C143.129 343.104 132.549 336.8 130.498 322.759C129.292 314.506 132.272 307.285 137.704 302.665L137.686 302.656C138.052 302.314 138.49 301.956 138.961 301.572L138.963 301.569C140.511 300.306 142.403 298.759 143.197 296.569C143.889 294.668 143.655 291.784 143.461 290.46L143.466 290.459L142.588 284.446Z" fill="url(#paint51_radial_19_3399)"/>
<path d="M142.588 284.446C142.419 283.42 142.457 282.371 142.699 281.36C142.94 280.348 143.381 279.395 143.995 278.556C144.609 277.716 145.384 277.008 146.275 276.471C147.165 275.935 148.154 275.581 149.183 275.431C150.212 275.28 151.261 275.336 152.268 275.596C153.275 275.855 154.22 276.312 155.048 276.941C155.877 277.569 156.572 278.356 157.093 279.256C157.614 280.156 157.95 281.151 158.083 282.182L159.385 291.097C159.496 291.858 159.555 292.624 159.548 293.4C159.546 293.682 159.542 293.967 159.557 294.246C159.599 295.13 159.869 296.255 160.575 296.934L159.356 298.508C163.236 299.829 166.675 302.196 169.294 305.349C171.913 308.502 173.609 312.318 174.195 316.374C174.534 318.694 174.503 320.985 174.148 323.181L174.042 338.854L154.954 341.643L154.953 341.636C143.129 343.104 132.549 336.8 130.498 322.759C129.292 314.506 132.272 307.285 137.704 302.665L137.686 302.656C138.052 302.314 138.49 301.956 138.961 301.572L138.963 301.569C140.511 300.306 142.403 298.759 143.197 296.569C143.889 294.668 143.655 291.784 143.461 290.46L143.466 290.459L142.588 284.446Z" fill="url(#paint52_radial_19_3399)"/>
<path d="M142.588 284.446C142.419 283.42 142.457 282.371 142.699 281.36C142.94 280.348 143.381 279.395 143.995 278.556C144.609 277.716 145.384 277.008 146.275 276.471C147.165 275.935 148.154 275.581 149.183 275.431C150.212 275.28 151.261 275.336 152.268 275.596C153.275 275.855 154.22 276.312 155.048 276.941C155.877 277.569 156.572 278.356 157.093 279.256C157.614 280.156 157.95 281.151 158.083 282.182L159.385 291.097C159.496 291.858 159.555 292.624 159.548 293.4C159.546 293.682 159.542 293.967 159.557 294.246C159.599 295.13 159.869 296.255 160.575 296.934L159.356 298.508C163.236 299.829 166.675 302.196 169.294 305.349C171.913 308.502 173.609 312.318 174.195 316.374C174.534 318.694 174.503 320.985 174.148 323.181L174.042 338.854L154.954 341.643L154.953 341.636C143.129 343.104 132.549 336.8 130.498 322.759C129.292 314.506 132.272 307.285 137.704 302.665L137.686 302.656C138.052 302.314 138.49 301.956 138.961 301.572L138.963 301.569C140.511 300.306 142.403 298.759 143.197 296.569C143.889 294.668 143.655 291.784 143.461 290.46L143.466 290.459L142.588 284.446Z" fill="url(#paint53_radial_19_3399)"/>
<path d="M142.588 284.446C142.419 283.42 142.457 282.371 142.699 281.36C142.94 280.348 143.381 279.395 143.995 278.556C144.609 277.716 145.384 277.008 146.275 276.471C147.165 275.935 148.154 275.581 149.183 275.431C150.212 275.28 151.261 275.336 152.268 275.596C153.275 275.855 154.22 276.312 155.048 276.941C155.877 277.569 156.572 278.356 157.093 279.256C157.614 280.156 157.95 281.151 158.083 282.182L159.385 291.097C159.496 291.858 159.555 292.624 159.548 293.4C159.546 293.682 159.542 293.967 159.557 294.246C159.599 295.13 159.869 296.255 160.575 296.934L159.356 298.508C163.236 299.829 166.675 302.196 169.294 305.349C171.913 308.502 173.609 312.318 174.195 316.374C174.534 318.694 174.503 320.985 174.148 323.181L174.042 338.854L154.954 341.643L154.953 341.636C143.129 343.104 132.549 336.8 130.498 322.759C129.292 314.506 132.272 307.285 137.704 302.665L137.686 302.656C138.052 302.314 138.49 301.956 138.961 301.572L138.963 301.569C140.511 300.306 142.403 298.759 143.197 296.569C143.889 294.668 143.655 291.784 143.461 290.46L143.466 290.459L142.588 284.446Z" fill="url(#paint54_radial_19_3399)"/>
<path d="M142.588 284.446C142.419 283.42 142.457 282.371 142.699 281.36C142.94 280.348 143.381 279.395 143.995 278.556C144.609 277.716 145.384 277.008 146.275 276.471C147.165 275.935 148.154 275.581 149.183 275.431C150.212 275.28 151.261 275.336 152.268 275.596C153.275 275.855 154.22 276.312 155.048 276.941C155.877 277.569 156.572 278.356 157.093 279.256C157.614 280.156 157.95 281.151 158.083 282.182L159.385 291.097C159.496 291.858 159.555 292.624 159.548 293.4C159.546 293.682 159.542 293.967 159.557 294.246C159.599 295.13 159.869 296.255 160.575 296.934L159.356 298.508C163.236 299.829 166.675 302.196 169.294 305.349C171.913 308.502 173.609 312.318 174.195 316.374C174.534 318.694 174.503 320.985 174.148 323.181L174.042 338.854L154.954 341.643L154.953 341.636C143.129 343.104 132.549 336.8 130.498 322.759C129.292 314.506 132.272 307.285 137.704 302.665L137.686 302.656C138.052 302.314 138.49 301.956 138.961 301.572L138.963 301.569C140.511 300.306 142.403 298.759 143.197 296.569C143.889 294.668 143.655 291.784 143.461 290.46L143.466 290.459L142.588 284.446Z" fill="url(#paint55_radial_19_3399)"/>
<path d="M142.588 284.446C142.419 283.42 142.457 282.371 142.699 281.36C142.94 280.348 143.381 279.395 143.995 278.556C144.609 277.716 145.384 277.008 146.275 276.471C147.165 275.935 148.154 275.581 149.183 275.431C150.212 275.28 151.261 275.336 152.268 275.596C153.275 275.855 154.22 276.312 155.048 276.941C155.877 277.569 156.572 278.356 157.093 279.256C157.614 280.156 157.95 281.151 158.083 282.182L159.385 291.097C159.496 291.858 159.555 292.624 159.548 293.4C159.546 293.682 159.542 293.967 159.557 294.246C159.599 295.13 159.869 296.255 160.575 296.934L159.356 298.508C163.236 299.829 166.675 302.196 169.294 305.349C171.913 308.502 173.609 312.318 174.195 316.374C174.534 318.694 174.503 320.985 174.148 323.181L174.042 338.854L154.954 341.643L154.953 341.636C143.129 343.104 132.549 336.8 130.498 322.759C129.292 314.506 132.272 307.285 137.704 302.665L137.686 302.656C138.052 302.314 138.49 301.956 138.961 301.572L138.963 301.569C140.511 300.306 142.403 298.759 143.197 296.569C143.889 294.668 143.655 291.784 143.461 290.46L143.466 290.459L142.588 284.446Z" fill="url(#paint56_radial_19_3399)"/>
<path d="M142.588 284.446C142.419 283.42 142.457 282.371 142.699 281.36C142.94 280.348 143.381 279.395 143.995 278.556C144.609 277.716 145.384 277.008 146.275 276.471C147.165 275.935 148.154 275.581 149.183 275.431C150.212 275.28 151.261 275.336 152.268 275.596C153.275 275.855 154.22 276.312 155.048 276.941C155.877 277.569 156.572 278.356 157.093 279.256C157.614 280.156 157.95 281.151 158.083 282.182L159.385 291.097C159.496 291.858 159.555 292.624 159.548 293.4C159.546 293.682 159.542 293.967 159.557 294.246C159.599 295.13 159.869 296.255 160.575 296.934L159.356 298.508C163.236 299.829 166.675 302.196 169.294 305.349C171.913 308.502 173.609 312.318 174.195 316.374C174.534 318.694 174.503 320.985 174.148 323.181L174.042 338.854L154.954 341.643L154.953 341.636C143.129 343.104 132.549 336.8 130.498 322.759C129.292 314.506 132.272 307.285 137.704 302.665L137.686 302.656C138.052 302.314 138.49 301.956 138.961 301.572L138.963 301.569C140.511 300.306 142.403 298.759 143.197 296.569C143.889 294.668 143.655 291.784 143.461 290.46L143.466 290.459L142.588 284.446Z" fill="url(#paint57_linear_19_3399)"/>
<g filter="url(#filter17_f_19_3399)">
<path d="M172.768 303.03C172.535 301.436 171.677 300 170.385 299.038C169.093 298.076 167.472 297.666 165.878 297.899L159.22 298.872C157.986 299.052 156.838 299.609 155.931 300.464C155.024 301.32 154.402 302.435 154.15 303.656C153.898 304.877 154.028 306.147 154.522 307.292C155.017 308.437 155.851 309.402 156.913 310.056C156.27 310.705 155.782 311.491 155.484 312.354C155.187 313.218 155.087 314.138 155.193 315.045C155.299 315.952 155.608 316.824 156.097 317.596C156.585 318.367 157.241 319.019 158.016 319.503C157.432 320.164 156.999 320.944 156.748 321.79C156.497 322.635 156.433 323.525 156.561 324.398L156.604 324.695C156.845 326.344 157.725 327.739 158.958 328.668C158.253 329.604 157.842 330.728 157.778 331.898C157.713 333.068 157.997 334.231 158.595 335.239C159.192 336.247 160.076 337.055 161.133 337.56C162.191 338.065 163.375 338.244 164.534 338.075L171.14 337.109C172.168 336.959 173.138 336.541 173.953 335.897C174.768 335.252 175.399 334.404 175.782 333.439C176.165 332.473 176.286 331.423 176.135 330.396C175.983 329.368 175.563 328.398 174.917 327.585C175.884 326.95 176.649 326.052 177.123 324.996C177.598 323.941 177.761 322.773 177.593 321.628L177.55 321.331C177.278 319.47 176.187 317.933 174.702 317.024C175.364 316.255 175.823 315.334 176.039 314.343C176.254 313.352 176.219 312.323 175.937 311.349C175.654 310.375 175.133 309.487 174.421 308.765C173.708 308.043 172.827 307.511 171.857 307.216C172.63 306.02 172.99 304.55 172.768 303.03Z" fill="url(#paint58_linear_19_3399)"/>
</g>
<g filter="url(#filter18_i_19_3399)">
<path d="M171.911 307.578C175.698 307.025 178.319 303.507 177.765 299.721C177.212 295.934 173.694 293.313 169.908 293.867L162.315 294.976C158.528 295.529 155.908 299.047 156.461 302.834C157.014 306.62 160.532 309.241 164.318 308.688L171.911 307.578Z" fill="url(#paint59_linear_19_3399)"/>
<path d="M171.911 307.578C175.698 307.025 178.319 303.507 177.765 299.721C177.212 295.934 173.694 293.313 169.908 293.867L162.315 294.976C158.528 295.529 155.908 299.047 156.461 302.834C157.014 306.62 160.532 309.241 164.318 308.688L171.911 307.578Z" fill="url(#paint60_radial_19_3399)"/>
<path d="M171.911 307.578C175.698 307.025 178.319 303.507 177.765 299.721C177.212 295.934 173.694 293.313 169.908 293.867L162.315 294.976C158.528 295.529 155.908 299.047 156.461 302.834C157.014 306.62 160.532 309.241 164.318 308.688L171.911 307.578Z" fill="url(#paint61_radial_19_3399)"/>
</g>
<g filter="url(#filter19_f_19_3399)">
<path d="M172.016 296.999L163.487 298.245C161.85 298.484 160.717 300.005 160.956 301.642C161.196 303.279 162.716 304.412 164.353 304.173L172.882 302.927C174.519 302.687 175.652 301.167 175.412 299.53C175.173 297.893 173.652 296.76 172.016 296.999Z" fill="url(#paint62_linear_19_3399)"/>
</g>
<g filter="url(#filter20_i_19_3399)">
<path d="M175.905 338.59C179.59 338.051 182.14 334.628 181.602 330.943C181.063 327.258 177.64 324.707 173.955 325.246L166.423 326.346C162.738 326.885 160.188 330.309 160.726 333.993C161.264 337.678 164.688 340.229 168.373 339.69L175.905 338.59Z" fill="url(#paint63_linear_19_3399)"/>
<path d="M175.905 338.59C179.59 338.051 182.14 334.628 181.602 330.943C181.063 327.258 177.64 324.707 173.955 325.246L166.423 326.346C162.738 326.885 160.188 330.309 160.726 333.993C161.264 337.678 164.688 340.229 168.373 339.69L175.905 338.59Z" fill="url(#paint64_radial_19_3399)"/>
<path d="M175.905 338.59C179.59 338.051 182.14 334.628 181.602 330.943C181.063 327.258 177.64 324.707 173.955 325.246L166.423 326.346C162.738 326.885 160.188 330.309 160.726 333.993C161.264 337.678 164.688 340.229 168.373 339.69L175.905 338.59Z" fill="url(#paint65_radial_19_3399)"/>
</g>
<g filter="url(#filter21_f_19_3399)">
<path d="M177.903 328.71L168.729 330.05C167.769 330.19 167.104 331.083 167.244 332.043C167.385 333.003 168.277 333.668 169.237 333.528L178.411 332.187C179.371 332.047 180.036 331.155 179.896 330.194C179.755 329.234 178.863 328.569 177.903 328.71Z" fill="url(#paint66_linear_19_3399)"/>
</g>
<g filter="url(#filter22_i_19_3399)">
<path d="M183.26 320.935L183.211 320.596C182.657 316.81 179.14 314.189 175.353 314.742L165.131 316.236C161.345 316.789 158.724 320.307 159.277 324.093L159.326 324.432C159.88 328.219 163.398 330.84 167.184 330.286L177.406 328.793C181.193 328.24 183.814 324.722 183.26 320.935Z" fill="url(#paint67_linear_19_3399)"/>
<path d="M183.26 320.935L183.211 320.596C182.657 316.81 179.14 314.189 175.353 314.742L165.131 316.236C161.345 316.789 158.724 320.307 159.277 324.093L159.326 324.432C159.88 328.219 163.398 330.84 167.184 330.286L177.406 328.793C181.193 328.24 183.814 324.722 183.26 320.935Z" fill="url(#paint68_radial_19_3399)"/>
<path d="M183.26 320.935L183.211 320.596C182.657 316.81 179.14 314.189 175.353 314.742L165.131 316.236C161.345 316.789 158.724 320.307 159.277 324.093L159.326 324.432C159.88 328.219 163.398 330.84 167.184 330.286L177.406 328.793C181.193 328.24 183.814 324.722 183.26 320.935Z" fill="url(#paint69_radial_19_3399)"/>
</g>
<g filter="url(#filter23_f_19_3399)">
<path d="M178.843 319.273L166.477 321.08C165.517 321.221 164.852 322.113 164.992 323.073C165.133 324.033 166.025 324.698 166.985 324.558L179.351 322.751C180.312 322.611 180.976 321.718 180.836 320.758C180.696 319.798 179.803 319.133 178.843 319.273Z" fill="url(#paint70_linear_19_3399)"/>
</g>
<g filter="url(#filter24_i_19_3399)">
<path d="M181.582 310.149L181.578 310.118C181.025 306.332 177.507 303.711 173.72 304.264L163.604 305.743C159.818 306.296 157.197 309.814 157.75 313.6L157.755 313.631C158.308 317.417 161.826 320.038 165.612 319.485L175.728 318.007C179.515 317.453 182.136 313.935 181.582 310.149Z" fill="url(#paint71_linear_19_3399)"/>
<path d="M181.582 310.149L181.578 310.118C181.025 306.332 177.507 303.711 173.72 304.264L163.604 305.743C159.818 306.296 157.197 309.814 157.75 313.6L157.755 313.631C158.308 317.417 161.826 320.038 165.612 319.485L175.728 318.007C179.515 317.453 182.136 313.935 181.582 310.149Z" fill="url(#paint72_radial_19_3399)"/>
</g>
<g filter="url(#filter25_f_19_3399)">
<path d="M175.788 306.92L164.819 308.523C163.182 308.762 162.049 310.282 162.289 311.919C162.528 313.556 164.049 314.689 165.685 314.45L176.655 312.847C178.291 312.608 179.424 311.087 179.185 309.45C178.946 307.814 177.425 306.681 175.788 306.92Z" fill="url(#paint73_linear_19_3399)"/>
</g>
<path d="M149.233 275.563C147.178 275.863 145.326 276.967 144.086 278.633C142.845 280.298 142.316 282.388 142.617 284.443L143.495 290.456L143.49 290.456C143.684 291.78 143.918 294.665 143.228 296.566C142.432 298.756 140.54 300.303 138.994 301.564C138.521 301.95 138.083 302.31 137.717 302.653C140.335 304.188 145.683 307.24 145.788 307.133C145.892 307.026 150.878 303.369 153.355 301.551L153.005 299.942C155.015 299.593 156.81 298.473 158.007 296.821C159.205 295.168 159.709 293.113 159.414 291.094L158.112 282.179C157.811 280.125 156.707 278.273 155.042 277.033C153.377 275.792 151.288 275.263 149.233 275.563Z" fill="url(#paint74_radial_19_3399)"/>
<g filter="url(#filter26_f_19_3399)">
<path d="M155.845 280.441C155.62 278.899 154.187 277.832 152.645 278.057C151.103 278.282 150.036 279.715 150.261 281.257L152.199 294.513C152.424 296.055 153.856 297.123 155.398 296.897C156.94 296.672 158.007 295.239 157.782 293.698L155.845 280.441Z" fill="url(#paint75_linear_19_3399)"/>
</g>
</g>
<defs>
<filter id="filter0_f_19_3399" x="306.021" y="128.089" width="42.5017" height="42.5027" filterUnits="userSpaceOnUse" color-interpolation-filters="sRGB">
<feFlood flood-opacity="0" result="BackgroundImageFix"/>
<feBlend mode="normal" in="SourceGraphic" in2="BackgroundImageFix" result="shape"/>
<feGaussianBlur stdDeviation="0.714286" result="effect1_foregroundBlur_19_3399"/>
</filter>
<filter id="filter1_f_19_3399" x="306.882" y="128.943" width="40.7849" height="40.7854" filterUnits="userSpaceOnUse" color-interpolation-filters="sRGB">
<feFlood flood-opacity="0" result="BackgroundImageFix"/>
<feBlend mode="normal" in="SourceGraphic" in2="BackgroundImageFix" result="shape"/>
<feGaussianBlur stdDeviation="0.714286" result="effect1_foregroundBlur_19_3399"/>
</filter>
<filter id="filter2_f_19_3399" x="315.336" y="177.333" width="27.6465" height="27.646" filterUnits="userSpaceOnUse" color-interpolation-filters="sRGB">
<feFlood flood-opacity="0" result="BackgroundImageFix"/>
<feBlend mode="normal" in="SourceGraphic" in2="BackgroundImageFix" result="shape"/>
<feGaussianBlur stdDeviation="0.625" result="effect1_foregroundBlur_19_3399"/>
</filter>
<filter id="filter3_f_19_3399" x="287.08" y="169.014" width="20.9146" height="20.9146" filterUnits="userSpaceOnUse" color-interpolation-filters="sRGB">
<feFlood flood-opacity="0" result="BackgroundImageFix"/>
<feBlend mode="normal" in="SourceGraphic" in2="BackgroundImageFix" result="shape"/>
<feGaussianBlur stdDeviation="0.446429" result="effect1_foregroundBlur_19_3399"/>
</filter>
<filter id="filter4_i_19_3399" x="111.87" y="339.008" width="218.81" height="55.0359" filterUnits="userSpaceOnUse" color-interpolation-filters="sRGB">
<feFlood flood-opacity="0" result="BackgroundImageFix"/>
<feBlend mode="normal" in="SourceGraphic" in2="BackgroundImageFix" result="shape"/>
<feColorMatrix in="SourceAlpha" type="matrix" values="0 0 0 0 0 0 0 0 0 0 0 0 0 0 0 0 0 0 127 0" result="hardAlpha"/>
<feOffset dx="-0.714286" dy="-0.357143"/>
<feGaussianBlur stdDeviation="0.357143"/>
<feComposite in2="hardAlpha" operator="arithmetic" k2="-1" k3="1"/>
<feColorMatrix type="matrix" values="0 0 0 0 0.215686 0 0 0 0 0.32549 0 0 0 0 0.768627 0 0 0 1 0"/>
<feBlend mode="normal" in2="shape" result="effect1_innerShadow_19_3399"/>
</filter>
<filter id="filter5_ii_19_3399" x="84.7754" y="290.371" width="41.2729" height="103.679" filterUnits="userSpaceOnUse" color-interpolation-filters="sRGB">
<feFlood flood-opacity="0" result="BackgroundImageFix"/>
<feBlend mode="normal" in="SourceGraphic" in2="BackgroundImageFix" result="shape"/>
<feColorMatrix in="SourceAlpha" type="matrix" values="0 0 0 0 0 0 0 0 0 0 0 0 0 0 0 0 0 0 127 0" result="hardAlpha"/>
<feOffset dx="0.714286" dy="-0.535714"/>
<feGaussianBlur stdDeviation="0.446429"/>
<feComposite in2="hardAlpha" operator="arithmetic" k2="-1" k3="1"/>
<feColorMatrix type="matrix" values="0 0 0 0 0.203922 0 0 0 0 0.380392 0 0 0 0 0.745098 0 0 0 1 0"/>
<feBlend mode="normal" in2="shape" result="effect1_innerShadow_19_3399"/>
<feColorMatrix in="SourceAlpha" type="matrix" values="0 0 0 0 0 0 0 0 0 0 0 0 0 0 0 0 0 0 127 0" result="hardAlpha"/>
<feOffset dy="-0.357143"/>
<feGaussianBlur stdDeviation="0.446429"/>
<feComposite in2="hardAlpha" operator="arithmetic" k2="-1" k3="1"/>
<feColorMatrix type="matrix" values="0 0 0 0 0.235294 0 0 0 0 0.305882 0 0 0 0 0.733333 0 0 0 1 0"/>
<feBlend mode="normal" in2="effect1_innerShadow_19_3399" result="effect2_innerShadow_19_3399"/>
</filter>
<filter id="filter6_f_19_3399" x="129.084" y="264.326" width="79.9174" height="70.4404" filterUnits="userSpaceOnUse" color-interpolation-filters="sRGB">
<feFlood flood-opacity="0" result="BackgroundImageFix"/>
<feBlend mode="normal" in="SourceGraphic" in2="BackgroundImageFix" result="shape"/>
<feGaussianBlur stdDeviation="0.178571" result="effect1_foregroundBlur_19_3399"/>
</filter>
<filter id="filter7_f_19_3399" x="240.5" y="264.141" width="79.9291" height="70.4521" filterUnits="userSpaceOnUse" color-interpolation-filters="sRGB">
<feFlood flood-opacity="0" result="BackgroundImageFix"/>
<feBlend mode="normal" in="SourceGraphic" in2="BackgroundImageFix" result="shape"/>
<feGaussianBlur stdDeviation="0.178571" result="effect1_foregroundBlur_19_3399"/>
</filter>
<filter id="filter8_ii_19_3399" x="316.084" y="290.371" width="41.2612" height="103.679" filterUnits="userSpaceOnUse" color-interpolation-filters="sRGB">
<feFlood flood-opacity="0" result="BackgroundImageFix"/>
<feBlend mode="normal" in="SourceGraphic" in2="BackgroundImageFix" result="shape"/>
<feColorMatrix in="SourceAlpha" type="matrix" values="0 0 0 0 0 0 0 0 0 0 0 0 0 0 0 0 0 0 127 0" result="hardAlpha"/>
<feOffset dx="0.714286" dy="-0.535714"/>
<feGaussianBlur stdDeviation="0.446429"/>
<feComposite in2="hardAlpha" operator="arithmetic" k2="-1" k3="1"/>
<feColorMatrix type="matrix" values="0 0 0 0 0.203922 0 0 0 0 0.380392 0 0 0 0 0.745098 0 0 0 1 0"/>
<feBlend mode="normal" in2="shape" result="effect1_innerShadow_19_3399"/>
<feColorMatrix in="SourceAlpha" type="matrix" values="0 0 0 0 0 0 0 0 0 0 0 0 0 0 0 0 0 0 127 0" result="hardAlpha"/>
<feOffset dy="-0.357143"/>
<feGaussianBlur stdDeviation="0.446429"/>
<feComposite in2="hardAlpha" operator="arithmetic" k2="-1" k3="1"/>
<feColorMatrix type="matrix" values="0 0 0 0 0.235294 0 0 0 0 0.305882 0 0 0 0 0.733333 0 0 0 1 0"/>
<feBlend mode="normal" in2="effect1_innerShadow_19_3399" result="effect2_innerShadow_19_3399"/>
</filter>
<filter id="filter9_f_19_3399" x="129.442" y="346.53" width="186.917" height="5.92864" filterUnits="userSpaceOnUse" color-interpolation-filters="sRGB">
<feFlood flood-opacity="0" result="BackgroundImageFix"/>
<feBlend mode="normal" in="SourceGraphic" in2="BackgroundImageFix" result="shape"/>
<feGaussianBlur stdDeviation="0.178571" result="effect1_foregroundBlur_19_3399"/>
</filter>
<filter id="filter10_f_19_3399" x="103.953" y="300.598" width="13.7374" height="80.6847" filterUnits="userSpaceOnUse" color-interpolation-filters="sRGB">
<feFlood flood-opacity="0" result="BackgroundImageFix"/>
<feBlend mode="normal" in="SourceGraphic" in2="BackgroundImageFix" result="shape"/>
<feGaussianBlur stdDeviation="0.267857" result="effect1_foregroundBlur_19_3399"/>
</filter>
<filter id="filter11_f_19_3399" x="335.822" y="300.598" width="13.7257" height="80.6847" filterUnits="userSpaceOnUse" color-interpolation-filters="sRGB">
<feFlood flood-opacity="0" result="BackgroundImageFix"/>
<feBlend mode="normal" in="SourceGraphic" in2="BackgroundImageFix" result="shape"/>
<feGaussianBlur stdDeviation="0.267857" result="effect1_foregroundBlur_19_3399"/>
</filter>
<filter id="filter12_ii_19_3399" x="330.33" y="3.57531" width="88.8463" height="383.493" filterUnits="userSpaceOnUse" color-interpolation-filters="sRGB">
<feFlood flood-opacity="0" result="BackgroundImageFix"/>
<feBlend mode="normal" in="SourceGraphic" in2="BackgroundImageFix" result="shape"/>
<feColorMatrix in="SourceAlpha" type="matrix" values="0 0 0 0 0 0 0 0 0 0 0 0 0 0 0 0 0 0 127 0" result="hardAlpha"/>
<feOffset dx="0.264236" dy="-0.176157"/>
<feGaussianBlur stdDeviation="0.198177"/>
<feComposite in2="hardAlpha" operator="arithmetic" k2="-1" k3="1"/>
<feColorMatrix type="matrix" values="0 0 0 0 0.666667 0 0 0 0 0.662745 0 0 0 0 0.666667 0 0 0 1 0"/>
<feBlend mode="normal" in2="shape" result="effect1_innerShadow_19_3399"/>
<feColorMatrix in="SourceAlpha" type="matrix" values="0 0 0 0 0 0 0 0 0 0 0 0 0 0 0 0 0 0 127 0" result="hardAlpha"/>
<feOffset dy="-0.176157"/>
<feGaussianBlur stdDeviation="0.198177"/>
<feComposite in2="hardAlpha" operator="arithmetic" k2="-1" k3="1"/>
<feColorMatrix type="matrix" values="0 0 0 0 0.6 0 0 0 0 0.521569 0 0 0 0 0.596078 0 0 0 1 0"/>
<feBlend mode="normal" in2="effect1_innerShadow_19_3399" result="effect2_innerShadow_19_3399"/>
</filter>
<filter id="filter13_f_19_3399" x="330.33" y="3.75139" width="89.7863" height="383.581" filterUnits="userSpaceOnUse" color-interpolation-filters="sRGB">
<feFlood flood-opacity="0" result="BackgroundImageFix"/>
<feBlend mode="normal" in="SourceGraphic" in2="BackgroundImageFix" result="shape"/>
<feGaussianBlur stdDeviation="0.132118" result="effect1_foregroundBlur_19_3399"/>
</filter>
<filter id="filter14_i_19_3399" x="279.572" y="55.1699" width="102.968" height="102.754" filterUnits="userSpaceOnUse" color-interpolation-filters="sRGB">
<feFlood flood-opacity="0" result="BackgroundImageFix"/>
<feBlend mode="normal" in="SourceGraphic" in2="BackgroundImageFix" result="shape"/>
<feColorMatrix in="SourceAlpha" type="matrix" values="0 0 0 0 0 0 0 0 0 0 0 0 0 0 0 0 0 0 127 0" result="hardAlpha"/>
<feOffset dx="0.440393"/>
<feGaussianBlur stdDeviation="0.660589"/>
<feComposite in2="hardAlpha" operator="arithmetic" k2="-1" k3="1"/>
<feColorMatrix type="matrix" values="0 0 0 0 0.815686 0 0 0 0 0.560784 0 0 0 0 0.384314 0 0 0 1 0"/>
<feBlend mode="normal" in2="shape" result="effect1_innerShadow_19_3399"/>
</filter>
<filter id="filter15_iii_19_3399" x="1.6822" y="69.9654" width="174.091" height="119.585" filterUnits="userSpaceOnUse" color-interpolation-filters="sRGB">
<feFlood flood-opacity="0" result="BackgroundImageFix"/>
<feBlend mode="normal" in="SourceGraphic" in2="BackgroundImageFix" result="shape"/>
<feColorMatrix in="SourceAlpha" type="matrix" values="0 0 0 0 0 0 0 0 0 0 0 0 0 0 0 0 0 0 127 0" result="hardAlpha"/>
<feOffset dx="0.214286" dy="-0.214286"/>
<feGaussianBlur stdDeviation="0.214286"/>
<feComposite in2="hardAlpha" operator="arithmetic" k2="-1" k3="1"/>
<feColorMatrix type="matrix" values="0 0 0 0 0.658824 0 0 0 0 0.65098 0 0 0 0 0.678431 0 0 0 1 0"/>
<feBlend mode="normal" in2="shape" result="effect1_innerShadow_19_3399"/>
<feColorMatrix in="SourceAlpha" type="matrix" values="0 0 0 0 0 0 0 0 0 0 0 0 0 0 0 0 0 0 127 0" result="hardAlpha"/>
<feOffset dy="-0.214286"/>
<feGaussianBlur stdDeviation="0.214286"/>
<feComposite in2="hardAlpha" operator="arithmetic" k2="-1" k3="1"/>
<feColorMatrix type="matrix" values="0 0 0 0 0.529412 0 0 0 0 0.494118 0 0 0 0 0.615686 0 0 0 1 0"/>
<feBlend mode="normal" in2="effect1_innerShadow_19_3399" result="effect2_innerShadow_19_3399"/>
<feColorMatrix in="SourceAlpha" type="matrix" values="0 0 0 0 0 0 0 0 0 0 0 0 0 0 0 0 0 0 127 0" result="hardAlpha"/>
<feOffset dx="-0.214286" dy="0.214286"/>
<feGaussianBlur stdDeviation="0.214286"/>
<feComposite in2="hardAlpha" operator="arithmetic" k2="-1" k3="1"/>
<feColorMatrix type="matrix" values="0 0 0 0 0.913725 0 0 0 0 0.909804 0 0 0 0 0.92549 0 0 0 1 0"/>
<feBlend mode="normal" in2="effect2_innerShadow_19_3399" result="effect3_innerShadow_19_3399"/>
</filter>
<filter id="filter16_i_19_3399" x="130.232" y="275.345" width="45.9155" height="66.4956" filterUnits="userSpaceOnUse" color-interpolation-filters="sRGB">
<feFlood flood-opacity="0" result="BackgroundImageFix"/>
<feBlend mode="normal" in="SourceGraphic" in2="BackgroundImageFix" result="shape"/>
<feColorMatrix in="SourceAlpha" type="matrix" values="0 0 0 0 0 0 0 0 0 0 0 0 0 0 0 0 0 0 127 0" result="hardAlpha"/>
<feOffset dx="1.71429"/>
<feGaussianBlur stdDeviation="5.14286"/>
<feComposite in2="hardAlpha" operator="arithmetic" k2="-1" k3="1"/>
<feColorMatrix type="matrix" values="0 0 0 0 0.87451 0 0 0 0 0.67451 0 0 0 0 0.568627 0 0 0 1 0"/>
<feBlend mode="normal" in2="shape" result="effect1_innerShadow_19_3399"/>
</filter>
<filter id="filter17_f_19_3399" x="147.168" y="290.978" width="37.3471" height="54.0161" filterUnits="userSpaceOnUse" color-interpolation-filters="sRGB">
<feFlood flood-opacity="0" result="BackgroundImageFix"/>
<feBlend mode="normal" in="SourceGraphic" in2="BackgroundImageFix" result="shape"/>
<feGaussianBlur stdDeviation="3.42858" result="effect1_foregroundBlur_19_3399"/>
</filter>
<filter id="filter18_i_19_3399" x="156.387" y="293.793" width="23.1674" height="14.9683" filterUnits="userSpaceOnUse" color-interpolation-filters="sRGB">
<feFlood flood-opacity="0" result="BackgroundImageFix"/>
<feBlend mode="normal" in="SourceGraphic" in2="BackgroundImageFix" result="shape"/>
<feColorMatrix in="SourceAlpha" type="matrix" values="0 0 0 0 0 0 0 0 0 0 0 0 0 0 0 0 0 0 127 0" result="hardAlpha"/>
<feOffset dx="1.71429"/>
<feGaussianBlur stdDeviation="2.57143"/>
<feComposite in2="hardAlpha" operator="arithmetic" k2="-1" k3="1"/>
<feColorMatrix type="matrix" values="0 0 0 0 0.898039 0 0 0 0 0.690196 0 0 0 0 0.568627 0 0 0 1 0"/>
<feBlend mode="normal" in2="shape" result="effect1_innerShadow_19_3399"/>
</filter>
<filter id="filter19_f_19_3399" x="156.638" y="292.682" width="23.0929" height="15.8087" filterUnits="userSpaceOnUse" color-interpolation-filters="sRGB">
<feFlood flood-opacity="0" result="BackgroundImageFix"/>
<feBlend mode="normal" in="SourceGraphic" in2="BackgroundImageFix" result="shape"/>
<feGaussianBlur stdDeviation="2.14286" result="effect1_foregroundBlur_19_3399"/>
</filter>
<filter id="filter20_i_19_3399" x="160.654" y="325.174" width="22.7338" height="16.3022" filterUnits="userSpaceOnUse" color-interpolation-filters="sRGB">
<feFlood flood-opacity="0" result="BackgroundImageFix"/>
<feBlend mode="normal" in="SourceGraphic" in2="BackgroundImageFix" result="shape"/>
<feColorMatrix in="SourceAlpha" type="matrix" values="0 0 0 0 0 0 0 0 0 0 0 0 0 0 0 0 0 0 127 0" result="hardAlpha"/>
<feOffset dx="1.71429" dy="1.71429"/>
<feGaussianBlur stdDeviation="2.57143"/>
<feComposite in2="hardAlpha" operator="arithmetic" k2="-1" k3="1"/>
<feColorMatrix type="matrix" values="0 0 0 0 0.811765 0 0 0 0 0.568627 0 0 0 0 0.541176 0 0 0 1 0"/>
<feBlend mode="normal" in2="shape" result="effect1_innerShadow_19_3399"/>
</filter>
<filter id="filter21_f_19_3399" x="162.941" y="324.405" width="21.2589" height="13.4269" filterUnits="userSpaceOnUse" color-interpolation-filters="sRGB">
<feFlood flood-opacity="0" result="BackgroundImageFix"/>
<feBlend mode="normal" in="SourceGraphic" in2="BackgroundImageFix" result="shape"/>
<feGaussianBlur stdDeviation="2.14286" result="effect1_foregroundBlur_19_3399"/>
</filter>
<filter id="filter22_i_19_3399" x="159.203" y="314.668" width="27.5594" height="17.4062" filterUnits="userSpaceOnUse" color-interpolation-filters="sRGB">
<feFlood flood-opacity="0" result="BackgroundImageFix"/>
<feBlend mode="normal" in="SourceGraphic" in2="BackgroundImageFix" result="shape"/>
<feColorMatrix in="SourceAlpha" type="matrix" values="0 0 0 0 0 0 0 0 0 0 0 0 0 0 0 0 0 0 127 0" result="hardAlpha"/>
<feOffset dx="3.42858" dy="1.71429"/>
<feGaussianBlur stdDeviation="2.57143"/>
<feComposite in2="hardAlpha" operator="arithmetic" k2="-1" k3="1"/>
<feColorMatrix type="matrix" values="0 0 0 0 0.831373 0 0 0 0 0.576471 0 0 0 0 0.505882 0 0 0 1 0"/>
<feBlend mode="normal" in2="shape" result="effect1_innerShadow_19_3399"/>
</filter>
<filter id="filter23_f_19_3399" x="160.689" y="314.969" width="24.4523" height="13.8932" filterUnits="userSpaceOnUse" color-interpolation-filters="sRGB">
<feFlood flood-opacity="0" result="BackgroundImageFix"/>
<feBlend mode="normal" in="SourceGraphic" in2="BackgroundImageFix" result="shape"/>
<feGaussianBlur stdDeviation="2.14286" result="effect1_foregroundBlur_19_3399"/>
</filter>
<filter id="filter24_i_19_3399" x="157.676" y="304.191" width="25.6948" height="17.082" filterUnits="userSpaceOnUse" color-interpolation-filters="sRGB">
<feFlood flood-opacity="0" result="BackgroundImageFix"/>
<feBlend mode="normal" in="SourceGraphic" in2="BackgroundImageFix" result="shape"/>
<feColorMatrix in="SourceAlpha" type="matrix" values="0 0 0 0 0 0 0 0 0 0 0 0 0 0 0 0 0 0 127 0" result="hardAlpha"/>
<feOffset dx="1.71429" dy="1.71429"/>
<feGaussianBlur stdDeviation="2.57143"/>
<feComposite in2="hardAlpha" operator="arithmetic" k2="-1" k3="1"/>
<feColorMatrix type="matrix" values="0 0 0 0 0.862745 0 0 0 0 0.658824 0 0 0 0 0.54902 0 0 0 1 0"/>
<feBlend mode="normal" in2="shape" result="effect1_innerShadow_19_3399"/>
</filter>
<filter id="filter25_f_19_3399" x="157.97" y="302.602" width="25.5324" height="16.1657" filterUnits="userSpaceOnUse" color-interpolation-filters="sRGB">
<feFlood flood-opacity="0" result="BackgroundImageFix"/>
<feBlend mode="normal" in="SourceGraphic" in2="BackgroundImageFix" result="shape"/>
<feGaussianBlur stdDeviation="2.14286" result="effect1_foregroundBlur_19_3399"/>
</filter>
<filter id="filter26_f_19_3399" x="145.945" y="273.741" width="16.1535" height="27.4718" filterUnits="userSpaceOnUse" color-interpolation-filters="sRGB">
<feFlood flood-opacity="0" result="BackgroundImageFix"/>
<feBlend mode="normal" in="SourceGraphic" in2="BackgroundImageFix" result="shape"/>
<feGaussianBlur stdDeviation="2.14286" result="effect1_foregroundBlur_19_3399"/>
</filter>
<linearGradient id="paint0_linear_19_3399" x1="304.197" y1="141.55" x2="350.962" y2="149.023" gradientUnits="userSpaceOnUse">
<stop stop-color="#55EBFF"/>
<stop offset="0.061" stop-color="#83C9F0"/>
<stop offset="0.115" stop-color="#A7A1FF"/>
<stop offset="0.218" stop-color="#7E77EA"/>
<stop offset="0.533" stop-color="#3A31BD"/>
<stop offset="0.694" stop-color="#AAA5F2"/>
<stop offset="1" stop-color="#9DDBF6"/>
</linearGradient>
<radialGradient id="paint1_radial_19_3399" cx="0" cy="0" r="1" gradientUnits="userSpaceOnUse" gradientTransform="translate(329.449 126.891) rotate(86.3127) scale(13.5446 33.8194)">
<stop stop-color="#CAC7F7"/>
<stop offset="1" stop-color="#FF9CEA" stop-opacity="0"/>
</radialGradient>
<radialGradient id="paint2_radial_19_3399" cx="0" cy="0" r="1" gradientUnits="userSpaceOnUse" gradientTransform="translate(325.595 167.298) rotate(-73.4903) scale(30.2546 23.0987)">
<stop offset="0.415" stop-color="#847DF0"/>
<stop offset="1" stop-color="#B3AFF5"/>
</radialGradient>
<radialGradient id="paint3_radial_19_3399" cx="0" cy="0" r="1" gradientUnits="userSpaceOnUse" gradientTransform="translate(325.595 167.298) rotate(-73.4903) scale(30.2546 23.0987)">
<stop offset="0.415" stop-color="white"/>
<stop offset="1" stop-color="white" stop-opacity="0.5"/>
</radialGradient>
<radialGradient id="paint4_radial_19_3399" cx="0" cy="0" r="1" gradientUnits="userSpaceOnUse" gradientTransform="translate(338.952 150.129) rotate(-167.096) scale(31.5239 36.349)">
<stop offset="0.723" stop-color="#9FD2F5" stop-opacity="0"/>
<stop offset="1" stop-color="#9FD2F5"/>
</radialGradient>
<radialGradient id="paint5_radial_19_3399" cx="0" cy="0" r="1" gradientUnits="userSpaceOnUse" gradientTransform="translate(325.667 166.512) rotate(-73.4903) scale(28.9446 22.0984)">
<stop stop-color="#7970F9"/>
<stop offset="1" stop-color="#D5D3F4"/>
</radialGradient>
<radialGradient id="paint6_radial_19_3399" cx="0" cy="0" r="1" gradientUnits="userSpaceOnUse" gradientTransform="translate(338.449 150.091) rotate(-167.096) scale(30.1587 34.775)">
<stop stop-color="#FFE8CA"/>
<stop offset="0.5625" stop-color="#C3BEFF"/>
<stop offset="1" stop-color="#D0E0FF"/>
</radialGradient>
<linearGradient id="paint7_linear_19_3399" x1="284.93" y1="175.302" x2="310.274" y2="179.352" gradientUnits="userSpaceOnUse">
<stop stop-color="#55EBFF"/>
<stop offset="0.061" stop-color="#83C9F0"/>
<stop offset="0.115" stop-color="#A7A1FF"/>
<stop offset="0.218" stop-color="#7E77EA"/>
<stop offset="0.533" stop-color="#3A31BD"/>
<stop offset="0.694" stop-color="#AAA5F2"/>
<stop offset="1" stop-color="#9DDBF6"/>
</linearGradient>
<radialGradient id="paint8_radial_19_3399" cx="0" cy="0" r="1" gradientUnits="userSpaceOnUse" gradientTransform="translate(298.572 167.382) rotate(86.3127) scale(7.34027 18.3279)">
<stop stop-color="#C0BDF9"/>
<stop offset="1" stop-color="#FF9CEA" stop-opacity="0"/>
</radialGradient>
<linearGradient id="paint9_linear_19_3399" x1="312.728" y1="185.885" x2="345.389" y2="191.104" gradientUnits="userSpaceOnUse">
<stop stop-color="#55EBFF"/>
<stop offset="0.061" stop-color="#83C9F0"/>
<stop offset="0.115" stop-color="#A7A1FF"/>
<stop offset="0.218" stop-color="#7E77EA"/>
<stop offset="0.533" stop-color="#3A31BD"/>
<stop offset="0.694" stop-color="#AAA5F2"/>
<stop offset="1" stop-color="#9DDBF6"/>
</linearGradient>
<radialGradient id="paint10_radial_19_3399" cx="0" cy="0" r="1" gradientUnits="userSpaceOnUse" gradientTransform="translate(330.516 175.564) rotate(86.3127) scale(9.4604 23.6217)">
<stop stop-color="#C3C0F9"/>
<stop offset="1" stop-color="#FF9CEA" stop-opacity="0"/>
</radialGradient>
<radialGradient id="paint11_radial_19_3399" cx="0" cy="0" r="1" gradientUnits="userSpaceOnUse" gradientTransform="translate(324.164 172.992) rotate(77.5416) scale(8.43163 17.3335)">
<stop offset="0.154" stop-color="#3A31BD"/>
<stop offset="1" stop-color="#3A31BD" stop-opacity="0"/>
</radialGradient>
<radialGradient id="paint12_radial_19_3399" cx="0" cy="0" r="1" gradientUnits="userSpaceOnUse" gradientTransform="translate(324.309 147.675) rotate(-81.3819) scale(17.578 26.0213)">
<stop offset="0.435" stop-color="#FFFFF0" stop-opacity="0"/>
<stop offset="1" stop-color="white"/>
</radialGradient>
<radialGradient id="paint13_radial_19_3399" cx="0" cy="0" r="1" gradientUnits="userSpaceOnUse" gradientTransform="translate(327.931 202.632) rotate(-73.4903) scale(19.1886 14.65)">
<stop offset="0.0625" stop-color="#FCE7CC"/>
<stop offset="0.661458" stop-color="#C2AFF8"/>
<stop offset="1" stop-color="#C2BEF5"/>
</radialGradient>
<radialGradient id="paint14_radial_19_3399" cx="0" cy="0" r="1" gradientUnits="userSpaceOnUse" gradientTransform="translate(337.705 180.943) rotate(146.046) scale(31.3986 23.972)">
<stop offset="0.0625" stop-color="white"/>
<stop offset="0.553974" stop-color="#C2BEF5"/>
<stop offset="1" stop-color="#FFE5D1"/>
</radialGradient>
<radialGradient id="paint15_radial_19_3399" cx="0" cy="0" r="1" gradientUnits="userSpaceOnUse" gradientTransform="translate(336.405 191.743) rotate(-167.096) scale(19.9936 23.0539)">
<stop offset="0.723" stop-color="#9FD2F5" stop-opacity="0"/>
<stop offset="1" stop-color="#CEE7F8"/>
</radialGradient>
<radialGradient id="paint16_radial_19_3399" cx="0" cy="0" r="1" gradientUnits="userSpaceOnUse" gradientTransform="translate(296.582 188.212) rotate(-73.4903) scale(14.5969 11.1444)">
<stop stop-color="#ECA78A"/>
<stop offset="1" stop-color="#C0BCF8"/>
</radialGradient>
<radialGradient id="paint17_radial_19_3399" cx="0" cy="0" r="1" gradientUnits="userSpaceOnUse" gradientTransform="translate(303.026 179.929) rotate(-167.096) scale(15.2092 17.5372)">
<stop offset="0.723" stop-color="#9FD2F5" stop-opacity="0"/>
<stop offset="1" stop-color="#9FD2F5"/>
</radialGradient>
<radialGradient id="paint18_radial_19_3399" cx="0" cy="0" r="1" gradientUnits="userSpaceOnUse" gradientTransform="translate(295.784 178.645) rotate(-81.3824) scale(9.52612 14.1018)">
<stop offset="0.435" stop-color="#FFFFF0" stop-opacity="0"/>
<stop offset="1" stop-color="white"/>
</radialGradient>
<radialGradient id="paint19_radial_19_3399" cx="0" cy="0" r="1" gradientUnits="userSpaceOnUse" gradientTransform="translate(326.924 190.088) rotate(-81.382) scale(12.2776 18.1749)">
<stop offset="0.435" stop-color="#FFFFF0" stop-opacity="0"/>
<stop offset="1" stop-color="white"/>
</radialGradient>
<radialGradient id="paint20_radial_19_3399" cx="0" cy="0" r="1" gradientUnits="userSpaceOnUse" gradientTransform="translate(341.666 406.643) rotate(-90) scale(17.9037 21.4509)">
<stop stop-color="#564DD6"/>
<stop offset="1" stop-color="#3A31BD"/>
</radialGradient>
<radialGradient id="paint21_radial_19_3399" cx="0" cy="0" r="1" gradientUnits="userSpaceOnUse" gradientTransform="translate(116.217 406.643) rotate(-90) scale(17.9037 21.451)">
<stop stop-color="#564DD6"/>
<stop offset="1" stop-color="#3A31BD"/>
</radialGradient>
<linearGradient id="paint22_linear_19_3399" x1="166.346" y1="251.844" x2="166.346" y2="273.975" gradientUnits="userSpaceOnUse">
<stop offset="0.032" stop-color="#7068D9"/>
<stop offset="1" stop-color="#7069D9" stop-opacity="0"/>
</linearGradient>
<linearGradient id="paint23_linear_19_3399" x1="110.822" y1="288.487" x2="133.144" y2="288.487" gradientUnits="userSpaceOnUse">
<stop stop-color="#3A31BD" stop-opacity="0.7"/>
<stop offset="1" stop-color="#0C084D" stop-opacity="0"/>
</linearGradient>
<linearGradient id="paint24_linear_19_3399" x1="142.072" y1="342.428" x2="142.072" y2="329.785" gradientUnits="userSpaceOnUse">
<stop stop-color="#3A31BD" stop-opacity="0.5"/>
<stop offset="1" stop-color="#457BCA" stop-opacity="0"/>
</linearGradient>
<linearGradient id="paint25_linear_19_3399" x1="226.894" y1="337.963" x2="204.941" y2="337.963" gradientUnits="userSpaceOnUse">
<stop stop-color="#3A31BD" stop-opacity="0.5"/>
<stop offset="1" stop-color="#0E0865" stop-opacity="0"/>
</linearGradient>
<linearGradient id="paint26_linear_19_3399" x1="222.703" y1="314.904" x2="216.572" y2="314.904" gradientUnits="userSpaceOnUse">
<stop stop-color="#3A31BD"/>
<stop offset="1" stop-color="#3A31BD" stop-opacity="0"/>
</linearGradient>
<linearGradient id="paint27_linear_19_3399" x1="277.393" y1="251.844" x2="277.393" y2="273.975" gradientUnits="userSpaceOnUse">
<stop offset="0.032" stop-color="#7068D9"/>
<stop offset="1" stop-color="#7069D9" stop-opacity="0"/>
</linearGradient>
<linearGradient id="paint28_linear_19_3399" x1="332.917" y1="288.487" x2="310.595" y2="288.487" gradientUnits="userSpaceOnUse">
<stop stop-color="#3A31BD" stop-opacity="0.5"/>
<stop offset="1" stop-color="#0C084D" stop-opacity="0"/>
</linearGradient>
<linearGradient id="paint29_linear_19_3399" x1="301.667" y1="342.428" x2="301.667" y2="329.785" gradientUnits="userSpaceOnUse">
<stop stop-color="#3A31BD" stop-opacity="0.5"/>
<stop offset="1" stop-color="#457BCA" stop-opacity="0"/>
</linearGradient>
<linearGradient id="paint30_linear_19_3399" x1="216.845" y1="337.963" x2="238.798" y2="337.963" gradientUnits="userSpaceOnUse">
<stop stop-color="#3A31BD"/>
<stop offset="1" stop-color="#3A31BD" stop-opacity="0"/>
</linearGradient>
<linearGradient id="paint31_linear_19_3399" x1="221.036" y1="314.904" x2="227.167" y2="314.904" gradientUnits="userSpaceOnUse">
<stop stop-color="#3A31BD"/>
<stop offset="1" stop-color="#3A31BD" stop-opacity="0"/>
</linearGradient>
<linearGradient id="paint32_linear_19_3399" x1="332.917" y1="356.57" x2="287.905" y2="320.856" gradientUnits="userSpaceOnUse">
<stop offset="0.0104167" stop-color="#3A31BD"/>
<stop offset="1" stop-color="#3A31BD" stop-opacity="0"/>
</linearGradient>
<radialGradient id="paint33_radial_19_3399" cx="0" cy="0" r="1" gradientUnits="userSpaceOnUse" gradientTransform="translate(329.217 257.227) rotate(131.934) scale(14.7525 14.2131)">
<stop stop-color="#9C97DD" stop-opacity="0.7"/>
<stop offset="1" stop-color="#9C97DD" stop-opacity="0"/>
</radialGradient>
<linearGradient id="paint34_linear_19_3399" x1="221.644" y1="339.365" x2="221.644" y2="352.103" gradientUnits="userSpaceOnUse">
<stop offset="0.241" stop-color="#3A31BD" stop-opacity="0.3"/>
<stop offset="1" stop-color="#3A31BD" stop-opacity="0"/>
</linearGradient>
<linearGradient id="paint35_linear_19_3399" x1="221.692" y1="315.266" x2="135.037" y2="316.861" gradientUnits="userSpaceOnUse">
<stop stop-color="#A7A1FF" stop-opacity="0.5"/>
<stop offset="1" stop-color="#A7A1FF" stop-opacity="0"/>
</linearGradient>
<linearGradient id="paint36_linear_19_3399" x1="326.691" y1="261.51" x2="305.584" y2="307.296" gradientUnits="userSpaceOnUse">
<stop stop-color="#9C97DD" stop-opacity="0.7"/>
<stop offset="1" stop-color="#9C97DD" stop-opacity="0"/>
</linearGradient>
<linearGradient id="paint37_linear_19_3399" x1="110.822" y1="301.14" x2="110.822" y2="375.914" gradientUnits="userSpaceOnUse">
<stop stop-color="#9F99EC"/>
<stop offset="1" stop-color="#857EE6"/>
</linearGradient>
<linearGradient id="paint38_linear_19_3399" x1="342.691" y1="301.14" x2="342.691" y2="375.914" gradientUnits="userSpaceOnUse">
<stop stop-color="#A7A1FF"/>
<stop offset="1" stop-color="#8882D9"/>
</linearGradient>
<radialGradient id="paint39_radial_19_3399" cx="0" cy="0" r="1" gradientUnits="userSpaceOnUse" gradientTransform="translate(409.537 364.152) rotate(-90) scale(173.077 6.89508)">
<stop stop-color="#667295"/>
<stop offset="1" stop-color="#667295" stop-opacity="0"/>
</radialGradient>
<radialGradient id="paint40_radial_19_3399" cx="0" cy="0" r="1" gradientUnits="userSpaceOnUse" gradientTransform="translate(419.73 13.2018) rotate(108.092) scale(92.6564 108.413)">
<stop offset="0.11" stop-color="#DDDBDE"/>
<stop offset="1" stop-color="#DDDBDE" stop-opacity="0"/>
</radialGradient>
<linearGradient id="paint41_linear_19_3399" x1="419.719" y1="369.629" x2="419.719" y2="209.084" gradientUnits="userSpaceOnUse">
<stop stop-color="#C5C0C3"/>
<stop offset="1" stop-color="#C5C0C3" stop-opacity="0"/>
</linearGradient>
<linearGradient id="paint42_linear_19_3399" x1="277.106" y1="125.454" x2="375.538" y2="125.454" gradientUnits="userSpaceOnUse">
<stop offset="0.253" stop-color="#E7E6FA"/>
<stop offset="0.789" stop-color="white"/>
</linearGradient>
<linearGradient id="paint43_linear_19_3399" x1="353.429" y1="157.924" x2="353.429" y2="151.054" gradientUnits="userSpaceOnUse">
<stop stop-color="#A7C9DD"/>
<stop offset="1" stop-color="#BDE4FA" stop-opacity="0"/>
</linearGradient>
<radialGradient id="paint44_radial_19_3399" cx="0" cy="0" r="1" gradientUnits="userSpaceOnUse" gradientTransform="translate(352.97 82.4688) rotate(93.8143) scale(34.4806 59.8582)">
<stop stop-color="#FFF7F2"/>
<stop offset="1" stop-color="#FFF0E9" stop-opacity="0.4"/>
</radialGradient>
<radialGradient id="paint45_radial_19_3399" cx="0" cy="0" r="1" gradientUnits="userSpaceOnUse" gradientTransform="translate(447.941 396.726) rotate(180) scale(48.6288 48.2387)">
<stop stop-color="white" stop-opacity="0.9"/>
<stop offset="1" stop-color="#E7E6FA"/>
</radialGradient>
<radialGradient id="paint46_radial_19_3399" cx="0" cy="0" r="1" gradientUnits="userSpaceOnUse" gradientTransform="translate(439.911 403.831) rotate(-90) scale(16.0267 18.8092)">
<stop stop-color="#BDE3F7"/>
<stop offset="1" stop-color="#BDE3F7" stop-opacity="0"/>
</radialGradient>
<linearGradient id="paint47_linear_19_3399" x1="432.806" y1="407.105" x2="432.806" y2="401.776" gradientUnits="userSpaceOnUse">
<stop stop-color="#CCC9F1"/>
<stop offset="1" stop-color="#CCC9F1" stop-opacity="0"/>
</linearGradient>
<radialGradient id="paint48_radial_19_3399" cx="0" cy="0" r="1" gradientUnits="userSpaceOnUse" gradientTransform="translate(432.794 402.202) rotate(-164.205) scale(52.9804 52.9766)">
<stop offset="0.615" stop-color="#9C97DD" stop-opacity="0"/>
<stop offset="0.981" stop-color="#9C97DD"/>
</radialGradient>
<linearGradient id="paint49_linear_19_3399" x1="97.1369" y1="90.7987" x2="114.7" y2="160.446" gradientUnits="userSpaceOnUse">
<stop stop-color="white"/>
<stop offset="1" stop-color="#EDEBF0"/>
</linearGradient>
<linearGradient id="paint50_linear_19_3399" x1="162.458" y1="297.601" x2="143.164" y2="352.566" gradientUnits="userSpaceOnUse">
<stop stop-color="#FFDDBE"/>
<stop offset="1" stop-color="#E7AFA8"/>
</linearGradient>
<radialGradient id="paint51_radial_19_3399" cx="0" cy="0" r="1" gradientUnits="userSpaceOnUse" gradientTransform="translate(155.814 278.028) rotate(130.501) scale(8.82396 6.88478)">
<stop stop-color="#FFE6C7"/>
<stop offset="1" stop-color="#FFE6C7" stop-opacity="0"/>
</radialGradient>
<radialGradient id="paint52_radial_19_3399" cx="0" cy="0" r="1" gradientUnits="userSpaceOnUse" gradientTransform="translate(141.826 310.102) rotate(125.251) scale(17.6481 12.7846)">
<stop stop-color="#F2C0A5"/>
<stop offset="1" stop-color="#F2C0A5" stop-opacity="0"/>
</radialGradient>
<radialGradient id="paint53_radial_19_3399" cx="0" cy="0" r="1" gradientUnits="userSpaceOnUse" gradientTransform="translate(164.623 308.913) rotate(127.481) scale(25.4504 15.6896)">
<stop stop-color="#DDA895"/>
<stop offset="1" stop-color="#DDA895" stop-opacity="0"/>
</radialGradient>
<radialGradient id="paint54_radial_19_3399" cx="0" cy="0" r="1" gradientUnits="userSpaceOnUse" gradientTransform="translate(148.323 352.465) rotate(-70.9252) scale(35.1002 62.408)">
<stop stop-color="#C08494"/>
<stop offset="1" stop-color="#C08494" stop-opacity="0"/>
</radialGradient>
<radialGradient id="paint55_radial_19_3399" cx="0" cy="0" r="1" gradientUnits="userSpaceOnUse" gradientTransform="translate(166.686 318.186) rotate(171.687) scale(36.9856 56.9226)">
<stop offset="0.864" stop-color="#EDB29B" stop-opacity="0"/>
<stop offset="1" stop-color="#EDB29B"/>
</radialGradient>
<radialGradient id="paint56_radial_19_3399" cx="0" cy="0" r="1" gradientUnits="userSpaceOnUse" gradientTransform="translate(159.019 296.478) rotate(30.5868) scale(3.71966 4.89852)">
<stop stop-color="#FFDBBA"/>
<stop offset="1" stop-color="#FFDBBA" stop-opacity="0"/>
</radialGradient>
<linearGradient id="paint57_linear_19_3399" x1="155.979" y1="344.429" x2="154.796" y2="336.331" gradientUnits="userSpaceOnUse">
<stop stop-color="#B57895"/>
<stop offset="1" stop-color="#B57895" stop-opacity="0"/>
</linearGradient>
<linearGradient id="paint58_linear_19_3399" x1="162.443" y1="302.847" x2="167.733" y2="339.053" gradientUnits="userSpaceOnUse">
<stop stop-color="#B5755F"/>
<stop offset="1" stop-color="#B3748D"/>
</linearGradient>
<linearGradient id="paint59_linear_19_3399" x1="177.765" y1="299.721" x2="158.576" y2="302.524" gradientUnits="userSpaceOnUse">
<stop stop-color="#FFD8BA"/>
<stop offset="1" stop-color="#ECB9A3"/>
</linearGradient>
<radialGradient id="paint60_radial_19_3399" cx="0" cy="0" r="1" gradientUnits="userSpaceOnUse" gradientTransform="translate(158.999 306.671) rotate(-8.31319) scale(15.7761 6.32779)">
<stop stop-color="#DFA995"/>
<stop offset="1" stop-color="#DFA995" stop-opacity="0"/>
</radialGradient>
<radialGradient id="paint61_radial_19_3399" cx="0" cy="0" r="1" gradientUnits="userSpaceOnUse" gradientTransform="translate(160.812 308.403) rotate(-150.946) scale(5.52642 3.69922)">
<stop stop-color="#CA8C6F"/>
<stop offset="1" stop-color="#CA8C6F" stop-opacity="0"/>
</radialGradient>
<linearGradient id="paint62_linear_19_3399" x1="174.465" y1="298.299" x2="158.883" y2="300.576" gradientUnits="userSpaceOnUse">
<stop stop-color="#FFE7CA"/>
<stop offset="1" stop-color="#FFE7CA" stop-opacity="0"/>
</linearGradient>
<linearGradient id="paint63_linear_19_3399" x1="179.774" y1="331.21" x2="160.726" y2="333.993" gradientUnits="userSpaceOnUse">
<stop stop-color="#FECEB7"/>
<stop offset="1" stop-color="#DAA59E"/>
</linearGradient>
<radialGradient id="paint64_radial_19_3399" cx="0" cy="0" r="1" gradientUnits="userSpaceOnUse" gradientTransform="translate(167.713 339.785) rotate(-8.31319) scale(19.542 3.70493)">
<stop stop-color="#BF8196"/>
<stop offset="1" stop-color="#BF8196" stop-opacity="0"/>
</radialGradient>
<radialGradient id="paint65_radial_19_3399" cx="0" cy="0" r="1" gradientUnits="userSpaceOnUse" gradientTransform="translate(165.116 328.929) rotate(-8.31319) scale(16.023 3.60257)">
<stop stop-color="#B57767"/>
<stop offset="1" stop-color="#B57767" stop-opacity="0"/>
</radialGradient>
<linearGradient id="paint66_linear_19_3399" x1="179.124" y1="329.506" x2="165.485" y2="331.499" gradientUnits="userSpaceOnUse">
<stop stop-color="#FFD2C1"/>
<stop offset="1" stop-color="#FFD2C1" stop-opacity="0"/>
</linearGradient>
<linearGradient id="paint67_linear_19_3399" x1="181.139" y1="321.072" x2="159.302" y2="324.263" gradientUnits="userSpaceOnUse">
<stop stop-color="#FFDDC1"/>
<stop offset="1" stop-color="#E5B1A3"/>
</linearGradient>
<radialGradient id="paint68_radial_19_3399" cx="0" cy="0" r="1" gradientUnits="userSpaceOnUse" gradientTransform="translate(165.177 330.58) rotate(-8.31319) scale(21.9448 7.80657)">
<stop offset="0.14" stop-color="#CA8E96"/>
<stop offset="1" stop-color="#CA8E96" stop-opacity="0"/>
</radialGradient>
<radialGradient id="paint69_radial_19_3399" cx="0" cy="0" r="1" gradientUnits="userSpaceOnUse" gradientTransform="translate(165.237 317.474) rotate(-8.31319) scale(11.3173 4.59417)">
<stop stop-color="#BB7E6C"/>
<stop offset="1" stop-color="#BB7E6C" stop-opacity="0"/>
</radialGradient>
<linearGradient id="paint70_linear_19_3399" x1="179.899" y1="320.094" x2="162.821" y2="322.589" gradientUnits="userSpaceOnUse">
<stop stop-color="#FFE2C9"/>
<stop offset="1" stop-color="#FFE2C9" stop-opacity="0"/>
</linearGradient>
<linearGradient id="paint71_linear_19_3399" x1="181.58" y1="310.133" x2="157.755" y2="313.614" gradientUnits="userSpaceOnUse">
<stop stop-color="#FFDFBF"/>
<stop offset="1" stop-color="#E2AE9C"/>
</linearGradient>
<radialGradient id="paint72_radial_19_3399" cx="0" cy="0" r="1" gradientUnits="userSpaceOnUse" gradientTransform="translate(164.809 319.602) rotate(-8.31319) scale(19.2708 8.94488)">
<stop stop-color="#D39797"/>
<stop offset="1" stop-color="#D39797" stop-opacity="0"/>
</radialGradient>
<linearGradient id="paint73_linear_19_3399" x1="178.113" y1="308.24" x2="159.9" y2="310.902" gradientUnits="userSpaceOnUse">
<stop stop-color="#FFE8CA"/>
<stop offset="1" stop-color="#FFE8CA" stop-opacity="0"/>
</linearGradient>
<radialGradient id="paint74_radial_19_3399" cx="0" cy="0" r="1" gradientUnits="userSpaceOnUse" gradientTransform="translate(143.058 286.263) rotate(81.6868) scale(15.0689 5.94722)">
<stop stop-color="#E0A892"/>
<stop offset="1" stop-color="#E0A892" stop-opacity="0"/>
</radialGradient>
<linearGradient id="paint75_linear_19_3399" x1="155.902" y1="282.858" x2="149.883" y2="283.737" gradientUnits="userSpaceOnUse">
<stop stop-color="#FFE7CA"/>
<stop offset="1" stop-color="#FFE7CA" stop-opacity="0"/>
</linearGradient>
<clipPath id="clip0_19_3399">
<rect width="76.1903" height="76.1905" fill="white" transform="translate(111 276.115) rotate(-8.31319)"/>
</clipPath>
</defs>
</svg>
