<svg width="187" height="187" viewBox="0 0 187 187" fill="none" xmlns="http://www.w3.org/2000/svg">
<g id="fluent-emoji:green-heart" clip-path="url(#clip0_315_55334)">
<g id="Group">
<path id="Vector" d="M100.692 159.135C102.109 159.62 103.629 159.728 105.101 159.45C106.574 159.172 107.948 158.516 109.092 157.547C124.957 144.354 151.515 115.743 158.237 83.4773C168.989 41.1105 121.975 17.0969 97.2767 44.6846C94.6985 47.5655 91.4122 50.9216 89.2765 53.9224C88.3079 55.281 86.2661 55.7629 84.8557 54.8745C80.912 52.372 74.8907 49.3425 71.0671 47.6361C43.7082 35.4049 3.0743 65.0513 30.2511 108.232C40.8846 127.89 79.2298 151.676 100.697 159.139L100.692 159.135Z" fill="url(#paint0_radial_315_55334)"/>
<path id="Vector_2" d="M100.692 159.135C102.109 159.62 103.629 159.728 105.101 159.45C106.574 159.172 107.948 158.516 109.092 157.547C124.957 144.354 151.515 115.743 158.237 83.4773C168.989 41.1105 121.975 17.0969 97.2767 44.6846C94.6985 47.5655 91.4122 50.9216 89.2765 53.9224C88.3079 55.281 86.2661 55.7629 84.8557 54.8745C80.912 52.372 74.8907 49.3425 71.0671 47.6361C43.7082 35.4049 3.0743 65.0513 30.2511 108.232C40.8846 127.89 79.2298 151.676 100.697 159.139L100.692 159.135Z" fill="url(#paint1_radial_315_55334)"/>
<path id="Vector_3" d="M100.692 159.135C102.109 159.62 103.629 159.728 105.101 159.45C106.574 159.172 107.948 158.516 109.092 157.547C124.957 144.354 151.515 115.743 158.237 83.4773C168.989 41.1105 121.975 17.0969 97.2767 44.6846C94.6985 47.5655 91.4122 50.9216 89.2765 53.9224C88.3079 55.281 86.2661 55.7629 84.8557 54.8745C80.912 52.372 74.8907 49.3425 71.0671 47.6361C43.7082 35.4049 3.0743 65.0513 30.2511 108.232C40.8846 127.89 79.2298 151.676 100.697 159.139L100.692 159.135Z" fill="url(#paint2_linear_315_55334)"/>
<path id="Vector_4" d="M100.692 159.135C102.109 159.62 103.629 159.728 105.101 159.45C106.574 159.172 107.948 158.516 109.092 157.547C124.957 144.354 151.515 115.743 158.237 83.4773C168.989 41.1105 121.975 17.0969 97.2767 44.6846C94.6985 47.5655 91.4122 50.9216 89.2765 53.9224C88.3079 55.281 86.2661 55.7629 84.8557 54.8745C80.912 52.372 74.8907 49.3425 71.0671 47.6361C43.7082 35.4049 3.0743 65.0513 30.2511 108.232C40.8846 127.89 79.2298 151.676 100.697 159.139L100.692 159.135Z" fill="url(#paint3_linear_315_55334)"/>
<path id="Vector_5" d="M100.692 159.135C102.109 159.62 103.629 159.728 105.101 159.45C106.574 159.172 107.948 158.516 109.092 157.547C124.957 144.354 151.515 115.743 158.237 83.4773C168.989 41.1105 121.975 17.0969 97.2767 44.6846C94.6985 47.5655 91.4122 50.9216 89.2765 53.9224C88.3079 55.281 86.2661 55.7629 84.8557 54.8745C80.912 52.372 74.8907 49.3425 71.0671 47.6361C43.7082 35.4049 3.0743 65.0513 30.2511 108.232C40.8846 127.89 79.2298 151.676 100.697 159.139L100.692 159.135Z" fill="url(#paint4_radial_315_55334)"/>
<path id="Vector_6" d="M100.692 159.135C102.109 159.62 103.629 159.728 105.101 159.45C106.574 159.172 107.948 158.516 109.092 157.547C124.957 144.354 151.515 115.743 158.237 83.4773C168.989 41.1105 121.975 17.0969 97.2767 44.6846C94.6985 47.5655 91.4122 50.9216 89.2765 53.9224C88.3079 55.281 86.2661 55.7629 84.8557 54.8745C80.912 52.372 74.8907 49.3425 71.0671 47.6361C43.7082 35.4049 3.0743 65.0513 30.2511 108.232C40.8846 127.89 79.2298 151.676 100.697 159.139L100.692 159.135Z" fill="url(#paint5_radial_315_55334)"/>
<path id="Vector_7" d="M100.692 159.135C102.109 159.62 103.629 159.728 105.101 159.45C106.574 159.172 107.948 158.516 109.092 157.547C124.957 144.354 151.515 115.743 158.237 83.4773C168.989 41.1105 121.975 17.0969 97.2767 44.6846C94.6985 47.5655 91.4122 50.9216 89.2765 53.9224C88.3079 55.281 86.2661 55.7629 84.8557 54.8745C80.912 52.372 74.8907 49.3425 71.0671 47.6361C43.7082 35.4049 3.0743 65.0513 30.2511 108.232C40.8846 127.89 79.2298 151.676 100.697 159.139L100.692 159.135Z" fill="url(#paint6_radial_315_55334)"/>
<path id="Vector_8" d="M100.692 159.135C102.109 159.62 103.629 159.728 105.101 159.45C106.574 159.172 107.948 158.516 109.092 157.547C124.957 144.354 151.515 115.743 158.237 83.4773C168.989 41.1105 121.975 17.0969 97.2767 44.6846C94.6985 47.5655 91.4122 50.9216 89.2765 53.9224C88.3079 55.281 86.2661 55.7629 84.8557 54.8745C80.912 52.372 74.8907 49.3425 71.0671 47.6361C43.7082 35.4049 3.0743 65.0513 30.2511 108.232C40.8846 127.89 79.2298 151.676 100.697 159.139L100.692 159.135Z" fill="url(#paint7_radial_315_55334)"/>
<path id="Vector_9" d="M100.692 159.135C102.109 159.62 103.629 159.728 105.101 159.45C106.574 159.172 107.948 158.516 109.092 157.547C124.957 144.354 151.515 115.743 158.237 83.4773C168.989 41.1105 121.975 17.0969 97.2767 44.6846C94.6985 47.5655 91.4122 50.9216 89.2765 53.9224C88.3079 55.281 86.2661 55.7629 84.8557 54.8745C80.912 52.372 74.8907 49.3425 71.0671 47.6361C43.7082 35.4049 3.0743 65.0513 30.2511 108.232C40.8846 127.89 79.2298 151.676 100.697 159.139L100.692 159.135Z" fill="url(#paint8_radial_315_55334)" fill-opacity="0.7"/>
<g id="Group_2" filter="url(#filter0_f_315_55334)">
<path id="Vector_10" d="M87.8956 66.6794L93.8184 100.269C94.6039 104.724 100.372 105.884 102.535 101.914C109.224 89.6183 113.846 75.2962 104.225 65.9575C100.537 62.3743 94.3925 60.7472 89.8978 62.4027C88.2147 63.0192 87.5849 64.917 87.8965 66.6844L87.8956 66.6794Z" fill="#948EEC"/>
</g>
<g id="Group_3" filter="url(#filter1_f_315_55334)">
<path id="Vector_11" d="M134.525 40.0153C148.243 43.0277 155.636 62.4442 151.042 83.3959C146.45 104.337 131.603 118.878 117.885 115.866C104.166 112.853 96.7733 93.4369 101.365 72.496C105.96 51.5492 120.806 37.003 134.52 40.0162L134.525 40.0153Z" fill="url(#paint9_radial_315_55334)"/>
</g>
<g id="Group_4" filter="url(#filter2_f_315_55334)">
<path id="Vector_12" d="M82.5891 64.0735L92.5965 114.927C52.9469 87.9747 42.7279 65.4576 52.8427 55.5169C60.0683 48.4207 77.5402 57.03 82.5891 64.0735Z" fill="url(#paint10_radial_315_55334)"/>
</g>
<g id="Group_5" filter="url(#filter3_f_315_55334)">
<path id="Vector_13" d="M114.002 40.9938C119.236 39.3857 137.668 37.4351 146.63 52.1031" stroke="url(#paint11_linear_315_55334)" stroke-opacity="0.5" stroke-width="1.24972" stroke-linecap="round"/>
</g>
<g id="Group_6" filter="url(#filter4_f_315_55334)">
<path id="Vector_14" d="M48.1024 52.7304C53.3365 51.1222 67.9172 49.2365 82.5891 64.0753" stroke="url(#paint12_linear_315_55334)" stroke-opacity="0.5" stroke-width="1.24972" stroke-linecap="round"/>
</g>
</g>
</g>
<defs>
<filter id="filter0_f_315_55334" x="77.8216" y="51.7523" width="41.891" height="62.5814" filterUnits="userSpaceOnUse" color-interpolation-filters="sRGB">
<feFlood flood-opacity="0" result="BackgroundImageFix"/>
<feBlend mode="normal" in="SourceGraphic" in2="BackgroundImageFix" result="shape"/>
<feGaussianBlur stdDeviation="4.99886" result="effect1_foregroundBlur_315_55334"/>
</filter>
<filter id="filter1_f_315_55334" x="92.5046" y="32.1189" width="67.3989" height="91.6372" filterUnits="userSpaceOnUse" color-interpolation-filters="sRGB">
<feFlood flood-opacity="0" result="BackgroundImageFix"/>
<feBlend mode="normal" in="SourceGraphic" in2="BackgroundImageFix" result="shape"/>
<feGaussianBlur stdDeviation="3.74915" result="effect1_foregroundBlur_315_55334"/>
</filter>
<filter id="filter2_f_315_55334" x="34.2017" y="37.8628" width="73.3916" height="92.0635" filterUnits="userSpaceOnUse" color-interpolation-filters="sRGB">
<feFlood flood-opacity="0" result="BackgroundImageFix"/>
<feBlend mode="normal" in="SourceGraphic" in2="BackgroundImageFix" result="shape"/>
<feGaussianBlur stdDeviation="7.49829" result="effect1_foregroundBlur_315_55334"/>
</filter>
<filter id="filter3_f_315_55334" x="108.378" y="34.2746" width="43.8757" height="23.4508" filterUnits="userSpaceOnUse" color-interpolation-filters="sRGB">
<feFlood flood-opacity="0" result="BackgroundImageFix"/>
<feBlend mode="normal" in="SourceGraphic" in2="BackgroundImageFix" result="shape"/>
<feGaussianBlur stdDeviation="2.49943" result="effect1_foregroundBlur_315_55334"/>
</filter>
<filter id="filter4_f_315_55334" x="42.4787" y="46.0324" width="45.7341" height="23.6696" filterUnits="userSpaceOnUse" color-interpolation-filters="sRGB">
<feFlood flood-opacity="0" result="BackgroundImageFix"/>
<feBlend mode="normal" in="SourceGraphic" in2="BackgroundImageFix" result="shape"/>
<feGaussianBlur stdDeviation="2.49943" result="effect1_foregroundBlur_315_55334"/>
</filter>
<radialGradient id="paint0_radial_315_55334" cx="0" cy="0" r="1" gradientUnits="userSpaceOnUse" gradientTransform="translate(83.5129 42.5381) rotate(79.9065) scale(129.977 137.993)">
<stop offset="0.204" stop-color="#9C97DD"/>
<stop offset="0.528" stop-color="#A7A1FF"/>
<stop offset="1" stop-color="#635BC6"/>
</radialGradient>
<radialGradient id="paint1_radial_315_55334" cx="0" cy="0" r="1" gradientUnits="userSpaceOnUse" gradientTransform="translate(86.8905 164.048) rotate(-67.2931) scale(151.49 141.882)">
<stop offset="0.84375" stop-color="#9189FF" stop-opacity="0"/>
<stop offset="1" stop-color="#9189FF"/>
</radialGradient>
<linearGradient id="paint2_linear_315_55334" x1="101.793" y1="92.6076" x2="149.517" y2="132.592" gradientUnits="userSpaceOnUse">
<stop offset="0.694" stop-color="#8590CE" stop-opacity="0"/>
<stop offset="0.934" stop-color="#8590CE"/>
</linearGradient>
<linearGradient id="paint3_linear_315_55334" x1="97.2492" y1="95.4239" x2="58.2184" y2="154.413" gradientUnits="userSpaceOnUse">
<stop offset="0.694" stop-color="#8590CE" stop-opacity="0"/>
<stop offset="0.885" stop-color="#7872D9"/>
</linearGradient>
<radialGradient id="paint4_radial_315_55334" cx="0" cy="0" r="1" gradientUnits="userSpaceOnUse" gradientTransform="translate(84.5015 44.5464) rotate(79.9999) scale(133.407 164.999)">
<stop offset="0.733" stop-color="#3930BF" stop-opacity="0"/>
<stop offset="0.926695" stop-color="#3930BF"/>
</radialGradient>
<radialGradient id="paint5_radial_315_55334" cx="0" cy="0" r="1" gradientUnits="userSpaceOnUse" gradientTransform="translate(110.886 77.0148) rotate(127.379) scale(79.8213 117.145)">
<stop offset="0.616" stop-color="#6057DD" stop-opacity="0"/>
<stop offset="1" stop-color="#6057DD"/>
</radialGradient>
<radialGradient id="paint6_radial_315_55334" cx="0" cy="0" r="1" gradientUnits="userSpaceOnUse" gradientTransform="translate(120.845 147.903) rotate(-136.7) scale(168.337 170.801)">
<stop offset="0.669" stop-color="#6057DD" stop-opacity="0"/>
<stop offset="1" stop-color="#409157"/>
<stop offset="1" stop-color="#6057DD"/>
</radialGradient>
<radialGradient id="paint7_radial_315_55334" cx="0" cy="0" r="1" gradientUnits="userSpaceOnUse" gradientTransform="translate(89.0243 83.0929) rotate(79.9999) scale(87.4752 98.5024)">
<stop offset="0.764" stop-color="#8590CE" stop-opacity="0"/>
<stop offset="0.934" stop-color="#8590CE"/>
</radialGradient>
<radialGradient id="paint8_radial_315_55334" cx="0" cy="0" r="1" gradientUnits="userSpaceOnUse" gradientTransform="translate(89.0243 83.0929) rotate(89.9308) scale(79.6304 80.2831)">
<stop offset="0.866724" stop-color="#3A31BD" stop-opacity="0"/>
<stop offset="1" stop-color="#3A31BD"/>
</radialGradient>
<radialGradient id="paint9_radial_315_55334" cx="0" cy="0" r="1" gradientUnits="userSpaceOnUse" gradientTransform="translate(138.446 29.1952) rotate(103.398) scale(75.4244 29.5723)">
<stop stop-color="#EBEAFF"/>
<stop offset="1" stop-color="#E0DEFF" stop-opacity="0"/>
</radialGradient>
<radialGradient id="paint10_radial_315_55334" cx="0" cy="0" r="1" gradientUnits="userSpaceOnUse" gradientTransform="translate(92.0417 72.716) rotate(-145.541) scale(46.8372 83.144)">
<stop stop-color="#C0BCFF"/>
<stop offset="0.635417" stop-color="#D7D5FF"/>
<stop offset="1" stop-color="#C0BCFF" stop-opacity="0"/>
</radialGradient>
<linearGradient id="paint11_linear_315_55334" x1="138.303" y1="45.5563" x2="124.076" y2="41.2684" gradientUnits="userSpaceOnUse">
<stop stop-color="#8F87FF"/>
<stop offset="1" stop-color="#8F87FF" stop-opacity="0"/>
</linearGradient>
<linearGradient id="paint12_linear_315_55334" x1="72.4036" y1="57.2929" x2="58.1767" y2="53.0098" gradientUnits="userSpaceOnUse">
<stop stop-color="#9992FF"/>
<stop offset="1" stop-color="#978FFF" stop-opacity="0"/>
</linearGradient>
<clipPath id="clip0_315_55334">
<rect width="159.963" height="159.964" fill="white" transform="matrix(0.984808 -0.173648 0.173649 0.984808 0.985352 28.4844)"/>
</clipPath>
</defs>
</svg>
