<svg width="52" height="52" viewBox="0 0 52 52" fill="none" xmlns="http://www.w3.org/2000/svg">
<g id="icon/contact/telegram">
<path id="Vector" d="M36.5469 19.1165L36.547 19.1165L36.5478 19.1049C36.5609 18.9223 36.5541 18.7226 36.5488 18.5748L36.548 18.5517C36.5455 18.4833 36.5435 18.4278 36.543 18.3811C36.5425 18.3376 36.5437 18.321 36.5435 18.321L36.5543 18.2562L36.5452 18.1839C36.5164 17.9531 36.4219 17.5637 36.0619 17.2736C35.8511 17.0993 35.603 17.0107 35.4081 16.9636C35.2077 16.9153 35.0216 16.9009 34.9008 16.9009C34.3945 16.9009 33.8083 17.0377 32.6394 17.4617C31.4619 17.889 29.6364 18.6303 26.6274 19.8858C24.5205 20.7547 20.314 22.5761 13.9939 25.3249C13.4719 25.5362 13.0395 25.7544 12.7234 25.9875C12.4204 26.2109 12.1327 26.5155 12.0872 26.9216C12.0503 27.2462 12.141 27.5353 12.3309 27.7725C12.5062 27.9915 12.7488 28.1453 12.9896 28.2634C13.3655 28.4478 13.8683 28.6033 14.3859 28.7634C14.5134 28.8029 14.6418 28.8426 14.7694 28.8831C15.33 29.0699 15.9856 29.2682 16.6034 29.4234C17.2115 29.5761 17.8194 29.6965 18.2677 29.7091C19.1134 29.7352 19.9989 29.3667 20.9019 28.7572C23.8593 26.7639 26.0949 25.2645 27.6151 24.2583C28.3645 23.7622 28.938 23.3874 29.3376 23.1327C29.2471 23.2263 29.1477 23.3274 29.0405 23.435C28.5058 23.9717 27.7967 24.6513 27.0772 25.3302C26.2492 26.1115 25.399 26.8996 24.7994 27.4554C24.3678 27.8556 24.0659 28.1354 23.9955 28.2057L23.9925 28.2088C23.8448 28.3591 23.6937 28.5034 23.5417 28.6479C23.5294 28.6595 23.5172 28.6711 23.5049 28.6828C23.3669 28.8138 23.2271 28.9466 23.0973 29.0772C22.8226 29.3536 22.5422 29.6684 22.3858 30.0231C22.2142 30.4122 22.1955 30.8417 22.4254 31.2806C22.6363 31.6831 23.0355 32.0529 23.5978 32.4221C24.5099 33.023 25.2352 33.5172 25.9705 34.0181L25.9824 34.0262C26.7218 34.53 27.4721 35.0411 28.4289 35.6718C28.6641 35.8271 28.8879 35.9867 29.1142 36.1479C29.1708 36.1883 29.2277 36.2288 29.2848 36.2694C29.5655 36.4685 29.8532 36.6679 30.1473 36.8398C30.7387 37.1852 31.3973 37.4441 32.1704 37.3774L32.1776 37.3768L32.1847 37.376C33.0933 37.2711 33.7786 36.4196 34.0923 34.7394L34.0923 34.7392C34.807 30.9061 36.2195 22.5653 36.5469 19.1165ZM29.8741 22.5304C29.8739 22.5307 29.8736 22.5312 29.8731 22.532C29.8753 22.528 29.8759 22.5273 29.8741 22.5304ZM4.8291 26.0026C4.8291 14.3187 14.3119 4.83594 25.9958 4.83594C37.6796 4.83594 47.1624 14.3187 47.1624 26.0026C47.1624 37.6865 37.6796 47.1693 25.9958 47.1693C14.3119 47.1693 4.8291 37.6865 4.8291 26.0026Z" fill="white" stroke="white"/>
</g>
</svg>
