<svg width="52" height="52" viewBox="0 0 52 52" fill="none" xmlns="http://www.w3.org/2000/svg">
<g id="icon/contact/whatsAppp">
<path id="Vector" d="M18.8244 15.3179L18.8153 15.3088L18.6038 15.3172C18.4512 15.3189 18.2986 15.325 18.1462 15.3356L18.1464 15.3381C17.8015 15.3602 17.4644 15.4514 17.1554 15.6062L17.144 15.6119L17.1329 15.6182C16.8595 15.773 16.6096 15.9661 16.3907 16.1916C16.1423 16.427 15.9791 16.643 15.8464 16.8186C15.8236 16.8489 15.8016 16.8779 15.7803 16.9056C14.9114 18.0355 14.4435 19.4226 14.4505 20.848C14.4505 20.8481 14.4505 20.8483 14.4505 20.8484L14.9505 20.8459M18.8244 15.3179L29.6621 35.6378C26.5817 34.8275 23.7328 33.3096 21.3421 31.2048C20.9205 30.8335 20.5245 30.4381 20.1266 30.0407C20.0624 29.9766 19.9982 29.9125 19.9338 29.8484C18.0098 27.9309 16.5516 25.8618 15.6655 23.9074C15.2321 22.9411 14.9548 21.9076 14.9505 20.8459M18.8244 15.3179C18.9092 15.3193 18.9941 15.3222 19.0789 15.3264L19.0911 15.327L19.0911 15.3271C19.2173 15.3365 19.342 15.3503 19.4563 15.363L19.4603 15.3635L19.4645 15.364L19.4645 15.364C19.7086 15.3931 19.9577 15.4794 20.1717 15.6094C20.382 15.7372 20.5964 15.9309 20.7142 16.1983C21.3614 17.6666 21.9915 19.146 22.5998 20.6322L18.8244 15.3179ZM14.9505 20.8459C14.9439 19.5315 15.3754 18.2522 16.1768 17.2103L14.9505 20.8459ZM22.3608 22.2468C22.2209 22.473 22.0088 22.7827 21.7593 23.1003C21.6267 23.2693 21.4248 23.5015 21.2627 23.6844C21.1803 23.7774 21.1058 23.8603 21.0518 23.9201L20.9878 23.9908L20.9811 23.9981C20.9752 24.0073 20.9666 24.0222 20.959 24.0403C20.9457 24.0723 20.9422 24.0969 20.9443 24.1162C20.9843 24.2236 21.0366 24.3262 21.1 24.4217L21.1042 24.428L21.1082 24.4345L21.2361 24.6403L21.2381 24.6437L21.2381 24.6437C21.8303 25.6143 22.546 26.5039 23.3671 27.2903L23.3688 27.2919C23.4454 27.366 23.5189 27.4381 23.5906 27.5086C23.7755 27.6902 23.949 27.8607 24.1366 28.0244L24.1385 28.0261C25.1165 28.8885 26.223 29.5932 27.418 30.115C27.5057 30.1522 27.5661 30.1784 27.6278 30.2053C27.7118 30.2419 27.7983 30.2795 27.9597 30.3472L27.9626 30.3484C28.0744 30.3961 28.1893 30.4359 28.3067 30.4675C28.3558 30.4798 28.4074 30.4773 28.4552 30.4604C28.5035 30.4434 28.5457 30.4123 28.5764 30.3711L28.5839 30.361L28.5918 30.3513C29.3757 29.4016 29.8072 28.8919 30.0453 28.6189C30.1634 28.4836 30.2389 28.4007 30.2885 28.3498C30.3116 28.3262 30.3393 28.2988 30.3685 28.2747C30.3742 28.2699 30.3839 28.262 30.3969 28.2526C30.5498 28.1191 30.7277 28.017 30.9204 27.9522C31.1249 27.8835 31.3414 27.8585 31.556 27.8785C31.7437 27.8888 31.928 27.9326 32.1004 28.0079L32.1074 28.0109L32.1073 28.011C32.6807 28.2718 33.4378 28.6071 34.0528 28.8778C34.3601 29.0131 34.6313 29.132 34.8258 29.217L35.0547 29.317L35.1164 29.3439L35.1323 29.3509L35.1363 29.3526L35.1373 29.3531L35.1376 29.3532L35.1376 29.3532L34.938 29.8116L35.1377 29.3532L35.1426 29.3554L35.1426 29.3554L36.4036 29.9209L36.4103 29.9239L36.417 29.9271C36.6014 30.0165 36.763 30.1573 36.8819 30.3175C36.9992 30.4755 37.1006 30.688 37.1102 30.9306L22.6 20.6327C22.819 21.1665 22.6609 21.7634 22.3608 22.2468ZM22.3608 22.2468C22.3607 22.247 22.3606 22.2471 22.3606 22.2472L21.9358 21.9834L22.361 22.2465C22.3609 22.2466 22.3609 22.2467 22.3608 22.2468ZM26.0026 47.1693H26.0018C22.2616 47.1753 18.5872 46.1855 15.3562 44.3015L15.175 44.1959L14.9727 44.2511L5.05674 46.9567L7.75642 37.0366L7.81146 36.8343L7.70585 36.6533C5.8203 33.4213 4.82972 29.7453 4.83597 26.0034V26.0026C4.83597 14.3122 14.3123 4.83594 26.0026 4.83594C37.693 4.83594 47.1693 14.3122 47.1693 26.0026C47.1693 37.693 37.693 47.1693 26.0026 47.1693ZM34.1343 35.7406C34.4305 35.5878 34.7196 35.4217 35.0007 35.2427L35.0008 35.2427L35.005 35.2399L34.7321 34.8209L35.005 35.2399L35.0051 35.2399L35.0052 35.2398L35.0055 35.2396L35.0062 35.2392L35.0079 35.238L35.013 35.2347L35.0296 35.2235C35.0436 35.2141 35.0632 35.2006 35.0883 35.183C35.1383 35.1479 35.21 35.0962 35.3026 35.0262C35.6125 34.7966 35.814 34.6246 36.0782 34.3487C36.2934 34.1256 36.4807 33.863 36.624 33.5634L34.1343 35.7406Z" fill="white" stroke="white"/>
</g>
</svg>
