<svg width="40" height="40" viewBox="0 0 40 40" fill="none" xmlns="http://www.w3.org/2000/svg">
<g id="ph:arrow-up-thin">
<g clip-path="url(#clip0_656_63583)">
<path id="Vector" d="M33.5284 29.0006C33.4141 29.0006 33.3009 28.9782 33.1953 28.9345C33.0898 28.8908 32.9938 28.8267 32.913 28.7459C32.8322 28.6651 32.7681 28.5691 32.7244 28.4636C32.6807 28.358 32.6583 28.2448 32.6583 28.1305L32.6583 8.09516L7.08918 33.6643C6.9261 33.8274 6.70493 33.919 6.47431 33.919C6.24369 33.919 6.02252 33.8274 5.85945 33.6643C5.69637 33.5012 5.60476 33.2801 5.60476 33.0494C5.60476 32.8188 5.69637 32.5977 5.85945 32.4346L31.4286 6.86543L11.3932 6.86542C11.279 6.86542 11.1658 6.84292 11.0603 6.7992C10.9547 6.75547 10.8588 6.69139 10.778 6.6106C10.6972 6.52981 10.6331 6.43389 10.5894 6.32834C10.5457 6.22278 10.5232 6.10964 10.5232 5.99539C10.5232 5.88113 10.5457 5.768 10.5894 5.66244C10.6331 5.55688 10.6972 5.46097 10.778 5.38018C10.8588 5.29939 10.9547 5.23531 11.0603 5.19158C11.1658 5.14786 11.279 5.12535 11.3932 5.12536L33.5284 5.12536C33.6426 5.12529 33.7558 5.14775 33.8614 5.19145C33.967 5.23516 34.0629 5.29924 34.1437 5.38004C34.2245 5.46085 34.2886 5.55678 34.3323 5.66237C34.376 5.76796 34.3985 5.88112 34.3984 5.99539L34.3984 28.1305C34.3985 28.2448 34.376 28.358 34.3323 28.4636C34.2886 28.5691 34.2245 28.6651 34.1437 28.7459C34.0629 28.8267 33.967 28.8908 33.8614 28.9345C33.7558 28.9782 33.6426 29.0006 33.5284 29.0006Z" fill="white" stroke="white"/>
</g>
</g>
<defs>
<clipPath id="clip0_656_63583">
<rect x="40" width="40" height="40" rx="20" transform="rotate(90 40 0)" fill="white"/>
</clipPath>
</defs>
</svg>
