<svg width="16" height="16" viewBox="0 0 16 16" fill="none" xmlns="http://www.w3.org/2000/svg">
<path d="M15.0239 12.7391C14.9668 12.7391 14.9102 12.7279 14.8574 12.706C14.8046 12.6842 14.7567 12.6521 14.7163 12.6117C14.6759 12.5713 14.6438 12.5233 14.622 12.4705C14.6001 12.4178 14.5889 12.3612 14.5889 12.304L14.5889 2.28635L1.80435 15.0709C1.72282 15.1525 1.61223 15.1983 1.49692 15.1983C1.38161 15.1983 1.27102 15.1525 1.18949 15.0709C1.10795 14.9894 1.06214 14.8788 1.06214 14.7635C1.06215 14.6482 1.10795 14.5376 1.18949 14.4561L13.9741 1.67148L3.95638 1.67148C3.89925 1.67148 3.84268 1.66023 3.78991 1.63837C3.73713 1.61651 3.68917 1.58446 3.64878 1.54407C3.60838 1.50367 3.57634 1.45572 3.55448 1.40294C3.53261 1.35016 3.52136 1.29359 3.52136 1.23646C3.52136 1.17934 3.53261 1.12277 3.55448 1.06999C3.57634 1.01721 3.60838 0.969256 3.64878 0.928861C3.68917 0.888465 3.73713 0.856423 3.78991 0.834561C3.84268 0.812699 3.89925 0.801447 3.95638 0.801447L15.0239 0.801448C15.0811 0.801416 15.1377 0.812646 15.1905 0.834497C15.2433 0.856347 15.2912 0.888389 15.3316 0.928791C15.372 0.969193 15.4041 1.01716 15.4259 1.06995C15.4478 1.12275 15.459 1.17933 15.459 1.23647L15.459 12.304C15.459 12.3612 15.4478 12.4178 15.4259 12.4705C15.4041 12.5233 15.372 12.5713 15.3316 12.6117C15.2912 12.6521 15.2433 12.6842 15.1905 12.706C15.1377 12.7279 15.0811 12.7391 15.0239 12.7391Z" fill="#3A31BD" stroke="#3A31BD"/>
</svg>
